{"glyphs":{"0":{"ha":952,"x_min":69,"x_max":882,"o":"m 71 429 q 89 551 72 494 q 135 654 106 608 q 204 737 164 701 q 290 798 243 773 q 387 836 336 823 q 489 849 437 848 q 669 817 594 850 q 791 726 743 784 q 861 590 839 669 q 882 422 882 512 q 865 299 881 357 q 822 193 850 241 q 756 105 794 144 q 673 40 718 66 q 576 -2 627 13 q 471 -16 525 -16 q 292 20 368 -16 q 167 119 216 57 q 93 261 117 180 q 71 429 69 342 m 486 87 q 551 105 525 85 q 591 165 576 125 q 612 269 606 206 q 618 414 618 331 q 607 550 618 489 q 577 654 597 610 q 528 721 557 697 q 464 746 500 745 q 399 726 425 747 q 359 667 374 706 q 339 570 345 627 q 334 441 334 513 q 338 360 334 401 q 352 279 342 318 q 374 205 361 240 q 404 145 387 171 q 441 103 420 119 q 486 87 461 87 z "},"1":{"ha":675,"x_min":41,"x_max":646,"o":"m 77 99 l 254 127 l 254 618 l 66 597 l 41 707 q 95 725 63 713 q 163 751 127 736 q 236 782 199 766 q 304 814 273 799 q 359 841 336 829 q 391 860 382 853 l 488 847 l 485 126 l 646 99 l 646 0 l 77 0 l 77 99 z "},"2":{"ha":856,"x_min":54,"x_max":818,"o":"m 60 88 q 165 156 113 119 q 265 233 217 193 q 354 315 313 273 q 427 400 396 357 q 474 483 457 442 q 492 562 492 524 q 483 615 492 589 q 456 664 474 642 q 411 698 439 685 q 347 711 384 711 q 271 702 305 711 q 208 678 237 692 q 155 647 179 664 q 112 614 132 629 l 54 701 q 97 745 66 719 q 176 797 128 772 q 286 839 224 821 q 422 857 348 857 q 557 837 498 857 q 657 783 616 817 q 720 707 699 750 q 741 617 741 663 q 729 529 741 570 q 692 449 717 488 q 632 373 668 410 q 546 296 595 335 q 436 214 497 256 q 300 122 374 171 l 657 170 l 720 250 l 818 220 l 771 0 l 94 0 l 60 88 z "},"3":{"ha":756,"x_min":30,"x_max":703,"o":"m 77 -91 q 227 -103 155 -111 q 352 -66 298 -96 q 438 13 406 -37 q 470 129 470 63 q 469 158 470 141 q 462 195 467 176 q 447 233 457 214 q 418 269 437 252 q 372 297 400 285 q 305 314 345 309 l 159 283 l 159 408 q 203 416 178 410 q 257 433 229 422 q 312 461 285 444 q 361 501 340 478 q 396 554 382 524 q 410 621 410 583 q 399 669 410 649 q 372 702 389 689 q 336 721 356 715 q 297 726 316 726 q 224 719 256 726 q 168 702 193 712 q 123 680 142 692 q 88 658 104 668 l 30 744 q 65 773 39 754 q 133 812 92 793 q 230 846 174 831 q 353 861 286 861 q 454 848 404 861 q 545 809 505 836 q 610 738 585 782 q 635 632 635 694 q 618 553 635 593 q 571 480 600 514 q 504 420 542 446 q 427 382 467 394 q 537 363 487 381 q 625 313 588 345 q 683 236 662 281 q 703 136 703 191 q 683 31 703 82 q 626 -65 663 -20 q 533 -145 588 -110 q 409 -200 479 -180 q 256 -225 340 -221 q 77 -211 173 -229 q 77 -151 77 -179 q 77 -91 77 -123 z "},"4":{"ha":887,"x_min":51,"x_max":864,"o":"m 51 88 q 118 199 81 139 q 193 326 155 260 q 272 462 232 392 q 349 601 311 532 q 419 737 386 670 q 480 864 453 804 l 547 864 l 703 760 l 289 170 l 241 111 l 544 143 l 555 399 l 742 422 l 742 163 l 864 176 l 864 0 l 742 0 l 742 -255 l 528 -255 l 538 0 l 84 0 l 51 88 z "},"5":{"ha":772,"x_min":73,"x_max":713,"o":"m 73 -123 q 219 -118 148 -130 q 345 -73 290 -106 q 434 16 400 -40 q 467 154 467 72 q 453 244 467 202 q 405 315 439 287 q 316 351 372 342 q 176 340 260 359 l 87 367 l 130 839 l 581 839 l 600 864 l 688 864 l 631 660 l 286 660 l 242 456 q 385 480 319 479 q 502 465 450 481 q 594 420 554 450 q 660 353 633 391 q 700 271 686 315 q 713 182 713 227 q 691 53 713 112 q 628 -52 668 -5 q 535 -133 589 -98 q 420 -192 481 -168 q 291 -227 358 -215 q 157 -238 223 -238 q 115 -236 139 -238 q 73 -229 92 -234 l 73 -123 z "},"6":{"ha":914,"x_min":77,"x_max":846,"o":"m 77 373 q 103 548 77 465 q 173 701 129 630 q 278 831 218 772 q 407 935 338 890 q 550 1009 476 979 q 698 1052 625 1039 l 751 951 q 649 912 701 939 q 548 849 597 886 q 457 766 500 812 q 382 664 414 719 q 332 549 351 610 q 314 422 314 488 q 315 354 314 391 q 321 279 317 317 q 336 206 326 241 q 364 143 347 171 q 409 99 382 116 q 473 83 435 83 q 522 94 496 83 q 569 132 548 104 q 605 205 591 159 q 618 321 618 251 q 609 387 618 353 q 579 448 599 420 q 532 494 560 476 q 469 512 505 512 q 383 493 419 512 l 351 557 q 378 588 359 571 q 424 621 397 606 q 488 646 452 636 q 567 656 524 656 q 688 634 636 656 q 775 571 741 611 q 828 477 810 531 q 846 360 846 423 q 819 211 846 280 q 741 92 792 142 q 615 13 689 41 q 449 -16 542 -16 q 293 15 362 -16 q 176 99 224 46 q 103 223 128 153 q 77 373 77 294 z "},"7":{"ha":836,"x_min":80,"x_max":798,"o":"m 178 -146 q 286 57 233 -46 q 393 270 340 161 q 501 495 447 379 q 610 736 555 611 l 273 718 l 222 562 l 80 565 l 105 850 l 759 850 l 798 807 l 411 -228 l 178 -146 z "},"8":{"ha":880,"x_min":67,"x_max":820,"o":"m 67 253 q 80 330 67 290 q 120 409 93 371 q 189 479 147 447 q 290 530 231 511 q 222 585 254 557 q 166 646 190 614 q 128 716 142 679 q 114 796 114 753 q 143 914 114 864 q 220 997 172 964 q 327 1046 267 1030 q 448 1063 387 1063 q 570 1048 511 1063 q 673 1003 628 1034 q 744 926 718 972 q 771 816 771 880 q 755 743 771 780 q 713 672 739 705 q 656 613 688 639 q 592 574 624 587 q 677 512 636 544 q 750 444 718 479 q 801 368 782 408 q 820 282 820 328 q 805 186 820 229 q 764 110 790 143 q 703 53 738 77 q 626 14 667 29 q 541 -9 585 -1 q 452 -16 496 -16 q 311 -2 380 -16 q 188 44 242 12 q 100 128 134 77 q 67 253 67 179 m 504 632 q 562 704 543 661 q 580 802 581 747 q 568 869 580 839 q 536 921 556 899 q 490 955 516 943 q 436 966 465 966 q 395 960 416 966 q 355 939 373 953 q 325 902 337 924 q 313 850 313 880 q 329 791 313 819 q 370 736 344 763 q 431 684 396 709 q 504 632 465 658 m 277 309 q 292 217 277 259 q 332 146 307 176 q 391 99 357 116 q 463 83 425 83 q 511 90 487 83 q 556 114 536 97 q 588 160 576 132 q 601 231 601 189 q 582 298 601 267 q 531 358 563 330 q 459 415 500 387 q 375 471 418 443 q 337 438 355 456 q 306 400 319 420 q 285 357 293 380 q 277 309 277 334 z "},"9":{"ha":903,"x_min":61,"x_max":830,"o":"m 191 -177 q 290 -134 241 -164 q 385 -60 340 -103 q 467 38 429 -16 q 533 154 505 93 q 577 281 562 216 q 593 412 593 347 q 592 480 593 443 q 586 555 591 517 q 571 628 581 593 q 543 691 561 663 q 499 735 526 718 q 434 751 472 751 q 385 741 411 751 q 338 703 359 730 q 303 629 317 675 q 289 513 289 583 q 299 447 289 481 q 328 386 309 414 q 375 340 347 358 q 439 322 403 322 q 524 341 488 322 l 556 277 q 531 243 547 261 q 488 211 514 226 q 426 187 463 197 q 340 178 389 178 q 219 200 271 178 q 132 263 167 223 q 79 357 97 303 q 61 474 61 411 q 88 623 61 554 q 167 742 115 692 q 292 822 218 793 q 458 850 366 850 q 614 819 545 850 q 731 735 684 788 q 805 611 779 682 q 830 461 830 541 q 807 282 830 369 q 743 118 784 195 q 646 -27 702 40 q 525 -145 590 -94 q 388 -230 460 -196 q 243 -277 316 -264 l 191 -177 z "},"\u0000":{"ha":0,"x_min":0,"x_max":0,"o":""},"\u0001":{"ha":0,"x_min":0,"x_max":0,"o":""},"\u0002":{"ha":0,"x_min":0,"x_max":0,"o":""},"\u0003":{"ha":0,"x_min":0,"x_max":0,"o":""},"\u0004":{"ha":0,"x_min":0,"x_max":0,"o":""},"\u0005":{"ha":0,"x_min":0,"x_max":0,"o":""},"\u0006":{"ha":0,"x_min":0,"x_max":0,"o":""},"\u0007":{"ha":0,"x_min":0,"x_max":0,"o":""},"\b":{"ha":0,"x_min":0,"x_max":0,"o":""},"\t":{"ha":0,"x_min":0,"x_max":0,"o":""},"\n":{"ha":0,"x_min":0,"x_max":0,"o":""},"\u000b":{"ha":0,"x_min":0,"x_max":0,"o":""},"\f":{"ha":0,"x_min":0,"x_max":0,"o":""},"\r":{"ha":0,"x_min":0,"x_max":0,"o":""},"\u000e":{"ha":0,"x_min":0,"x_max":0,"o":""},"\u000f":{"ha":0,"x_min":0,"x_max":0,"o":""},"\u0010":{"ha":0,"x_min":0,"x_max":0,"o":""},"\u0011":{"ha":0,"x_min":0,"x_max":0,"o":""},"\u0012":{"ha":0,"x_min":0,"x_max":0,"o":""},"\u0013":{"ha":0,"x_min":0,"x_max":0,"o":""},"\u0014":{"ha":0,"x_min":0,"x_max":0,"o":""},"\u0015":{"ha":0,"x_min":0,"x_max":0,"o":""},"\u0016":{"ha":0,"x_min":0,"x_max":0,"o":""},"\u0017":{"ha":0,"x_min":0,"x_max":0,"o":""},"\u0018":{"ha":0,"x_min":0,"x_max":0,"o":""},"\u0019":{"ha":0,"x_min":0,"x_max":0,"o":""},"\u001a":{"ha":0,"x_min":0,"x_max":0,"o":""},"\u001b":{"ha":0,"x_min":0,"x_max":0,"o":""},"\u001c":{"ha":0,"x_min":0,"x_max":0,"o":""},"\u001d":{"ha":0,"x_min":0,"x_max":0,"o":""},"\u001e":{"ha":0,"x_min":0,"x_max":0,"o":""},"\u001f":{"ha":0,"x_min":0,"x_max":0,"o":""}," ":{"ha":380,"x_min":0,"x_max":0,"o":""},"!":{"ha":551,"x_min":113,"x_max":438,"o":"m 113 1207 l 438 1207 l 334 385 l 211 385 l 113 1207 m 121 104 q 136 165 121 137 q 175 214 151 193 q 227 247 198 235 q 283 258 255 258 q 345 248 319 258 q 389 220 372 237 q 415 178 406 202 q 423 127 423 154 q 409 65 423 92 q 371 18 395 37 q 318 -12 348 -1 q 259 -22 289 -22 q 209 -13 233 -22 q 164 11 184 -5 q 133 51 145 27 q 121 104 121 74 z "},"\"":{"ha":855,"x_min":118,"x_max":737,"o":"m 490 1208 l 737 1208 l 680 648 l 547 648 l 490 1208 m 118 1208 l 366 1208 l 308 648 l 176 648 l 118 1208 z "},"#":{"ha":1010,"x_min":77,"x_max":933,"o":"m 224 234 l 77 234 l 77 382 l 237 382 l 254 562 l 94 562 l 94 709 l 263 709 l 289 919 l 456 919 l 437 709 l 602 709 l 621 919 l 798 919 l 781 709 l 933 709 l 933 562 l 764 562 l 748 382 l 907 382 q 908 308 907 345 q 908 234 908 271 l 734 234 l 713 0 l 541 0 l 559 234 l 400 234 l 377 0 l 203 0 l 224 234 m 572 382 l 587 562 l 429 562 l 413 382 l 572 382 z "},"$":{"ha":926,"x_min":82,"x_max":844,"o":"m 86 318 l 188 318 l 251 155 q 291 117 269 131 q 338 96 313 103 q 389 87 363 89 q 442 85 416 85 q 497 93 469 85 q 549 117 526 100 q 588 163 572 134 q 603 236 603 192 q 582 299 603 271 q 526 353 561 328 q 447 403 492 379 q 356 452 403 427 q 256 511 305 479 q 168 580 207 542 q 106 666 130 618 q 82 774 82 713 q 109 889 82 838 q 180 976 136 940 q 282 1034 224 1013 q 404 1061 340 1055 l 407 1201 l 552 1201 l 549 1058 q 627 1049 590 1055 q 694 1038 665 1044 q 745 1025 724 1031 q 774 1014 766 1019 l 774 789 l 663 789 l 600 932 q 584 941 596 936 q 553 952 571 947 q 513 960 534 957 q 470 964 491 964 q 415 958 443 964 q 364 940 387 953 q 327 906 341 928 q 311 852 312 885 q 327 783 311 814 q 370 726 343 752 q 433 676 397 699 q 509 631 469 653 q 587 589 547 610 q 664 544 627 568 q 734 495 701 521 q 791 437 767 469 q 830 368 816 406 q 844 286 844 331 q 820 172 844 224 q 750 79 795 119 q 637 14 704 39 q 487 -17 571 -12 l 481 -163 l 329 -163 l 335 -14 q 261 -5 298 -10 q 193 8 225 1 q 133 24 160 16 q 86 43 105 33 l 86 318 z "},"%":{"ha":1449,"x_min":74,"x_max":1360,"o":"m 871 1200 l 1034 1200 l 543 -120 l 381 -120 l 871 1200 m 328 469 q 222 489 269 469 q 142 542 175 508 q 92 620 109 575 q 74 714 74 665 q 97 822 74 775 q 158 902 119 869 q 246 951 196 934 q 351 968 296 968 q 465 948 417 968 q 544 896 513 929 q 590 817 575 862 q 604 720 604 772 q 582 613 604 660 q 520 534 559 566 q 432 486 482 503 q 328 469 382 469 m 347 566 q 410 607 387 566 q 433 715 433 647 q 425 779 433 750 q 403 828 416 808 q 373 860 390 848 q 340 871 357 871 q 302 860 319 871 q 272 830 285 850 q 252 782 259 810 q 245 720 245 754 q 254 661 245 688 q 278 612 264 633 q 311 578 293 591 q 347 566 329 566 m 829 356 q 852 464 829 417 q 913 544 875 511 q 1002 593 951 576 q 1106 610 1052 610 q 1221 590 1173 610 q 1300 537 1269 571 q 1345 459 1331 504 q 1360 362 1360 414 q 1337 255 1360 302 q 1276 176 1314 208 q 1187 128 1238 144 q 1083 111 1137 111 q 977 131 1024 111 q 898 184 930 151 q 847 262 865 218 q 829 356 829 307 m 1004 361 q 1014 302 1004 330 q 1038 254 1023 275 q 1070 220 1053 233 q 1106 208 1088 208 q 1169 249 1146 208 q 1192 357 1192 289 q 1184 421 1192 392 q 1163 470 1176 450 q 1133 502 1149 490 q 1099 513 1116 513 q 1062 502 1079 513 q 1031 472 1044 492 q 1011 424 1019 452 q 1004 361 1004 396 z "},"&":{"ha":1080,"x_min":56,"x_max":1031,"o":"m 56 262 q 74 354 56 315 q 124 423 93 393 q 197 475 156 453 q 285 516 239 498 q 240 577 262 546 q 200 641 218 608 q 173 709 183 673 q 164 783 163 745 q 196 902 166 851 q 271 986 225 953 q 374 1036 317 1019 q 486 1053 431 1053 q 606 1036 550 1053 q 703 990 662 1020 q 768 917 745 960 q 792 822 792 875 q 775 732 792 776 q 726 649 758 688 q 650 576 694 610 q 551 519 606 543 q 605 451 575 487 q 665 379 635 415 q 725 312 696 344 q 776 257 753 280 l 783 248 q 788 296 787 272 q 788 344 788 321 q 779 447 788 409 q 762 500 770 486 l 975 500 q 982 492 977 498 q 990 472 986 486 q 997 436 994 458 q 1000 381 1000 414 q 976 259 1000 322 q 906 145 951 196 q 1031 104 972 104 l 1031 9 q 966 -9 1006 -5 q 882 -11 926 -14 q 846 -7 864 -9 q 811 0 829 -5 q 773 11 793 4 q 733 28 754 18 q 632 -6 688 7 q 499 -19 576 -19 q 308 0 391 -19 q 169 54 225 18 q 84 142 113 90 q 56 262 56 195 m 488 603 q 536 646 517 623 q 565 699 555 670 q 579 761 575 728 q 583 833 583 795 q 577 878 583 855 q 560 918 572 900 q 529 948 548 937 q 482 960 510 960 q 451 955 467 960 q 421 939 435 950 q 396 907 407 927 q 381 857 386 888 q 384 777 374 814 q 412 707 394 739 q 451 648 429 675 q 488 603 472 622 m 290 297 q 309 198 290 237 q 360 135 328 158 q 432 101 392 111 q 515 92 473 92 q 575 93 547 92 q 627 100 604 95 q 561 165 596 127 q 491 246 526 203 q 421 332 455 288 q 357 416 387 376 q 310 363 330 395 q 290 297 290 332 z "},"'":{"ha":484,"x_min":118,"x_max":366,"o":"m 118 1208 l 366 1208 l 308 648 l 176 648 l 118 1208 z "},"(":{"ha":686,"x_min":109,"x_max":587,"o":"m 109 483 q 131 689 109 595 q 188 861 153 783 q 264 998 222 938 q 347 1100 307 1057 q 420 1168 387 1143 q 471 1202 454 1194 l 568 1126 q 532 1097 553 1117 q 485 1045 510 1078 q 435 965 460 1012 q 388 853 410 918 q 352 707 367 789 q 335 521 338 625 q 345 337 332 422 q 379 180 357 252 q 430 51 401 109 q 488 -50 459 -7 q 543 -121 517 -93 q 587 -161 570 -149 l 485 -239 q 434 -208 468 -229 q 357 -149 399 -186 q 271 -56 315 -111 q 191 76 227 -1 q 132 254 155 153 q 109 483 109 355 z "},")":{"ha":686,"x_min":98,"x_max":577,"o":"m 118 -170 q 154 -140 132 -160 q 200 -88 176 -121 q 251 -8 225 -55 q 297 103 276 39 q 333 250 319 168 q 351 436 347 332 q 341 620 353 534 q 306 777 328 705 q 255 906 284 848 q 198 1007 227 964 q 142 1078 169 1050 q 98 1118 116 1105 l 201 1196 q 252 1165 218 1186 q 328 1106 286 1143 q 414 1013 370 1068 q 495 881 458 958 q 554 703 531 804 q 577 474 577 602 q 555 268 577 362 q 498 96 533 174 q 421 -41 463 19 q 339 -143 379 -100 q 265 -211 298 -186 q 215 -245 232 -237 l 118 -170 z "},"*":{"ha":841,"x_min":47,"x_max":793,"o":"m 334 724 l 375 809 l 314 733 l 152 597 l 50 735 l 260 849 l 347 864 l 262 875 l 47 972 l 149 1126 l 314 990 l 375 920 l 334 1010 l 320 1220 l 509 1219 l 494 1010 l 446 920 l 511 999 l 675 1124 l 793 971 l 561 876 l 474 864 l 562 848 l 790 734 l 672 600 l 511 733 l 448 809 l 489 724 l 509 512 l 320 512 l 334 724 z "},"+":{"ha":895,"x_min":117,"x_max":778,"o":"m 359 362 l 366 490 l 260 483 l 117 483 l 117 656 l 260 656 l 366 650 l 359 777 l 359 921 l 536 921 l 536 777 l 530 650 l 635 656 l 778 656 l 778 483 l 635 483 l 530 490 l 536 362 l 536 232 l 359 232 l 359 362 z "},",":{"ha":541,"x_min":122,"x_max":439,"o":"m 123 45 l 261 220 q 342 173 309 203 q 398 106 376 143 q 430 28 420 70 q 439 -53 439 -13 q 413 -186 437 -127 q 350 -288 388 -244 q 266 -360 312 -331 q 174 -404 219 -389 l 122 -357 l 122 -320 q 160 -298 140 -312 q 198 -261 181 -283 q 227 -208 216 -239 q 239 -138 239 -178 q 229 -92 239 -115 q 204 -53 220 -70 q 167 -24 189 -35 q 123 -10 146 -12 l 123 45 z "},"-":{"ha":895,"x_min":124,"x_max":771,"o":"m 124 650 l 771 650 l 771 490 l 124 490 l 124 650 z "},".":{"ha":545,"x_min":121,"x_max":423,"o":"m 121 106 q 136 167 121 139 q 175 216 151 195 q 227 249 198 237 q 283 260 255 260 q 345 250 319 260 q 389 222 372 239 q 415 180 406 204 q 423 129 423 156 q 409 67 423 94 q 371 20 395 39 q 318 -9 348 1 q 259 -20 289 -20 q 209 -11 233 -20 q 164 13 184 -3 q 133 53 145 29 q 121 106 121 76 z "},"/":{"ha":561,"x_min":20,"x_max":541,"o":"m 369 1084 l 541 1084 l 191 -246 l 20 -246 l 369 1084 z "},":":{"ha":545,"x_min":121,"x_max":423,"o":"m 259 476 q 209 485 233 476 q 164 509 184 493 q 133 548 145 525 q 121 602 121 572 q 136 663 121 635 q 175 712 151 691 q 227 744 198 732 q 283 756 255 756 q 345 746 319 756 q 389 718 372 735 q 415 676 406 700 q 423 625 423 652 q 409 563 423 590 q 371 516 395 535 q 318 486 348 496 q 259 476 289 476 m 121 102 q 136 162 121 134 q 175 211 151 191 q 227 244 198 232 q 283 256 255 256 q 345 245 319 256 q 389 217 372 235 q 415 175 406 199 q 423 124 423 151 q 409 62 423 90 q 371 15 395 35 q 318 -14 348 -4 q 259 -24 289 -24 q 209 -16 233 -24 q 164 8 184 -7 q 133 48 145 24 q 121 102 121 71 z "},";":{"ha":562,"x_min":122,"x_max":460,"o":"m 260 476 q 209 485 234 476 q 165 509 184 493 q 134 548 146 525 q 122 602 122 572 q 137 663 122 635 q 175 712 152 691 q 227 744 199 732 q 283 756 256 756 q 346 746 319 756 q 390 718 372 735 q 415 676 407 700 q 424 625 424 652 q 410 563 424 590 q 372 516 395 535 q 319 486 349 496 q 260 476 290 476 m 144 45 l 282 220 q 363 173 330 203 q 419 106 397 143 q 451 28 441 70 q 460 -53 460 -13 q 434 -186 458 -127 q 371 -288 409 -244 q 287 -360 333 -331 q 195 -404 240 -389 l 143 -357 l 143 -320 q 181 -298 161 -312 q 219 -261 202 -283 q 248 -208 237 -239 q 260 -138 260 -178 q 250 -92 260 -115 q 225 -53 241 -70 q 188 -24 210 -35 q 144 -10 167 -12 l 144 45 z "},"<":{"ha":905,"x_min":124,"x_max":781,"o":"m 124 568 l 781 909 l 781 710 l 378 520 l 781 353 l 781 147 l 124 477 l 124 568 z "},"=":{"ha":895,"x_min":124,"x_max":771,"o":"m 124 821 l 771 821 l 771 664 l 124 664 l 124 821 m 124 449 l 771 449 l 771 292 l 124 292 l 124 449 z "},">":{"ha":905,"x_min":124,"x_max":781,"o":"m 124 334 l 528 524 l 124 691 l 124 897 l 781 568 l 781 477 l 124 136 l 124 334 z "},"?":{"ha":721,"x_min":46,"x_max":646,"o":"m 246 368 q 194 427 216 397 q 159 483 173 456 q 139 535 146 511 q 133 578 133 559 q 148 626 133 605 q 189 664 163 647 q 247 693 214 680 q 314 718 279 707 q 382 738 349 728 q 442 757 415 747 q 488 776 469 766 q 509 798 506 786 q 489 890 507 850 q 446 960 472 930 q 387 1009 419 989 q 322 1041 355 1029 q 260 1059 290 1053 q 211 1065 231 1065 q 111 1063 148 1068 q 56 1043 74 1057 l 46 1227 q 68 1241 51 1234 q 111 1253 86 1248 q 163 1260 135 1258 q 216 1262 191 1263 q 362 1239 298 1259 q 474 1190 426 1220 q 554 1121 522 1160 q 607 1040 587 1082 q 636 955 627 998 q 646 871 645 911 q 640 798 646 831 q 623 741 633 764 q 598 720 616 730 q 555 698 581 709 q 502 675 530 687 q 445 649 473 663 q 394 621 418 636 q 357 590 370 606 q 349 563 349 581 q 353 524 349 546 q 367 478 358 502 q 384 433 375 454 q 402 394 393 411 q 416 368 410 376 l 246 368 m 227 104 q 242 165 227 137 q 280 214 257 193 q 332 247 304 235 q 389 258 361 258 q 451 248 425 258 q 495 220 477 237 q 520 178 512 202 q 529 127 529 154 q 515 65 529 92 q 477 18 500 37 q 424 -12 454 -1 q 365 -22 395 -22 q 314 -13 339 -22 q 270 11 290 -5 q 239 51 251 27 q 227 104 227 74 z "},"@":{"ha":1548,"x_min":95,"x_max":1462,"o":"m 95 258 q 129 471 95 372 q 220 651 162 570 q 355 796 277 732 q 519 903 432 859 q 698 969 606 946 q 878 991 790 991 q 1073 974 987 991 q 1223 925 1158 956 q 1334 852 1288 895 q 1408 762 1379 810 q 1449 661 1436 713 q 1462 555 1462 608 q 1446 412 1462 479 q 1401 287 1430 345 q 1332 182 1372 229 q 1245 102 1293 136 q 1145 48 1198 68 q 1036 25 1092 28 q 975 33 998 23 q 938 62 951 43 q 920 108 924 81 q 915 167 915 135 q 918 207 915 178 q 924 270 920 236 q 877 181 905 225 q 817 101 850 137 q 744 42 783 65 q 662 17 705 19 q 581 32 622 15 q 507 81 541 49 q 453 159 474 113 q 432 261 432 205 q 446 388 432 329 q 484 497 460 447 q 540 586 508 547 q 609 654 572 626 q 684 699 645 682 q 759 718 722 715 q 815 718 790 720 q 862 712 840 717 q 904 700 884 707 q 947 684 924 693 q 964 713 954 702 q 989 720 975 724 q 1069 696 1031 709 q 1150 670 1107 682 q 1123 512 1138 593 q 1099 334 1107 431 q 1094 245 1094 281 q 1097 187 1094 209 q 1103 155 1099 165 q 1110 146 1107 146 q 1147 161 1127 146 q 1187 201 1167 176 q 1225 261 1206 227 q 1257 334 1243 295 q 1279 414 1271 372 q 1287 495 1287 455 q 1270 629 1287 571 q 1220 731 1252 688 q 1145 803 1189 774 q 1049 850 1101 833 q 938 876 997 868 q 816 884 878 884 q 700 866 760 884 q 581 816 639 849 q 471 734 524 783 q 380 625 419 686 q 317 491 340 564 q 294 333 294 417 q 313 169 294 240 q 365 44 332 97 q 444 -46 398 -9 q 543 -104 489 -82 q 657 -136 597 -127 q 779 -146 717 -146 q 858 -140 815 -146 q 939 -127 900 -135 q 1010 -109 978 -119 q 1056 -91 1042 -100 l 1100 -178 q 961 -235 1050 -214 q 753 -256 871 -256 q 482 -221 604 -256 q 275 -120 361 -186 q 142 41 189 -54 q 95 258 95 137 m 629 340 q 632 277 629 308 q 644 221 636 245 q 664 182 652 197 q 695 168 677 168 q 723 184 705 168 q 761 228 740 200 q 803 294 781 256 q 845 375 825 332 q 879 465 864 418 q 901 558 895 512 q 879 568 894 563 q 847 576 864 572 q 814 582 831 580 q 788 585 798 585 q 728 571 757 585 q 677 527 699 557 q 642 452 655 498 q 629 340 629 406 z "},"A":{"ha":1085,"x_min":3,"x_max":1082,"o":"m 3 95 l 94 122 l 428 1053 l 654 1053 l 979 121 l 1082 94 l 1082 0 l 618 0 l 618 94 l 709 124 l 680 227 l 313 227 l 282 127 l 383 95 l 383 0 l 3 0 l 3 95 m 643 353 l 553 664 l 503 850 l 351 353 l 643 353 z "},"B":{"ha":988,"x_min":54,"x_max":957,"o":"m 54 95 l 159 124 l 159 927 l 57 942 l 57 1053 l 269 1053 q 287 1056 267 1055 q 342 1058 308 1057 q 419 1060 376 1059 q 505 1063 462 1061 q 670 1049 599 1065 q 789 999 741 1032 q 861 919 837 966 q 885 812 885 871 q 874 732 885 770 q 841 661 863 693 q 786 605 819 629 q 707 568 753 581 q 803 548 758 568 q 882 494 848 528 q 937 413 916 459 q 957 315 957 367 q 931 176 957 236 q 849 75 906 116 q 700 14 792 35 q 475 -7 608 -7 q 416 -6 445 -7 q 357 -4 388 -5 q 290 -1 326 -2 q 208 0 254 0 l 54 0 l 54 95 m 399 598 q 431 594 410 595 q 488 593 451 593 q 557 603 529 593 q 604 629 585 612 q 633 666 623 645 q 647 710 643 688 q 653 754 652 732 q 654 795 654 777 q 646 857 654 827 q 618 910 638 887 q 562 946 597 932 q 473 959 527 959 q 455 958 465 959 q 435 957 445 958 q 415 954 425 956 q 401 949 406 951 l 399 598 m 398 111 q 453 98 415 102 q 537 93 490 93 q 620 114 587 93 q 671 166 652 134 q 697 234 690 197 q 704 304 704 271 q 696 373 704 339 q 668 433 688 406 q 614 475 648 459 q 528 491 581 491 q 464 490 497 491 q 398 483 431 490 l 398 111 z "},"C":{"ha":1000,"x_min":46,"x_max":931,"o":"m 46 491 q 69 655 46 578 q 133 795 92 732 q 230 908 174 859 q 352 992 286 958 q 492 1045 418 1027 q 643 1063 566 1063 q 737 1058 694 1063 q 815 1046 780 1053 q 879 1031 850 1039 q 930 1019 907 1024 l 917 755 l 774 755 l 725 895 q 708 912 718 905 q 682 926 699 920 q 641 934 666 931 q 578 937 616 937 q 474 912 522 937 q 390 838 426 886 q 334 717 355 789 q 314 553 314 646 q 322 438 314 495 q 346 331 330 382 q 386 237 362 280 q 440 163 409 195 q 510 115 471 132 q 594 97 549 97 q 666 101 637 97 q 714 113 695 106 q 743 131 732 121 q 758 151 753 140 l 813 288 l 931 288 l 931 45 q 876 34 905 44 q 806 12 847 24 q 710 -9 766 1 q 577 -19 654 -19 q 348 21 447 -19 q 181 130 248 60 q 80 292 115 199 q 46 491 46 385 z "},"D":{"ha":1096,"x_min":61,"x_max":1052,"o":"m 61 95 l 159 122 l 159 928 l 64 942 l 64 1053 l 286 1053 q 336 1055 309 1053 q 394 1058 363 1056 q 458 1061 425 1060 q 524 1063 492 1063 q 763 1025 663 1063 q 927 921 863 988 q 1022 762 991 854 q 1052 557 1052 669 q 1012 319 1052 424 q 900 142 972 214 q 727 32 827 70 q 506 -7 627 -7 q 451 -6 480 -7 q 392 -3 421 -5 q 336 0 363 -1 q 290 1 310 1 q 176 0 233 1 q 61 0 119 0 l 61 95 m 402 121 q 468 101 427 106 q 563 101 509 96 q 656 137 614 106 q 731 222 699 168 q 780 348 762 275 q 798 507 798 420 q 725 841 798 730 q 508 954 653 951 q 477 953 493 954 q 448 949 462 951 q 421 943 433 947 q 402 935 410 939 l 402 121 z "},"E":{"ha":967,"x_min":68,"x_max":934,"o":"m 68 95 l 168 121 l 168 927 l 72 942 l 72 1053 l 842 1053 l 863 821 l 724 821 l 660 930 l 409 944 l 409 592 l 583 599 l 619 700 l 742 700 l 742 369 l 619 369 l 583 477 l 409 481 l 409 109 l 707 127 l 793 262 l 934 237 l 897 0 l 68 0 l 68 95 z "},"F":{"ha":897,"x_min":54,"x_max":853,"o":"m 58 95 l 159 117 l 159 928 l 54 942 l 54 1053 l 831 1053 l 853 817 l 733 816 l 685 920 l 400 935 l 400 580 l 596 588 l 640 692 l 742 692 l 742 345 l 629 345 l 599 456 l 401 460 l 401 127 l 618 108 l 618 0 l 58 0 l 58 95 z "},"G":{"ha":1075,"x_min":44,"x_max":1023,"o":"m 44 507 q 86 742 44 638 q 203 916 128 845 q 381 1025 278 987 q 606 1063 484 1063 q 731 1058 673 1063 q 834 1048 789 1054 q 909 1035 880 1042 q 951 1025 939 1029 l 936 793 l 814 793 l 751 915 q 737 926 749 919 q 705 940 726 933 q 656 951 685 946 q 591 956 628 956 q 470 926 523 956 q 380 843 417 896 q 325 717 344 789 q 306 562 306 645 q 312 441 306 500 q 331 330 318 382 q 365 233 344 277 q 415 157 386 189 q 484 107 445 125 q 572 89 523 89 q 635 96 605 89 q 690 116 666 104 q 730 143 714 128 q 747 175 745 159 l 747 349 l 604 368 l 604 480 l 1023 480 l 1023 368 l 960 352 l 960 37 q 866 34 916 42 q 761 14 816 26 q 648 -8 707 3 q 529 -19 589 -19 q 328 22 417 -19 q 175 134 238 62 q 78 301 112 205 q 44 507 44 397 z "},"H":{"ha":1207,"x_min":40,"x_max":1173,"o":"m 44 95 l 159 123 l 159 926 l 40 942 l 40 1053 l 519 1053 l 519 942 l 402 927 l 402 598 l 806 598 l 806 929 l 691 942 l 691 1053 l 1166 1053 l 1166 942 l 1048 928 l 1048 123 l 1173 94 l 1173 0 l 682 0 l 682 94 l 806 122 l 806 469 l 402 469 l 402 123 l 527 95 l 527 0 l 44 0 l 44 95 z "},"I":{"ha":575,"x_min":37,"x_max":538,"o":"m 37 95 l 165 123 l 165 926 l 37 942 l 37 1053 l 530 1053 l 530 942 l 410 925 l 410 124 l 538 95 l 538 0 l 37 0 l 37 95 z "},"J":{"ha":534,"x_min":-76,"x_max":499,"o":"m 123 -32 q 141 30 134 -2 q 151 100 147 62 q 156 180 155 137 q 157 275 157 223 l 157 927 l 57 942 l 57 1053 l 499 1053 l 499 942 l 402 926 l 402 362 q 400 242 402 302 q 392 131 397 183 q 379 38 387 79 q 361 -28 372 -3 q 317 -102 344 -68 q 256 -161 290 -135 q 186 -208 223 -188 q 111 -240 149 -227 q 38 -261 74 -254 q -28 -269 2 -268 l -76 -200 q -13 -172 -43 -187 q 43 -136 18 -156 q 89 -90 68 -115 q 123 -32 109 -64 z "},"K":{"ha":1041,"x_min":29,"x_max":1048,"o":"m 31 95 l 159 124 l 159 925 l 29 942 l 29 1053 l 520 1053 l 520 942 l 399 925 l 399 541 l 711 926 l 604 942 l 602 1053 l 1021 1053 l 1021 942 l 895 924 l 602 603 q 649 554 625 583 q 697 489 673 524 q 747 415 722 454 q 797 338 772 376 q 844 263 821 299 q 888 198 867 228 q 927 148 909 169 q 960 120 945 127 l 1048 95 l 1048 0 l 761 0 q 730 17 746 0 q 697 61 714 33 q 663 125 680 89 q 628 201 646 161 q 591 281 610 241 q 553 356 572 321 q 515 420 534 392 q 477 464 496 448 l 399 378 l 399 123 l 536 95 l 536 0 l 31 0 l 31 95 z "},"L":{"ha":877,"x_min":63,"x_max":863,"o":"m 63 95 l 159 121 l 159 913 l 66 928 l 66 1053 l 526 1053 l 526 928 l 403 913 l 403 111 l 647 137 l 760 298 l 863 260 l 817 0 l 63 0 l 63 95 z "},"M":{"ha":1397,"x_min":42,"x_max":1383,"o":"m 42 95 l 159 123 l 206 911 l 81 926 l 81 1053 l 541 1053 l 705 513 l 727 376 l 755 513 l 909 1053 l 1333 1053 l 1333 926 l 1206 911 l 1277 123 l 1383 94 l 1383 0 l 934 0 l 934 94 l 1046 124 l 1008 644 l 1005 919 l 982 825 l 741 -12 l 653 -12 l 429 659 l 348 913 l 345 725 l 325 125 l 450 95 l 450 0 l 42 0 l 42 95 z "},"N":{"ha":1157,"x_min":53,"x_max":1118,"o":"m 53 95 l 159 125 l 159 913 l 58 928 l 58 1053 l 403 1053 l 811 342 l 871 182 l 871 910 l 749 929 l 749 1053 l 1118 1053 l 1118 929 l 1025 914 l 1025 0 l 759 0 l 389 622 l 315 805 q 316 466 315 635 q 316 128 316 296 l 454 95 l 454 0 l 53 0 l 53 95 z "},"O":{"ha":1085,"x_min":43,"x_max":1042,"o":"m 45 511 q 67 671 47 597 q 123 806 88 745 q 206 915 158 867 q 310 996 254 963 q 428 1046 366 1029 q 555 1063 490 1063 q 756 1023 665 1063 q 911 913 847 983 q 1008 746 975 842 q 1040 536 1042 650 q 999 305 1038 408 q 893 130 960 202 q 736 20 826 58 q 541 -19 646 -19 q 332 22 425 -19 q 175 134 239 62 q 77 302 111 205 q 45 511 43 399 m 549 90 q 659 117 615 90 q 728 201 703 145 q 764 340 753 256 q 774 535 774 423 q 769 627 774 579 q 752 722 764 675 q 723 809 741 768 q 680 882 705 851 q 623 932 655 913 q 549 951 590 951 q 436 922 481 951 q 362 838 390 893 q 323 700 335 782 q 311 512 311 618 q 317 425 311 472 q 334 332 322 378 q 365 241 346 285 q 410 164 384 197 q 471 110 437 130 q 549 90 506 90 z "},"P":{"ha":928,"x_min":41,"x_max":926,"o":"m 41 95 l 159 124 l 159 913 l 43 936 l 43 1053 l 286 1053 q 337 1055 311 1053 q 391 1058 363 1056 q 451 1061 419 1060 q 518 1063 482 1063 q 674 1050 600 1063 q 804 1003 748 1037 q 893 909 860 968 q 926 755 926 849 q 894 605 926 670 q 808 497 863 541 q 678 431 753 453 q 517 408 604 408 q 448 408 477 408 q 398 410 419 408 l 398 123 l 564 95 l 564 0 l 41 0 l 41 95 m 398 531 q 423 527 408 529 q 454 525 438 526 q 485 524 469 524 q 513 524 500 524 q 580 536 548 524 q 636 576 612 548 q 674 651 660 605 q 688 766 688 698 q 673 849 688 814 q 631 907 658 884 q 567 940 604 929 q 488 952 531 951 q 467 951 480 952 q 439 950 453 951 q 414 947 426 949 q 398 943 403 945 l 398 531 z "},"Q":{"ha":1085,"x_min":43,"x_max":1042,"o":"m 45 511 q 67 671 47 597 q 123 806 88 745 q 206 915 158 867 q 310 996 254 963 q 428 1046 366 1029 q 555 1063 490 1063 q 756 1023 665 1063 q 911 913 847 983 q 1008 746 975 842 q 1040 536 1042 650 q 1009 338 1038 428 q 932 179 981 248 q 816 64 883 111 q 668 -3 749 18 q 701 -49 681 -32 q 743 -76 720 -66 q 791 -87 766 -85 q 837 -89 815 -90 q 875 -86 858 -88 q 901 -83 892 -83 q 936 -76 919 -80 q 966 -68 952 -73 q 990 -61 980 -64 q 1006 -56 1000 -58 l 1006 -205 q 976 -227 994 -216 q 933 -247 958 -238 q 877 -260 909 -255 q 806 -265 845 -265 q 731 -255 770 -265 q 659 -218 693 -245 q 596 -142 624 -191 q 554 -18 569 -94 q 547 -19 551 -18 q 541 -19 544 -19 q 332 22 425 -19 q 175 134 239 62 q 77 302 111 205 q 45 511 43 399 m 549 90 q 659 117 615 90 q 728 201 703 145 q 764 340 753 256 q 774 535 774 423 q 769 627 774 579 q 752 722 764 675 q 723 809 741 768 q 680 882 705 851 q 623 932 655 913 q 549 951 590 951 q 436 922 481 951 q 362 838 390 893 q 323 700 335 782 q 311 512 311 618 q 317 425 311 472 q 334 332 322 378 q 365 241 346 285 q 410 164 384 197 q 471 110 437 130 q 549 90 506 90 z "},"R":{"ha":1034,"x_min":41,"x_max":1048,"o":"m 41 95 l 159 124 l 159 920 l 54 936 l 54 1053 l 207 1053 q 384 1058 304 1053 q 515 1063 463 1063 q 677 1048 602 1063 q 807 1000 752 1033 q 893 914 862 966 q 925 787 925 862 q 869 588 925 667 q 696 469 814 509 q 748 425 724 454 q 795 361 773 396 q 839 288 818 326 q 879 217 859 250 q 919 157 899 183 q 960 120 939 131 l 1048 95 l 1048 0 l 761 0 q 728 19 744 0 q 696 68 712 37 q 664 138 680 99 q 631 219 648 178 q 598 299 615 260 q 562 369 581 338 q 523 418 543 399 q 481 437 503 437 q 439 437 460 437 q 399 437 418 437 l 399 121 l 529 95 l 529 0 l 41 0 l 41 95 m 399 549 q 433 545 415 546 q 470 543 451 543 q 507 544 488 543 q 541 547 525 545 q 591 560 564 550 q 640 594 618 570 q 677 659 663 618 q 692 762 692 699 q 682 829 692 795 q 647 890 671 863 q 582 935 622 918 q 481 951 541 951 q 460 951 472 951 q 437 950 448 951 q 415 948 425 949 q 399 943 406 946 l 399 549 z "},"S":{"ha":892,"x_min":89,"x_max":851,"o":"m 93 318 l 195 318 l 258 155 q 298 117 276 131 q 345 96 320 103 q 396 87 370 89 q 449 85 422 85 q 504 93 475 85 q 556 117 532 100 q 594 163 579 134 q 610 236 610 192 q 589 299 610 271 q 533 353 568 328 q 454 403 498 379 q 363 452 410 427 q 263 511 312 479 q 175 580 214 542 q 113 666 136 618 q 89 774 89 713 q 120 898 89 844 q 202 988 151 951 q 318 1044 253 1025 q 453 1063 384 1063 q 563 1058 509 1063 q 662 1045 617 1053 q 739 1029 707 1038 q 781 1014 770 1021 l 781 789 l 670 789 l 606 932 q 590 941 603 936 q 559 952 578 947 q 519 960 541 957 q 477 964 498 964 q 421 958 450 964 q 371 940 393 953 q 333 906 348 928 q 318 852 319 885 q 334 783 318 814 q 377 726 350 752 q 440 676 404 699 q 516 631 476 653 q 594 589 554 610 q 671 544 633 568 q 741 495 708 521 q 798 437 774 469 q 837 368 823 406 q 851 286 851 331 q 823 165 851 220 q 744 68 795 109 q 617 4 692 28 q 448 -19 542 -19 q 349 -14 400 -19 q 249 -1 297 -9 q 160 18 201 7 q 93 43 119 30 l 93 318 z "},"T":{"ha":987,"x_min":32,"x_max":956,"o":"m 231 95 l 387 121 l 387 939 l 201 921 l 155 775 l 32 769 l 48 1053 l 956 1053 l 955 777 l 859 766 l 807 921 l 627 939 l 627 122 l 780 95 l 780 0 l 231 0 l 231 95 z "},"U":{"ha":1093,"x_min":27,"x_max":1074,"o":"m 134 926 l 27 942 l 27 1053 l 490 1053 l 490 942 l 375 926 l 375 414 q 385 295 375 345 q 411 211 394 245 q 451 155 428 176 q 499 122 473 134 q 553 106 525 110 q 608 102 581 102 q 695 118 655 102 q 764 174 734 134 q 809 282 793 214 q 825 452 825 349 l 823 924 l 709 942 l 709 1053 l 1074 1053 l 1074 942 l 977 924 l 977 452 q 962 289 977 359 q 920 165 947 218 q 855 77 892 113 q 774 21 818 42 q 680 -10 730 -1 q 578 -19 630 -19 q 240 90 351 -19 q 132 424 130 199 l 134 926 z "},"V":{"ha":1013,"x_min":9,"x_max":1004,"o":"m 89 929 l 9 942 l 9 1053 l 461 1053 l 461 944 l 351 927 l 497 416 l 541 233 l 582 412 l 720 926 l 616 942 l 616 1053 l 1004 1053 l 1004 942 l 922 929 l 615 -10 l 429 -10 l 89 929 z "},"W":{"ha":1547,"x_min":10,"x_max":1537,"o":"m 94 928 l 10 941 l 10 1053 l 434 1053 l 434 943 l 353 928 l 512 301 q 523 244 517 272 q 535 187 529 216 l 557 301 l 686 821 l 659 928 l 571 941 l 571 1053 l 1009 1053 l 1009 943 l 899 927 l 1038 301 l 1062 184 l 1090 301 l 1242 928 l 1140 941 l 1140 1053 l 1537 1053 l 1537 941 l 1434 928 l 1152 -11 l 921 -11 l 766 536 l 615 -10 l 398 -10 l 94 928 z "},"X":{"ha":1053,"x_min":16,"x_max":1038,"o":"m 16 94 l 136 123 l 414 507 l 125 926 l 16 942 l 16 1053 l 496 1053 l 496 944 l 397 928 l 542 661 l 707 928 l 614 942 l 614 1053 l 1037 1053 l 1037 942 l 907 927 l 621 555 l 926 125 l 1038 94 l 1038 0 l 561 0 l 561 93 l 658 120 l 501 391 l 342 124 l 470 94 l 470 0 l 16 0 l 16 94 z "},"Y":{"ha":1004,"x_min":9,"x_max":995,"o":"m 237 95 l 399 125 l 399 347 l 83 929 l 9 942 l 9 1053 l 436 1053 l 436 944 l 364 930 l 535 570 l 555 507 l 577 576 l 722 925 l 614 942 q 613 998 614 970 q 613 1053 613 1025 l 995 1053 l 995 942 l 905 917 l 641 368 l 641 127 l 823 95 l 823 0 l 237 0 l 237 95 z "},"Z":{"ha":941,"x_min":35,"x_max":932,"o":"m 35 94 l 536 821 l 649 945 l 260 913 l 173 747 l 69 767 l 98 1053 l 878 1053 l 909 949 l 416 224 l 318 111 l 696 142 l 831 323 l 932 296 l 857 0 l 63 0 l 35 94 z "},"[":{"ha":758,"x_min":176,"x_max":600,"o":"m 176 1025 q 190 1124 176 1086 q 230 1185 203 1163 q 297 1215 257 1207 q 388 1223 336 1223 q 438 1219 412 1223 q 493 1206 465 1214 q 547 1190 520 1199 q 598 1171 574 1180 q 598 1129 598 1150 q 597 1087 597 1108 l 389 1087 l 389 -20 l 597 -22 l 600 -107 q 557 -125 583 -117 q 501 -141 530 -134 q 441 -152 471 -148 q 389 -156 412 -156 q 297 -148 336 -156 q 230 -116 257 -140 q 189 -46 203 -92 q 176 75 176 -1 l 176 1025 z "},"\\":{"ha":561,"x_min":20,"x_max":541,"o":"m 20 1084 l 192 1084 l 541 -246 l 370 -246 l 20 1084 z "},"]":{"ha":758,"x_min":154,"x_max":578,"o":"m 366 -20 l 366 1087 l 157 1087 q 156 1129 157 1108 q 156 1171 156 1150 q 207 1190 180 1180 q 261 1206 234 1199 q 316 1219 289 1214 q 366 1223 342 1223 q 457 1215 418 1223 q 524 1185 497 1207 q 565 1124 551 1163 q 578 1025 578 1086 l 578 75 q 565 -46 578 -1 q 524 -116 551 -92 q 457 -148 497 -140 q 366 -156 418 -156 q 312 -152 342 -156 q 253 -141 283 -148 q 197 -125 224 -134 q 154 -107 171 -117 l 157 -22 l 366 -20 z "},"^":{"ha":1018,"x_min":124,"x_max":894,"o":"m 397 1038 l 628 1038 l 894 382 q 786 382 840 382 q 677 382 732 382 l 498 827 l 311 382 q 218 382 264 382 q 124 382 171 382 l 397 1038 z "},"_":{"ha":964,"x_min":-14,"x_max":973,"o":"m 973 -131 l 973 -290 l -14 -290 l -14 -131 l 973 -131 z "},"`":{"ha":600,"x_min":158,"x_max":545,"o":"m 485 907 q 397 925 444 905 q 306 977 351 945 q 223 1047 262 1008 q 158 1124 184 1086 l 331 1256 l 545 967 l 485 907 z "},"a":{"ha":831,"x_min":35,"x_max":820,"o":"m 48 267 q 85 338 58 307 q 150 392 112 369 q 233 431 188 415 q 325 457 279 447 q 414 472 371 467 q 491 476 457 476 q 481 564 491 530 q 453 617 472 598 q 408 644 435 637 q 347 651 381 651 q 265 644 302 651 q 198 627 227 637 q 149 608 168 618 q 122 593 130 598 l 76 697 q 115 720 87 706 q 186 748 142 734 q 289 771 230 762 q 419 781 347 781 q 545 768 488 781 q 644 724 602 755 q 708 638 685 692 q 731 502 731 585 l 731 92 l 820 92 l 820 20 q 780 0 802 7 q 734 -12 758 -7 q 687 -17 711 -16 q 644 -19 664 -19 q 611 -16 631 -19 q 571 -5 591 -14 q 538 19 552 3 q 522 58 524 34 q 439 3 487 25 q 326 -19 391 -19 q 177 5 237 -19 q 85 69 118 29 q 43 160 52 109 q 48 267 35 212 m 283 227 q 320 132 283 161 q 429 113 357 103 q 463 123 448 116 q 490 140 477 130 q 491 256 490 198 q 491 372 491 314 q 446 370 470 372 q 399 361 422 368 q 355 345 376 355 q 318 318 334 334 q 292 279 302 302 q 283 227 283 257 z "},"b":{"ha":900,"x_min":16,"x_max":850,"o":"m 101 939 l 16 977 l 16 1072 l 302 1105 l 341 1093 l 341 738 q 419 768 374 756 q 519 781 464 781 q 642 761 583 781 q 748 697 701 741 q 822 583 794 653 q 850 410 850 512 q 820 250 850 328 q 734 113 790 172 q 599 17 678 53 q 422 -19 520 -19 q 315 -13 369 -19 q 215 2 260 -7 q 139 21 170 11 q 101 38 109 31 l 101 939 m 341 136 q 354 118 346 127 q 374 99 361 108 q 405 85 387 91 q 447 79 422 79 q 503 93 475 79 q 553 140 531 106 q 591 234 576 174 q 608 385 606 293 q 594 509 610 457 q 552 595 578 562 q 492 646 525 629 q 427 662 458 662 q 378 658 399 662 q 341 649 357 654 l 341 136 z "},"c":{"ha":769,"x_min":50,"x_max":747,"o":"m 50 356 q 82 532 50 454 q 172 664 115 610 q 306 748 229 718 q 471 781 383 777 q 544 779 506 781 q 616 772 582 777 q 678 761 650 768 q 722 745 706 754 l 722 530 l 597 530 l 544 658 q 500 672 525 669 q 454 675 476 675 q 392 658 420 675 q 344 609 364 641 q 313 530 324 576 q 299 423 301 483 q 314 282 296 341 q 362 186 331 224 q 434 132 393 149 q 520 115 475 115 q 580 119 551 115 q 634 129 609 123 q 679 144 659 136 q 711 163 699 153 l 747 78 q 611 6 692 31 q 427 -19 530 -19 q 265 9 335 -19 q 148 87 195 37 q 75 206 100 138 q 50 356 51 275 z "},"d":{"ha":938,"x_min":50,"x_max":909,"o":"m 50 367 q 84 534 50 458 q 179 665 119 610 q 320 750 239 720 q 491 781 400 781 q 527 780 507 781 q 572 775 547 779 l 572 939 l 422 977 l 422 1072 l 768 1105 l 812 1087 l 812 92 l 909 92 l 909 20 q 834 -6 886 7 q 703 -19 783 -19 q 631 -6 659 -19 q 590 30 604 6 q 557 12 576 20 q 511 -4 538 3 q 450 -15 485 -11 q 372 -19 416 -19 q 299 -9 337 -19 q 226 20 262 0 q 158 71 190 40 q 101 144 125 102 q 63 242 77 187 q 50 367 50 298 m 432 100 q 479 91 454 91 q 533 95 510 91 q 572 104 557 98 l 572 665 q 521 684 548 680 q 470 688 494 688 q 443 685 459 688 q 408 671 427 681 q 370 642 389 661 q 336 593 351 623 q 311 520 321 563 q 300 418 300 477 q 308 296 298 350 q 335 202 317 241 q 378 136 353 162 q 432 100 404 111 z "},"e":{"ha":840,"x_min":50,"x_max":783,"o":"m 50 360 q 78 524 50 447 q 160 657 106 600 q 291 747 214 714 q 466 781 368 781 q 607 760 548 781 q 704 701 666 739 q 761 611 742 663 q 782 497 780 559 q 780 421 783 454 q 772 359 777 388 l 300 359 q 362 178 309 239 q 515 117 414 117 q 620 128 564 117 q 731 163 676 138 l 767 78 q 704 38 741 56 q 624 7 667 20 q 532 -13 581 -6 q 434 -19 484 -20 q 270 9 342 -17 q 150 83 199 35 q 75 201 100 132 q 50 360 50 271 m 549 469 q 553 523 551 494 q 552 579 555 551 q 541 630 550 606 q 511 668 531 654 q 482 681 498 677 q 444 686 466 686 q 378 666 405 686 q 335 616 352 647 q 311 547 319 585 q 300 469 303 508 l 549 469 z "},"f":{"ha":642,"x_min":35,"x_max":641,"o":"m 49 92 l 159 113 l 159 619 l 35 619 l 35 690 l 159 744 l 159 815 q 170 897 159 854 q 201 979 180 939 q 251 1055 222 1019 q 318 1118 281 1090 q 400 1160 356 1145 q 495 1176 445 1176 q 533 1175 513 1176 q 573 1171 553 1173 q 611 1164 593 1168 q 641 1154 629 1160 l 641 978 q 620 986 635 980 q 582 999 604 992 q 536 1010 561 1005 q 489 1015 512 1015 q 450 1012 467 1015 q 421 996 433 1008 q 405 958 410 983 q 399 887 399 932 l 399 759 l 602 759 l 602 619 l 399 619 l 399 112 l 562 92 l 562 0 l 49 0 l 49 92 z "},"g":{"ha":865,"x_min":46,"x_max":869,"o":"m 161 24 q 120 47 135 34 q 97 78 105 61 q 87 113 90 94 q 85 152 85 132 q 93 188 85 168 q 114 229 101 208 q 143 269 127 250 q 178 303 160 288 q 81 385 115 333 q 46 511 46 436 q 78 633 46 582 q 161 716 110 684 q 278 764 213 749 q 410 781 343 779 q 551 767 488 782 q 659 717 614 751 q 676 742 665 730 q 706 762 688 753 q 749 775 724 770 q 810 780 775 780 l 869 780 l 869 617 l 729 617 q 741 533 741 579 q 715 413 741 464 q 643 329 689 362 q 532 279 596 295 q 392 262 468 262 q 273 273 326 262 q 262 223 262 247 q 287 164 262 182 q 359 146 312 146 l 517 146 q 670 134 608 146 q 771 95 732 122 q 828 26 810 68 q 845 -75 845 -16 q 816 -185 845 -134 q 731 -276 787 -237 q 590 -337 674 -315 q 395 -360 505 -360 q 251 -349 315 -360 q 142 -313 187 -337 q 72 -250 96 -288 q 47 -159 47 -212 q 57 -96 47 -125 q 84 -45 68 -68 q 121 -5 101 -22 q 161 24 142 12 m 408 371 q 461 385 440 371 q 496 420 483 398 q 515 469 509 441 q 520 525 520 496 q 489 644 520 602 q 396 686 457 686 q 355 679 376 686 q 318 658 334 673 q 291 620 301 644 q 281 563 281 597 q 286 489 281 524 q 306 428 292 454 q 345 386 320 401 q 408 371 370 371 m 250 -94 q 264 -163 250 -134 q 303 -213 278 -193 q 364 -242 329 -233 q 440 -252 399 -252 q 519 -247 485 -252 q 577 -229 554 -242 q 613 -191 601 -215 q 625 -129 625 -167 q 623 -85 625 -108 q 607 -43 621 -62 q 562 -12 593 -24 q 473 0 530 0 l 353 0 q 309 1 329 0 q 270 3 288 1 q 255 -37 261 -14 q 250 -94 250 -60 z "},"h":{"ha":966,"x_min":41,"x_max":933,"o":"m 41 92 l 138 111 l 138 939 l 46 977 l 46 1072 l 338 1105 l 378 1093 l 378 760 l 363 690 q 428 736 395 718 q 494 763 461 753 q 558 777 527 773 q 615 781 589 781 q 733 756 688 781 q 802 685 778 731 q 834 573 827 639 q 841 425 842 507 l 841 111 l 933 92 l 933 0 l 503 1 l 503 92 l 601 111 l 601 392 q 598 488 601 444 q 583 564 595 532 q 545 614 570 596 q 475 632 520 632 q 422 625 447 632 q 378 601 398 618 l 378 110 l 444 92 l 444 0 l 41 0 l 41 92 z "},"i":{"ha":507,"x_min":54,"x_max":482,"o":"m 243 899 q 192 907 217 899 q 147 932 166 916 q 116 972 127 949 q 104 1026 104 996 q 119 1086 104 1059 q 157 1135 134 1114 q 211 1166 181 1155 q 270 1178 240 1178 q 333 1168 307 1178 q 376 1140 359 1158 q 401 1099 393 1122 q 409 1050 409 1076 q 395 987 409 1015 q 358 940 381 960 q 304 909 334 920 q 243 899 275 899 m 54 92 l 145 111 l 145 533 l 58 631 l 58 694 l 327 781 l 385 764 l 385 110 l 482 92 l 482 0 l 54 0 l 54 92 z "},"j":{"ha":464,"x_min":-27,"x_max":382,"o":"m 216 899 q 165 907 190 899 q 120 932 140 916 q 89 972 101 949 q 77 1026 77 996 q 92 1086 77 1059 q 130 1135 106 1114 q 183 1166 154 1155 q 243 1178 213 1178 q 306 1168 279 1178 q 349 1140 332 1158 q 374 1099 366 1122 q 382 1050 382 1076 q 368 987 382 1015 q 331 940 354 960 q 278 909 308 920 q 216 899 248 899 m 130 533 l 56 633 l 56 692 l 315 781 l 370 762 l 370 -33 q 353 -174 370 -112 q 302 -279 335 -237 q 221 -345 269 -322 q 113 -368 173 -368 q 66 -365 90 -368 q 22 -357 42 -361 q -11 -349 3 -353 q -27 -343 -24 -345 l -27 -216 q -10 -219 -21 -218 q 14 -221 1 -220 q 37 -223 26 -222 q 55 -223 49 -223 q 96 -210 81 -223 q 118 -169 111 -196 q 128 -100 126 -142 q 130 -4 130 -59 l 130 533 z "},"k":{"ha":921,"x_min":28,"x_max":899,"o":"m 47 92 l 138 113 l 138 917 l 28 965 l 28 1061 l 336 1106 l 378 1087 l 378 482 l 369 387 l 590 623 l 466 637 l 466 759 l 899 759 l 899 637 l 762 625 l 597 469 l 829 107 l 899 94 l 899 0 l 498 0 l 498 94 l 554 112 l 440 326 l 371 246 l 377 190 l 377 110 l 456 92 l 456 0 l 47 0 l 47 92 z "},"l":{"ha":498,"x_min":36,"x_max":486,"o":"m 47 92 l 127 109 l 127 939 l 36 977 l 36 1072 l 328 1105 l 368 1093 l 368 113 l 486 92 l 486 0 l 47 0 l 47 92 z "},"m":{"ha":1470,"x_min":58,"x_max":1439,"o":"m 66 92 l 151 109 l 151 555 l 58 621 l 58 706 l 311 781 l 361 768 l 361 667 q 410 710 382 690 q 470 745 438 730 q 538 771 503 761 q 608 783 573 781 q 680 781 645 785 q 746 764 715 777 q 800 730 776 752 q 839 675 824 708 q 886 713 860 694 q 942 747 911 732 q 1010 771 973 762 q 1090 781 1046 781 q 1205 759 1157 781 q 1284 696 1253 737 q 1330 594 1315 654 q 1344 457 1344 534 l 1344 111 l 1439 92 l 1439 0 l 1025 0 l 1025 92 l 1104 111 l 1104 427 q 1096 531 1104 492 q 1072 592 1088 570 q 1028 620 1055 613 q 964 627 1001 627 q 913 616 940 627 q 865 592 886 606 q 870 550 869 575 q 872 477 872 524 l 872 111 l 968 92 l 968 0 l 536 0 l 536 92 l 632 112 l 632 431 q 622 536 632 496 q 592 597 612 576 q 544 623 573 618 q 478 625 515 628 q 457 622 470 625 q 431 614 444 618 q 407 603 418 609 q 391 591 396 597 l 391 111 l 479 92 l 479 0 l 66 0 l 66 92 z "},"n":{"ha":994,"x_min":58,"x_max":963,"o":"m 66 92 l 151 109 l 151 555 l 58 621 l 58 706 l 310 781 l 361 768 l 361 667 q 420 714 387 693 q 491 750 454 735 q 567 772 528 764 q 645 781 606 781 q 753 760 710 781 q 821 700 795 739 q 857 604 846 661 q 867 475 867 547 l 867 110 l 963 92 l 963 0 l 530 0 l 530 92 l 627 111 l 627 444 q 622 533 627 498 q 603 588 617 568 q 563 616 589 608 q 494 624 536 624 q 474 622 488 624 q 444 615 460 619 q 414 605 429 611 q 391 593 399 600 l 391 111 l 474 92 l 474 0 l 66 0 l 66 92 z "},"o":{"ha":905,"x_min":49,"x_max":856,"o":"m 50 380 q 86 560 52 485 q 179 684 121 635 q 311 756 236 733 q 465 781 385 780 q 628 758 556 782 q 751 687 701 734 q 829 567 802 639 q 856 401 856 495 q 822 215 856 294 q 731 85 788 137 q 601 9 675 34 q 446 -16 527 -16 q 262 15 338 -16 q 139 100 186 46 q 70 227 92 154 q 50 380 49 299 m 454 83 q 530 111 501 83 q 574 182 559 138 q 595 281 590 227 q 601 389 601 336 q 599 455 601 421 q 591 522 597 490 q 575 584 585 555 q 550 635 566 613 q 512 669 534 656 q 459 682 490 682 q 404 670 428 682 q 363 638 380 659 q 335 591 346 618 q 317 532 323 564 q 308 467 311 500 q 305 399 305 433 q 308 336 305 370 q 317 266 311 301 q 334 198 323 231 q 361 139 345 165 q 400 98 378 113 q 454 83 423 83 z "},"p":{"ha":915,"x_min":39,"x_max":865,"o":"m 131 -233 l 131 555 l 39 621 l 39 706 l 290 781 l 338 768 l 338 681 q 358 705 341 688 q 402 738 374 722 q 469 768 430 755 q 557 781 509 781 q 674 762 618 781 q 772 699 730 743 q 840 582 814 654 q 865 404 865 510 q 833 242 865 319 q 744 109 801 166 q 609 17 687 51 q 441 -16 532 -16 q 394 -13 417 -16 q 361 -8 371 -9 l 370 -120 l 370 -233 l 514 -253 l 514 -347 l 41 -347 l 41 -253 l 131 -233 m 369 150 q 387 130 374 138 q 415 115 399 121 q 449 105 431 109 q 484 102 467 102 q 531 114 505 102 q 578 155 556 125 q 614 236 600 184 q 629 366 629 287 q 612 512 629 455 q 569 601 595 568 q 514 645 544 633 q 460 656 485 656 q 428 651 443 656 q 402 639 414 646 q 382 624 390 631 q 369 610 374 616 l 369 150 z "},"q":{"ha":906,"x_min":50,"x_max":902,"o":"m 50 374 q 82 533 50 459 q 175 663 115 608 q 317 749 234 718 q 498 781 399 781 q 541 779 516 781 q 591 771 566 777 q 642 758 617 766 q 684 738 666 750 l 777 781 l 812 765 l 812 -241 l 902 -257 l 902 -347 l 443 -347 l 443 -257 l 572 -241 l 572 -32 l 581 52 q 556 31 572 42 q 518 8 541 19 q 464 -9 495 -2 q 395 -16 433 -16 q 320 -11 359 -16 q 242 11 281 -5 q 169 55 204 27 q 107 125 134 82 q 65 230 81 169 q 50 374 50 292 m 472 120 q 530 127 505 120 q 572 148 555 134 l 572 640 q 561 655 568 648 q 542 667 553 662 q 518 675 531 672 q 493 678 506 678 q 399 659 436 678 q 341 604 363 639 q 310 518 319 568 q 300 409 301 469 q 307 292 298 345 q 337 201 316 239 q 392 141 358 163 q 472 120 425 120 z "},"r":{"ha":655,"x_min":58,"x_max":627,"o":"m 66 92 l 150 109 l 150 555 l 58 621 l 58 706 l 309 781 l 358 768 l 358 635 q 391 696 367 669 q 444 742 414 724 q 503 771 473 761 q 553 781 532 781 q 597 779 577 781 q 627 772 618 777 l 627 558 q 604 572 618 566 q 572 583 589 578 q 539 589 555 587 q 511 591 522 591 q 460 587 482 591 q 424 579 439 584 q 401 571 410 575 q 390 565 393 567 l 390 115 l 548 92 l 548 0 l 66 0 l 66 92 z "},"s":{"ha":743,"x_min":54,"x_max":702,"o":"m 67 223 l 179 223 l 222 149 q 241 128 230 140 q 269 105 253 116 q 304 85 284 94 q 349 75 324 77 q 442 96 410 72 q 473 160 473 119 q 457 195 472 178 q 418 228 443 212 q 362 259 394 243 q 296 290 331 274 q 204 337 248 312 q 127 395 160 363 q 74 469 94 428 q 55 563 54 510 q 71 635 56 604 q 112 690 86 667 q 170 731 137 714 q 239 759 203 748 q 311 774 275 769 q 380 781 347 780 q 458 778 418 781 q 533 769 497 775 q 598 756 568 764 q 650 741 629 749 l 650 556 l 530 556 l 492 640 q 449 677 475 661 q 392 694 422 694 q 355 690 373 694 q 323 679 337 687 q 301 660 309 671 q 292 631 292 648 q 301 590 292 609 q 327 554 311 571 q 366 524 343 538 q 416 497 389 509 q 482 467 448 482 q 547 435 515 452 q 607 399 579 418 q 656 354 635 379 q 690 298 677 329 q 702 228 702 267 q 673 114 702 161 q 594 39 644 68 q 479 -3 545 9 q 340 -16 413 -16 q 271 -13 307 -16 q 198 -2 235 -9 q 128 17 162 5 q 67 45 94 28 l 67 223 z "},"t":{"ha":627,"x_min":20,"x_max":593,"o":"m 123 637 l 20 637 l 20 714 q 89 732 57 720 q 144 764 121 743 q 187 825 165 783 q 231 940 209 867 l 345 940 l 345 759 l 577 759 l 577 637 l 356 637 l 356 390 q 360 246 356 299 q 374 165 364 193 q 399 129 383 137 q 439 121 415 121 q 470 122 453 121 q 503 127 487 124 q 534 135 519 130 q 557 144 548 139 l 593 68 q 549 36 576 51 q 485 9 522 20 q 407 -9 449 -3 q 319 -16 364 -16 q 222 -1 260 -16 q 162 44 184 14 q 131 122 140 75 q 123 234 123 169 l 123 637 z "},"u":{"ha":903,"x_min":36,"x_max":868,"o":"m 100 589 l 36 636 l 36 719 l 295 781 l 331 769 l 331 297 q 335 217 331 251 q 351 159 340 182 q 383 125 363 136 q 435 113 403 113 q 470 116 452 113 q 504 123 488 119 q 534 134 520 127 q 555 149 547 141 l 555 577 l 469 625 l 469 719 l 753 781 l 791 769 l 791 92 l 868 92 l 868 20 q 836 4 857 12 q 789 -8 815 -3 q 733 -16 762 -13 q 676 -19 704 -19 q 638 -15 656 -19 q 607 -2 621 -11 q 587 21 594 7 q 579 56 579 35 l 579 81 q 531 39 559 58 q 472 8 503 21 q 410 -12 441 -5 q 355 -19 380 -19 q 235 -2 284 -19 q 156 49 186 14 q 113 137 126 83 q 100 265 100 191 l 100 589 z "},"v":{"ha":871,"x_min":3,"x_max":867,"o":"m 73 621 l 3 640 l 3 759 l 394 759 l 394 638 l 334 618 l 444 298 l 481 170 l 510 300 l 609 619 l 527 637 l 527 759 l 867 759 l 867 638 l 789 614 l 538 -3 l 342 -3 l 73 621 z "},"w":{"ha":1249,"x_min":2,"x_max":1247,"o":"m 81 619 l 2 637 l 2 759 l 387 759 l 387 637 l 321 619 l 398 304 l 421 197 l 437 284 l 566 759 l 763 759 l 884 284 l 905 189 l 925 284 l 999 617 l 909 637 l 909 759 l 1247 759 l 1247 638 l 1152 615 l 978 -3 l 751 -3 l 647 344 l 610 490 l 585 344 l 491 -3 l 273 -3 l 81 619 z "},"x":{"ha":880,"x_min":0,"x_max":880,"o":"m 0 92 l 111 115 l 321 363 l 93 621 l 5 637 l 5 759 l 431 759 l 431 637 l 368 621 l 393 584 l 476 473 l 494 502 l 589 625 l 503 637 l 503 759 l 880 759 l 880 637 l 754 617 l 555 401 l 793 113 l 880 92 l 880 0 l 461 0 l 461 92 l 518 112 l 477 166 l 395 274 l 386 250 l 296 117 l 394 92 l 394 0 l 0 0 l 0 92 z "},"y":{"ha":836,"x_min":3,"x_max":849,"o":"m 100 -177 q 142 -185 117 -180 q 200 -188 166 -189 q 239 -181 216 -187 q 285 -156 261 -176 q 331 -100 309 -137 q 368 0 353 -63 l 330 0 l 62 620 l 3 637 l 3 759 l 400 759 l 400 637 l 323 621 l 456 258 l 467 189 l 487 258 l 597 622 l 505 637 l 505 759 l 849 759 l 849 637 l 781 623 q 693 401 731 496 q 627 237 655 306 q 581 121 600 168 q 549 44 562 75 q 529 -6 536 13 q 516 -38 521 -25 q 456 -179 486 -117 q 389 -282 425 -240 q 309 -346 353 -324 q 208 -368 264 -368 q 177 -367 193 -368 q 146 -366 161 -367 q 118 -362 130 -364 q 98 -357 105 -361 l 100 -177 z "},"z":{"ha":781,"x_min":35,"x_max":755,"o":"m 35 68 l 113 193 l 410 595 l 467 656 l 233 643 l 189 506 l 65 506 l 65 759 l 714 759 l 749 675 l 426 205 l 342 102 l 589 126 l 629 243 l 755 243 l 744 0 l 66 0 l 35 68 z "},"{":{"ha":768,"x_min":56,"x_max":597,"o":"m 176 379 q 166 409 176 395 q 139 432 156 422 q 101 448 123 442 q 56 456 79 454 l 56 606 q 103 614 81 609 q 141 626 125 618 q 166 646 157 634 q 176 677 176 659 l 176 1057 q 190 1139 176 1107 q 230 1191 205 1172 q 290 1218 256 1211 q 363 1225 323 1225 q 422 1220 391 1225 q 486 1207 454 1215 q 547 1190 517 1199 q 597 1175 576 1181 q 597 1133 597 1154 q 597 1090 597 1112 l 389 1090 l 389 659 q 381 617 389 634 q 360 587 374 600 q 310 555 340 568 q 243 526 280 542 q 307 499 278 513 q 356 467 336 486 q 380 434 372 453 q 389 390 389 416 l 389 -40 l 597 -40 q 597 -83 597 -62 q 597 -127 597 -105 q 549 -141 576 -133 q 492 -157 522 -150 q 433 -170 463 -165 q 376 -176 404 -176 q 300 -169 336 -176 q 237 -142 264 -162 q 192 -86 209 -122 q 176 7 176 -51 l 176 379 z "},"|":{"ha":738,"x_min":249,"x_max":489,"o":"m 249 1207 l 489 1207 l 489 -126 l 249 -126 l 249 1207 z "},"}":{"ha":768,"x_min":167,"x_max":709,"o":"m 376 -40 l 376 390 q 384 434 376 416 q 408 467 393 453 q 457 499 428 486 q 520 526 486 513 q 454 555 484 542 q 404 587 424 568 q 383 617 391 600 q 376 659 376 634 l 376 1090 l 168 1090 q 167 1133 168 1112 q 167 1175 167 1154 q 218 1190 189 1181 q 278 1207 247 1199 q 342 1220 310 1215 q 401 1225 374 1225 q 475 1218 441 1225 q 534 1191 509 1211 q 574 1139 559 1172 q 589 1057 589 1107 l 589 677 q 598 646 589 659 q 623 626 607 634 q 661 614 639 618 q 709 606 683 609 l 709 456 q 663 448 685 454 q 625 432 642 442 q 598 409 608 422 q 589 379 589 395 l 589 7 q 572 -86 589 -51 q 528 -142 555 -122 q 464 -169 500 -162 q 389 -176 428 -176 q 331 -170 361 -176 q 272 -157 301 -165 q 216 -141 243 -150 q 167 -127 189 -133 q 167 -83 167 -105 q 168 -40 168 -62 l 376 -40 z "},"~":{"ha":893,"x_min":99,"x_max":794,"o":"m 99 578 q 112 608 101 591 q 139 644 122 625 q 177 680 155 663 q 224 712 199 698 q 277 735 250 726 q 333 744 304 744 q 385 737 362 744 q 428 719 408 730 q 464 696 447 709 q 498 674 481 684 q 535 656 516 663 q 579 649 555 649 q 625 656 603 649 q 667 674 648 663 q 702 696 686 684 q 727 717 717 708 l 794 631 q 771 581 791 610 q 719 526 751 552 q 647 482 688 500 q 562 464 606 464 q 511 471 533 464 q 469 489 488 478 q 433 512 450 500 q 398 535 416 524 q 360 553 380 546 q 312 560 339 560 q 266 553 288 560 q 225 535 244 546 q 191 513 206 525 q 165 492 176 501 l 99 578 z "},"":{"ha":0,"x_min":0,"x_max":0,"o":""},"":{"ha":380,"x_min":0,"x_max":0,"o":""},"":{"ha":551,"x_min":113,"x_max":438,"o":"m 273 696 q 223 705 248 696 q 179 729 198 713 q 148 769 159 745 q 136 823 136 792 q 151 883 136 855 q 189 932 165 911 q 241 965 212 953 q 297 977 269 977 q 359 966 333 977 q 403 938 386 956 q 429 896 420 920 q 437 845 437 872 q 423 783 437 810 q 386 736 409 755 q 333 707 362 717 q 273 696 303 696 m 217 559 l 340 559 l 438 -302 l 113 -302 l 217 559 z "},"":{"ha":823,"x_min":63,"x_max":760,"o":"m 348 -10 q 226 35 279 3 q 137 116 173 68 q 82 224 101 163 q 64 356 64 286 q 91 520 63 447 q 169 647 119 593 q 285 733 218 700 q 431 776 353 766 l 440 924 l 571 924 l 563 779 q 616 774 590 777 q 665 767 642 771 q 706 757 688 762 q 735 745 724 751 l 735 530 l 611 530 l 557 658 q 514 672 538 669 q 468 675 490 675 q 406 658 433 675 q 358 609 378 641 q 326 530 338 576 q 313 423 315 483 q 327 282 310 341 q 375 186 345 224 q 447 132 406 149 q 534 115 488 115 q 593 119 564 115 q 647 129 623 123 q 692 144 672 136 q 724 163 712 153 l 760 78 q 640 12 711 36 q 479 -18 568 -13 l 472 -147 l 340 -147 l 348 -10 z "},"":{"ha":1050,"x_min":2,"x_max":955,"o":"m 2 48 q 15 88 2 68 q 56 125 28 109 q 124 151 83 141 q 221 161 165 161 q 230 188 227 174 q 236 217 234 201 q 239 255 238 233 q 240 305 240 276 l 240 469 l 133 469 l 133 604 l 240 604 l 240 637 q 266 792 240 716 q 341 929 292 869 q 463 1026 391 989 q 630 1063 536 1063 q 746 1047 688 1063 q 850 991 804 1030 l 744 798 q 733 822 741 807 q 712 853 725 836 q 683 888 700 870 q 647 920 667 905 q 605 943 627 934 q 557 951 582 951 q 519 938 534 951 q 496 893 505 925 q 485 807 488 861 q 481 673 481 753 l 481 604 l 652 604 l 652 469 l 481 469 l 481 431 q 477 337 481 379 q 464 259 473 294 q 438 194 454 224 q 398 139 422 165 q 445 131 425 136 q 486 120 465 125 q 533 109 507 114 q 596 103 559 104 q 659 111 630 102 q 707 134 687 119 q 739 167 728 149 q 750 203 750 185 q 742 236 750 221 q 724 262 734 251 q 703 282 713 274 q 685 294 692 290 l 777 475 q 845 448 812 469 q 901 397 877 428 q 940 328 926 367 q 955 248 955 290 q 949 195 955 224 q 929 136 943 166 q 892 76 916 105 q 832 24 868 47 q 746 -13 795 1 q 630 -26 696 -26 q 548 -20 585 -26 q 480 -5 511 -14 q 425 15 450 4 q 378 34 399 26 q 338 48 357 43 q 301 52 319 54 q 227 2 273 22 q 119 -20 181 -18 q 74 -16 95 -20 q 36 -4 52 -12 q 11 18 20 5 q 2 48 2 31 z "},"":{"ha":1011,"x_min":102,"x_max":909,"o":"m 247 318 q 217 388 227 351 q 207 467 207 425 q 218 547 207 509 q 249 618 229 585 l 106 764 l 212 872 l 359 722 l 359 722 q 425 748 390 739 q 498 757 460 757 q 572 747 537 757 q 640 721 608 738 l 802 880 l 909 770 l 750 614 q 780 545 770 582 q 791 467 791 507 q 781 390 791 427 q 753 322 771 354 l 899 174 l 792 67 l 644 215 q 575 187 612 197 q 498 177 538 177 q 424 186 460 177 q 357 213 389 195 l 210 66 l 102 172 l 247 318 m 375 467 q 385 418 375 441 q 412 377 395 395 q 452 349 429 359 q 500 338 474 338 q 547 349 525 338 q 586 377 570 359 q 612 418 603 395 q 622 467 622 441 q 612 515 622 492 q 586 556 603 538 q 547 584 570 574 q 500 595 525 595 q 452 584 474 595 q 412 556 429 574 q 385 515 395 538 q 375 467 375 492 z "},"":{"ha":1035,"x_min":19,"x_max":958,"o":"m 220 95 l 383 125 l 383 237 l 139 237 l 139 351 l 383 351 l 383 444 l 360 482 l 139 482 l 139 596 l 293 596 l 98 928 l 19 942 l 19 1053 l 446 1053 l 446 944 l 374 930 l 488 687 l 526 596 l 536 596 l 580 693 q 631 807 606 748 q 682 926 656 867 l 576 942 l 576 1053 l 958 1053 l 958 942 l 863 915 l 690 596 l 879 596 l 879 482 l 629 482 l 625 475 l 625 351 l 879 351 l 879 237 l 625 237 l 625 127 l 800 95 l 800 0 l 220 0 l 220 95 z "},"":{"ha":738,"x_min":249,"x_max":489,"o":"m 249 1207 l 489 1207 l 489 615 l 249 615 l 249 1207 m 249 467 l 489 467 l 489 -125 l 249 -125 l 249 467 z "},"":{"ha":918,"x_min":90,"x_max":827,"o":"m 125 144 l 222 144 l 288 5 q 316 -31 299 -17 q 354 -52 334 -44 q 398 -62 375 -59 q 442 -65 420 -65 q 500 -60 473 -65 q 549 -42 528 -54 q 582 -12 570 -31 q 594 35 594 7 q 572 100 594 72 q 515 151 551 127 q 434 195 479 174 q 342 237 389 216 q 249 284 294 259 q 169 342 204 310 q 111 416 133 375 q 90 513 90 458 q 98 571 90 541 q 123 632 107 602 q 160 689 139 662 q 207 734 182 715 q 135 813 163 769 q 107 915 107 857 q 122 1000 107 961 q 163 1071 137 1039 q 225 1127 190 1103 q 303 1168 261 1152 q 391 1193 345 1185 q 483 1202 437 1202 q 569 1198 528 1202 q 643 1187 609 1194 q 702 1172 676 1181 q 744 1155 728 1164 l 744 947 l 648 947 l 565 1063 q 532 1086 555 1075 q 465 1097 509 1097 q 423 1089 446 1097 q 381 1065 401 1082 q 349 1024 362 1049 q 336 963 336 998 q 356 904 336 929 q 409 858 376 878 q 485 818 442 837 q 572 779 528 800 q 659 734 616 759 q 734 676 701 709 q 788 599 768 643 q 808 497 808 555 q 783 377 807 433 q 718 281 758 320 q 762 245 742 264 q 797 204 782 227 q 819 157 811 182 q 827 102 827 132 q 813 5 827 47 q 774 -68 799 -37 q 715 -121 749 -100 q 639 -155 680 -142 q 551 -174 597 -168 q 454 -180 504 -180 q 349 -175 401 -180 q 252 -162 296 -170 q 174 -145 208 -155 q 125 -127 141 -136 l 125 144 m 289 561 q 316 495 289 524 q 387 443 343 467 q 485 396 431 418 q 595 349 540 374 q 611 390 604 368 q 618 430 618 412 q 591 502 618 471 q 521 561 564 534 q 425 613 478 588 q 319 665 372 637 q 298 618 307 646 q 289 561 289 591 z "},"":{"ha":720,"x_min":52,"x_max":668,"o":"m 530 915 q 484 921 506 915 q 445 939 462 927 q 417 969 427 951 q 407 1010 407 987 q 419 1054 407 1034 q 451 1088 431 1074 q 496 1111 471 1103 q 547 1119 522 1119 q 604 1112 581 1119 q 641 1092 627 1105 q 662 1062 655 1080 q 668 1025 668 1045 q 656 979 668 1000 q 626 945 645 959 q 582 923 607 930 q 530 915 557 915 m 172 914 q 125 920 147 914 q 87 938 104 926 q 61 968 71 950 q 52 1008 52 985 q 63 1053 52 1032 q 95 1088 75 1073 q 139 1111 115 1103 q 191 1119 164 1119 q 247 1112 224 1119 q 286 1092 271 1104 q 308 1062 301 1079 q 315 1024 315 1044 q 303 979 315 999 q 272 944 292 958 q 225 922 252 930 q 172 914 199 914 z "},"":{"ha":1432,"x_min":124,"x_max":1308,"o":"m 716 149 q 551 168 629 149 q 407 224 473 188 q 289 313 341 261 q 200 429 237 365 q 144 568 163 493 q 124 725 124 642 q 145 883 124 808 q 204 1022 166 958 q 296 1138 243 1086 q 416 1226 350 1190 q 557 1282 481 1263 q 716 1302 633 1302 q 874 1283 798 1302 q 1015 1227 949 1263 q 1135 1140 1081 1192 q 1227 1024 1189 1088 q 1287 885 1266 960 q 1308 725 1308 809 q 1287 573 1308 646 q 1227 435 1266 499 q 1135 319 1189 372 q 1015 228 1081 266 q 874 169 949 190 q 716 149 798 149 m 715 254 q 839 270 779 254 q 950 316 899 286 q 1044 389 1002 347 q 1118 484 1087 431 q 1165 597 1148 536 q 1181 725 1181 658 q 1165 853 1181 792 q 1118 967 1148 915 q 1044 1062 1087 1020 q 950 1135 1002 1105 q 839 1181 899 1164 q 715 1197 779 1197 q 591 1181 651 1197 q 480 1135 532 1164 q 386 1062 429 1105 q 314 967 344 1020 q 267 853 283 915 q 250 725 250 792 q 267 597 250 658 q 315 484 284 536 q 389 389 346 431 q 483 316 431 347 q 593 270 534 286 q 715 254 652 254 m 716 397 q 576 421 637 397 q 475 488 516 446 q 414 590 435 531 q 393 720 393 649 q 420 860 393 795 q 497 974 448 925 q 615 1050 547 1022 q 766 1078 684 1078 q 831 1075 804 1078 q 880 1068 859 1073 q 916 1058 901 1064 q 946 1044 932 1051 l 946 836 l 817 836 l 771 941 q 748 950 764 947 q 718 953 732 952 q 643 906 667 954 q 621 764 620 858 q 635 670 621 709 q 672 605 650 631 q 724 567 695 579 q 783 554 753 554 q 813 554 796 554 q 850 557 831 555 q 890 566 869 560 q 930 583 910 572 l 960 496 q 915 456 943 475 q 853 425 887 438 q 784 405 820 412 q 716 397 749 397 z "},"":{"ha":793,"x_min":112,"x_max":728,"o":"m 295 497 q 229 508 261 497 q 170 541 196 519 q 128 594 144 562 q 112 669 112 626 q 131 740 112 709 q 181 793 151 771 q 251 830 212 815 q 329 853 290 844 q 404 865 368 861 q 464 868 439 868 l 464 880 q 455 923 464 907 q 431 948 446 939 q 393 960 415 957 q 344 962 371 962 q 296 959 319 962 q 251 950 272 956 q 213 939 230 945 q 188 926 197 932 l 153 1027 q 186 1042 162 1034 q 246 1059 211 1051 q 325 1074 281 1067 q 416 1080 368 1080 q 481 1077 449 1080 q 541 1067 513 1074 q 594 1045 570 1059 q 636 1009 618 1031 q 664 955 654 987 q 673 879 673 923 l 672 601 l 728 601 l 728 529 q 693 520 713 526 q 649 510 672 515 q 602 501 626 505 q 555 497 578 497 q 529 499 541 497 q 506 507 516 501 q 487 523 495 512 q 475 550 479 533 q 405 513 449 528 q 295 497 361 497 m 366 613 q 408 609 385 607 q 465 620 431 610 l 463 630 l 463 789 q 414 780 441 787 q 365 762 388 774 q 327 732 342 751 q 311 688 311 714 q 314 666 311 677 q 324 645 317 655 q 341 626 330 635 q 366 613 351 618 z "},"":{"ha":1461,"x_min":155,"x_max":1306,"o":"m 747 513 l 1248 776 l 1306 684 l 997 416 l 1306 161 l 1248 61 l 747 307 l 747 513 m 155 513 l 656 776 l 715 684 l 406 416 l 715 161 l 656 61 l 155 307 l 155 513 z "},"":{"ha":944,"x_min":124,"x_max":820,"o":"m 124 650 l 820 650 l 820 249 l 607 249 l 607 505 l 124 505 l 124 650 z "},"":{"ha":1432,"x_min":124,"x_max":1308,"o":"m 716 149 q 551 168 629 149 q 407 224 473 188 q 289 313 341 261 q 200 429 237 365 q 144 568 163 493 q 124 725 124 642 q 145 883 124 808 q 204 1022 166 958 q 296 1138 243 1086 q 416 1226 350 1190 q 557 1282 481 1263 q 716 1302 633 1302 q 874 1283 798 1302 q 1015 1227 949 1263 q 1135 1140 1081 1192 q 1227 1024 1189 1088 q 1287 885 1266 960 q 1308 725 1308 809 q 1287 573 1308 646 q 1227 435 1266 499 q 1135 319 1189 372 q 1015 228 1081 266 q 874 169 949 190 q 716 149 798 149 m 715 254 q 839 270 779 254 q 950 316 899 286 q 1044 389 1002 347 q 1118 484 1087 431 q 1165 597 1148 536 q 1181 725 1181 658 q 1165 853 1181 792 q 1118 967 1148 915 q 1044 1062 1087 1020 q 950 1135 1002 1105 q 839 1181 899 1164 q 715 1197 779 1197 q 591 1181 651 1197 q 480 1135 532 1164 q 386 1062 429 1105 q 314 967 344 1020 q 267 853 283 915 q 250 725 250 792 q 267 597 250 658 q 315 484 284 536 q 389 389 346 431 q 483 316 431 347 q 593 270 534 286 q 715 254 652 254 m 406 498 l 459 524 l 459 958 l 406 977 l 406 1068 l 557 1068 q 594 1068 572 1067 q 641 1069 616 1068 q 694 1070 667 1069 q 747 1071 722 1071 q 948 1030 879 1071 q 1020 897 1018 989 q 1010 829 1020 864 q 979 767 1000 795 q 925 721 958 739 q 845 703 892 703 q 901 686 878 701 q 940 649 924 671 q 968 602 956 627 q 992 555 980 577 q 1019 519 1004 534 q 1054 505 1033 505 l 1054 418 l 852 418 q 824 434 835 418 q 804 474 813 450 q 785 529 795 499 q 762 587 776 559 q 728 636 748 614 q 677 667 707 658 l 677 513 l 725 498 l 725 416 l 406 416 l 406 498 m 677 772 q 698 768 688 769 q 726 768 708 768 q 751 772 738 768 q 776 788 765 777 q 794 820 787 800 q 801 868 801 839 q 795 914 801 896 q 777 943 790 932 q 742 958 764 954 q 688 962 720 962 q 680 960 684 962 q 677 957 675 958 l 677 772 z "},"":{"ha":734,"x_min":175,"x_max":559,"o":"m 175 1074 l 559 1074 l 559 911 l 175 911 l 175 1074 z "},"":{"ha":618,"x_min":66,"x_max":551,"o":"m 309 606 q 215 625 258 606 q 138 676 171 644 q 85 751 104 708 q 66 844 66 795 q 85 936 66 892 q 138 1011 104 979 q 215 1062 171 1044 q 309 1081 258 1081 q 403 1062 359 1081 q 480 1010 448 1042 q 532 934 513 977 q 551 844 551 891 q 532 751 551 795 q 480 676 513 708 q 403 625 448 644 q 309 606 359 606 m 308 729 q 351 738 331 729 q 386 761 371 746 q 409 798 400 777 q 417 844 417 819 q 409 888 417 867 q 386 925 400 909 q 351 951 371 941 q 308 960 331 960 q 263 951 283 960 q 229 927 243 943 q 207 890 215 911 q 199 844 199 869 q 207 798 199 819 q 229 761 215 777 q 263 738 243 746 q 308 729 283 729 z "},"":{"ha":901,"x_min":123,"x_max":783,"o":"m 364 362 l 371 490 l 266 483 l 123 483 l 123 656 l 266 656 l 371 650 l 364 777 l 364 921 l 542 921 l 542 777 l 535 650 l 640 656 l 783 656 l 783 483 l 640 483 l 535 490 l 542 362 l 542 232 l 364 232 l 364 362 m 124 160 l 771 160 l 771 0 l 124 0 l 124 160 z "},"":{"ha":840,"x_min":94,"x_max":799,"o":"m 94 594 q 140 620 113 604 q 201 655 168 635 q 270 699 234 675 q 339 747 305 722 q 403 799 373 772 q 455 852 433 826 q 486 904 476 878 q 492 952 496 929 q 480 981 488 966 q 458 1006 472 995 q 422 1024 444 1017 q 372 1031 401 1031 q 309 1019 340 1031 q 252 990 279 1008 q 203 954 225 973 q 164 918 180 934 l 108 998 q 155 1056 123 1025 q 228 1113 186 1087 q 319 1156 270 1139 q 419 1173 368 1173 q 636 1122 562 1173 q 710 975 710 1071 q 696 902 710 936 q 655 837 682 868 q 591 775 629 805 q 508 715 554 745 q 408 653 462 685 q 296 587 355 621 l 621 645 l 688 746 l 799 716 l 753 488 l 137 488 l 94 594 z "},"":{"ha":771,"x_min":108,"x_max":697,"o":"m 134 545 q 169 537 149 541 q 209 532 189 534 q 249 529 229 530 q 282 529 268 528 q 417 559 367 534 q 476 627 467 584 q 479 642 477 632 q 479 665 480 652 q 474 692 478 678 q 459 720 469 706 q 432 744 449 733 q 389 763 415 755 l 233 725 l 235 836 q 312 861 276 848 q 376 890 348 875 q 423 921 404 905 q 450 957 442 938 q 454 978 453 966 q 453 1002 454 990 q 440 1027 452 1017 q 414 1043 429 1037 q 382 1051 399 1048 q 355 1053 366 1053 q 313 1050 336 1054 q 263 1040 290 1047 q 210 1021 237 1033 q 156 994 182 1010 l 108 1075 q 160 1110 127 1093 q 234 1140 193 1127 q 320 1161 275 1154 q 408 1168 366 1169 q 530 1149 481 1167 q 607 1105 578 1131 q 647 1053 635 1080 q 659 1006 659 1025 q 652 955 659 979 q 631 910 646 931 q 590 869 616 888 q 526 833 564 850 q 592 815 564 828 q 639 784 620 802 q 669 747 658 766 q 687 710 681 728 q 695 680 693 693 q 697 663 697 667 q 677 574 697 618 q 616 496 658 530 q 510 439 575 461 q 356 418 446 418 q 276 421 311 418 q 215 428 241 424 q 168 437 188 432 q 134 445 149 441 l 134 545 z "},"":{"ha":602,"x_min":248,"x_max":635,"o":"m 248 966 l 462 1255 l 635 1123 q 572 1051 610 1084 q 490 990 534 1017 q 398 941 446 962 q 308 906 351 920 l 248 966 z "},"":{"ha":1061,"x_min":85,"x_max":931,"o":"m 159 582 l 85 629 l 85 716 l 358 781 l 394 769 l 394 279 q 404 204 394 233 q 430 157 413 174 q 469 132 446 139 q 518 125 492 125 q 580 130 553 125 q 618 142 607 135 l 618 577 l 532 625 l 532 719 l 816 781 l 854 769 l 854 92 l 931 92 l 931 20 q 899 4 920 12 q 852 -8 878 -3 q 796 -16 825 -13 q 739 -19 767 -19 q 701 -15 719 -19 q 670 -2 684 -11 q 650 21 657 7 q 642 56 642 35 l 642 75 q 555 4 604 28 q 458 -19 507 -19 q 425 -17 441 -19 q 394 -12 410 -16 l 394 -253 l 159 -253 l 159 582 z "},"":{"ha":1093,"x_min":111,"x_max":1072,"o":"m 301 97 l 444 130 l 444 445 q 318 463 378 445 q 212 518 258 481 q 138 614 165 556 q 111 751 111 671 q 131 878 111 820 q 197 978 151 937 q 315 1043 242 1020 q 492 1067 387 1067 q 541 1066 509 1067 q 615 1064 574 1065 q 702 1061 656 1063 q 791 1058 748 1059 q 869 1055 833 1056 q 924 1053 904 1054 l 1069 1053 l 1069 939 l 934 899 l 934 130 l 1072 97 l 1072 0 l 755 0 l 754 923 l 635 923 l 635 0 l 301 0 l 301 97 z "},"":{"ha":524,"x_min":111,"x_max":413,"o":"m 249 435 q 198 443 223 435 q 154 468 174 452 q 123 507 135 484 q 111 561 111 530 q 126 622 111 593 q 164 670 141 650 q 216 703 188 691 q 273 715 245 715 q 335 704 309 715 q 379 676 361 694 q 405 634 396 659 q 413 583 413 610 q 399 521 413 549 q 361 474 385 494 q 308 445 338 455 q 249 435 279 435 z "},"":{"ha":457,"x_min":41,"x_max":397,"o":"m 251 7 q 249 -14 250 -1 q 249 -39 249 -26 q 250 -65 250 -52 q 252 -89 251 -79 q 323 -108 295 -93 q 368 -143 351 -123 q 391 -183 384 -162 q 397 -220 397 -204 q 385 -279 397 -254 q 348 -322 372 -304 q 292 -349 325 -339 q 220 -360 260 -358 q 161 -360 189 -361 q 110 -354 133 -358 q 70 -347 87 -351 q 41 -340 52 -342 l 41 -239 q 62 -242 50 -241 q 88 -245 75 -244 q 112 -248 101 -247 q 127 -248 123 -248 q 161 -238 149 -248 q 174 -210 174 -228 q 161 -181 174 -191 q 132 -172 149 -172 q 121 -172 127 -172 q 109 -173 115 -172 q 98 -174 102 -173 q 92 -174 93 -174 q 96 -131 92 -158 q 105 -77 100 -104 q 118 -26 111 -50 q 132 7 125 -3 l 251 7 z "},"":{"ha":762,"x_min":130,"x_max":694,"o":"m 135 580 l 311 607 l 311 959 q 277 955 297 958 q 236 949 258 952 q 192 942 214 945 q 154 935 171 938 l 130 1040 q 186 1054 153 1044 q 255 1075 218 1063 q 328 1100 291 1086 q 395 1126 364 1114 q 449 1150 426 1139 q 479 1168 471 1161 l 534 1158 l 534 606 l 694 580 l 694 487 l 135 487 l 135 580 z "},"":{"ha":793,"x_min":82,"x_max":710,"o":"m 384 496 q 258 515 314 496 q 163 570 202 533 q 103 663 123 608 q 83 791 82 718 q 98 886 84 844 q 136 960 112 928 q 190 1015 159 992 q 256 1051 221 1037 q 327 1073 290 1065 q 397 1080 363 1080 q 532 1061 473 1082 q 630 1001 591 1040 q 690 907 670 962 q 709 784 710 851 q 694 689 709 731 q 656 615 680 647 q 600 561 632 583 q 532 524 568 538 q 458 503 496 510 q 384 496 420 496 m 400 587 q 443 595 425 587 q 473 624 461 603 q 491 683 485 646 q 497 781 497 721 q 489 871 497 831 q 468 938 481 911 q 437 978 455 964 q 400 992 420 992 q 367 985 385 992 q 333 957 349 978 q 307 896 317 935 q 296 793 296 857 q 304 702 296 741 q 327 638 313 663 q 361 600 342 612 q 400 587 380 587 z "},"":{"ha":1461,"x_min":151,"x_max":1302,"o":"m 1051 420 l 743 675 l 801 776 l 1302 530 l 1302 323 l 801 61 l 743 153 l 1051 420 m 460 420 l 151 675 l 210 776 l 711 530 l 711 323 l 210 61 l 151 153 l 460 420 z "},"":{"ha":1853,"x_min":195,"x_max":1690,"o":"m 1111 1282 l 1256 1233 l 713 -233 l 571 -182 l 1111 1282 m 200 580 l 376 607 l 376 959 q 342 955 362 958 q 301 949 323 952 q 257 942 279 945 q 219 935 236 938 l 195 1040 q 251 1054 218 1044 q 320 1075 283 1063 q 393 1100 356 1086 q 460 1126 429 1114 q 514 1150 491 1139 q 545 1168 536 1161 l 600 1158 l 600 606 l 760 580 l 760 487 l 200 487 l 200 580 m 1349 716 l 1433 716 l 1525 610 l 1215 253 l 1160 189 l 1378 213 l 1386 347 l 1555 367 l 1555 232 l 1690 247 l 1690 73 l 1555 73 l 1556 -120 l 1359 -120 l 1370 73 l 1031 73 l 997 174 l 1349 716 z "},"":{"ha":1853,"x_min":195,"x_max":1765,"o":"m 1111 1276 l 1256 1233 l 713 -233 l 571 -182 l 1111 1276 m 200 580 l 376 607 l 376 959 q 342 955 362 958 q 301 949 323 952 q 257 942 279 945 q 219 935 236 938 l 195 1040 q 251 1054 218 1044 q 320 1075 283 1063 q 393 1100 356 1086 q 460 1126 429 1114 q 514 1150 491 1139 q 545 1168 536 1161 l 600 1158 l 600 606 l 760 580 l 760 487 l 200 487 l 200 580 m 1061 104 q 1107 130 1079 115 q 1167 166 1135 146 q 1236 209 1200 186 q 1305 258 1272 233 q 1370 310 1339 283 q 1421 362 1400 336 q 1453 414 1442 389 q 1458 463 1463 439 q 1447 491 1455 477 q 1424 516 1438 505 q 1389 534 1410 528 q 1339 541 1368 541 q 1276 530 1306 541 q 1218 501 1245 518 q 1169 464 1192 484 q 1131 429 1147 444 l 1074 509 q 1121 567 1090 536 q 1195 624 1153 597 q 1285 667 1236 650 q 1385 684 1335 684 q 1603 632 1529 684 q 1676 485 1676 581 q 1662 412 1676 446 q 1622 347 1648 378 q 1558 286 1595 315 q 1474 225 1520 256 q 1375 163 1428 195 q 1262 97 1321 132 l 1587 155 l 1655 256 l 1765 227 l 1719 -1 l 1103 -1 l 1061 104 z "},"":{"ha":1968,"x_min":203,"x_max":1690,"o":"m 1111 1276 l 1256 1233 l 713 -233 l 571 -182 l 1111 1276 m 230 545 q 264 537 245 541 q 304 532 284 534 q 344 529 325 530 q 378 529 363 528 q 512 559 463 534 q 572 627 562 584 q 574 642 573 632 q 575 665 576 652 q 569 692 574 678 q 555 720 565 706 q 528 744 545 733 q 484 763 511 755 l 328 725 l 330 836 q 408 861 372 848 q 472 890 444 875 q 519 921 500 905 q 545 957 538 938 q 549 978 549 966 q 549 1002 550 990 q 536 1027 547 1017 q 510 1043 525 1037 q 478 1051 494 1048 q 450 1053 462 1053 q 409 1050 432 1054 q 359 1040 385 1047 q 306 1021 333 1033 q 252 994 278 1010 l 203 1075 q 256 1110 222 1093 q 330 1140 289 1127 q 416 1161 370 1154 q 504 1168 461 1169 q 626 1149 577 1167 q 703 1105 674 1131 q 743 1053 731 1080 q 754 1006 754 1025 q 748 955 754 979 q 727 910 742 931 q 686 869 711 888 q 621 833 660 850 q 688 815 660 828 q 734 784 715 802 q 765 747 753 766 q 783 710 777 728 q 791 680 789 693 q 793 663 793 667 q 773 574 793 618 q 712 496 753 530 q 606 439 671 461 q 452 418 541 418 q 372 421 407 418 q 310 428 337 424 q 264 437 283 432 q 230 445 244 441 l 230 545 m 1335 716 l 1433 716 l 1525 610 l 1215 253 l 1160 189 l 1378 213 l 1386 347 l 1555 367 l 1555 232 l 1690 247 l 1690 73 l 1555 73 l 1556 -120 l 1359 -120 l 1370 73 l 1031 73 l 997 174 l 1335 716 z "},"":{"ha":721,"x_min":71,"x_max":675,"o":"m 335 708 q 284 716 309 708 q 240 741 260 725 q 209 780 221 757 q 197 834 197 804 q 212 895 197 867 q 251 944 227 923 q 302 976 274 964 q 359 988 331 988 q 421 978 395 988 q 465 949 448 967 q 491 908 482 932 q 499 857 499 884 q 485 794 499 822 q 447 748 471 767 q 394 718 424 728 q 335 708 365 708 m 98 233 q 122 253 104 243 q 165 275 140 264 q 219 298 191 286 q 276 324 248 311 q 327 352 303 337 q 364 383 350 367 q 372 410 372 392 q 368 450 372 428 q 354 495 363 471 q 337 541 346 519 q 319 579 328 562 q 305 605 311 596 l 475 605 q 527 546 505 576 q 562 489 548 517 q 582 438 575 462 q 588 395 588 414 q 573 347 588 368 q 532 310 557 326 q 474 280 507 293 q 407 256 441 267 q 339 235 372 245 q 279 216 306 226 q 233 197 252 207 q 212 175 215 187 q 232 83 214 123 q 275 13 249 43 q 334 -36 302 -16 q 399 -68 366 -56 q 460 -86 431 -80 q 510 -92 490 -92 q 610 -90 573 -95 q 665 -70 647 -84 l 675 -254 q 652 -268 670 -262 q 610 -280 635 -275 q 558 -288 586 -285 q 505 -289 530 -290 q 318 -252 395 -284 q 191 -173 241 -220 q 114 -67 140 -125 q 80 47 88 -9 q 77 153 71 104 q 98 233 83 202 z "},"":{"ha":1085,"x_min":3,"x_max":1082,"o":"m 387 1302 l 640 1153 l 571 1080 q 543 1082 564 1080 q 493 1090 522 1085 q 431 1104 464 1096 q 365 1122 397 1112 q 303 1145 332 1133 q 256 1172 275 1158 l 387 1302 m 3 95 l 94 122 l 428 1053 l 654 1053 l 979 121 l 1082 94 l 1082 0 l 618 0 l 618 94 l 709 124 l 680 227 l 313 227 l 282 127 l 383 95 l 383 0 l 3 0 l 3 95 m 643 353 l 553 664 l 503 850 l 351 353 l 643 353 z "},"":{"ha":1085,"x_min":3,"x_max":1082,"o":"m 439 1153 l 705 1302 l 836 1172 q 787 1145 817 1158 q 724 1122 758 1133 q 654 1104 690 1112 q 589 1090 619 1096 q 537 1082 559 1085 q 507 1080 515 1080 l 439 1153 m 3 95 l 94 122 l 428 1053 l 654 1053 l 979 121 l 1082 94 l 1082 0 l 618 0 l 618 94 l 709 124 l 680 227 l 313 227 l 282 127 l 383 95 l 383 0 l 3 0 l 3 95 m 643 353 l 553 664 l 503 850 l 351 353 l 643 353 z "},"":{"ha":1085,"x_min":3,"x_max":1082,"o":"m 278 1133 l 465 1302 l 622 1302 l 805 1133 l 729 1083 l 545 1171 l 353 1083 l 278 1133 m 3 95 l 94 122 l 428 1053 l 654 1053 l 979 121 l 1082 94 l 1082 0 l 618 0 l 618 94 l 709 124 l 680 227 l 313 227 l 282 127 l 383 95 l 383 0 l 3 0 l 3 95 m 643 353 l 553 664 l 503 850 l 351 353 l 643 353 z "},"":{"ha":1085,"x_min":3,"x_max":1082,"o":"m 252 1161 q 289 1217 263 1191 q 345 1261 314 1242 q 406 1291 375 1280 q 461 1302 437 1302 q 526 1292 498 1302 q 576 1268 553 1281 q 618 1245 599 1255 q 660 1234 638 1234 q 723 1249 696 1234 q 772 1282 750 1263 l 833 1217 q 797 1163 821 1187 q 743 1122 772 1139 q 683 1096 713 1105 q 629 1087 652 1087 q 564 1098 592 1087 q 512 1122 535 1109 q 468 1146 488 1135 q 425 1157 447 1157 q 365 1142 395 1157 q 311 1108 335 1128 l 252 1161 m 3 95 l 94 122 l 428 1053 l 654 1053 l 979 121 l 1082 94 l 1082 0 l 618 0 l 618 94 l 709 124 l 680 227 l 313 227 l 282 127 l 383 95 l 383 0 l 3 0 l 3 95 m 643 353 l 553 664 l 503 850 l 351 353 l 643 353 z "},"":{"ha":1085,"x_min":3,"x_max":1082,"o":"m 719 1098 q 673 1104 695 1098 q 634 1122 651 1110 q 606 1152 616 1135 q 596 1193 596 1170 q 608 1237 596 1217 q 641 1271 621 1257 q 686 1294 661 1286 q 736 1302 711 1302 q 793 1295 770 1302 q 830 1275 816 1288 q 851 1245 844 1263 q 857 1208 857 1228 q 846 1162 857 1183 q 815 1128 834 1142 q 771 1106 796 1114 q 719 1098 746 1098 m 347 1097 q 301 1103 323 1097 q 263 1121 279 1109 q 237 1151 246 1133 q 227 1191 227 1168 q 239 1236 227 1215 q 271 1271 251 1256 q 315 1294 290 1286 q 366 1302 340 1302 q 423 1295 399 1302 q 461 1275 446 1287 q 484 1245 477 1262 q 491 1207 491 1227 q 479 1162 491 1182 q 447 1127 467 1141 q 401 1105 427 1113 q 347 1097 375 1097 m 3 95 l 94 122 l 428 1053 l 654 1053 l 979 121 l 1082 94 l 1082 0 l 618 0 l 618 94 l 709 124 l 680 227 l 313 227 l 282 127 l 383 95 l 383 0 l 3 0 l 3 95 m 643 353 l 553 664 l 503 850 l 351 353 l 643 353 z "},"":{"ha":1085,"x_min":3,"x_max":1082,"o":"m 3 95 l 94 122 l 411 1006 q 360 1059 379 1027 q 341 1135 341 1091 q 356 1206 341 1175 q 398 1258 372 1237 q 462 1291 425 1280 q 543 1302 499 1302 q 623 1291 586 1302 q 688 1257 661 1279 q 730 1204 715 1236 q 745 1135 745 1173 q 725 1057 745 1090 q 671 1003 705 1024 l 979 121 l 1082 94 l 1082 0 l 618 0 l 618 94 l 709 124 l 680 227 l 313 227 l 282 127 l 383 95 l 383 0 l 3 0 l 3 95 m 543 1055 q 576 1061 561 1055 q 603 1077 591 1067 q 621 1103 614 1088 q 627 1135 627 1118 q 621 1166 627 1152 q 603 1193 614 1181 q 576 1210 591 1204 q 543 1217 561 1217 q 480 1194 504 1217 q 457 1135 457 1171 q 480 1077 457 1100 q 543 1055 504 1055 m 643 353 l 553 664 l 503 850 l 351 353 l 643 353 z "},"":{"ha":1314,"x_min":3,"x_max":1307,"o":"m 3 96 l 85 118 l 461 1053 l 1182 1053 l 1206 821 l 1076 821 l 1031 922 l 741 937 l 842 610 l 1013 614 l 1038 715 l 1146 715 l 1146 380 l 1038 380 l 1011 477 l 880 488 l 1000 101 l 1114 121 l 1189 248 l 1307 225 l 1272 0 l 635 0 l 635 95 l 743 123 l 711 228 l 296 228 l 256 123 l 376 96 l 376 0 l 3 0 l 3 96 m 673 360 l 557 754 l 534 856 l 347 360 l 673 360 z "},"":{"ha":994,"x_min":43,"x_max":928,"o":"m 43 491 q 66 655 43 578 q 130 795 89 732 q 226 908 170 859 q 348 992 282 958 q 489 1045 414 1027 q 640 1063 563 1063 q 734 1058 691 1063 q 812 1046 777 1053 q 875 1031 847 1039 q 927 1019 903 1024 l 913 755 l 771 755 l 722 895 q 705 912 715 905 q 679 926 695 920 q 637 934 663 931 q 575 937 612 937 q 471 912 519 937 q 387 838 422 886 q 331 717 351 789 q 311 553 311 646 q 319 438 311 495 q 343 331 327 382 q 382 237 359 280 q 437 163 406 195 q 507 115 468 132 q 591 97 545 97 q 663 101 633 97 q 710 113 692 106 q 739 131 729 121 q 754 151 749 140 l 810 288 l 928 288 l 928 45 q 881 36 905 44 q 824 18 856 28 q 749 -1 791 8 q 651 -16 707 -11 q 652 -53 650 -33 q 654 -89 653 -73 q 725 -108 697 -93 q 770 -143 753 -123 q 793 -183 786 -162 q 800 -220 800 -204 q 787 -279 800 -254 q 750 -322 774 -304 q 694 -349 727 -339 q 623 -360 662 -358 q 563 -360 591 -361 q 512 -354 535 -358 q 472 -347 490 -351 q 444 -340 454 -342 l 444 -239 q 465 -242 452 -241 q 490 -245 477 -244 q 514 -248 503 -247 q 529 -248 525 -248 q 563 -238 551 -248 q 576 -210 576 -228 q 563 -181 576 -191 q 534 -172 551 -172 q 523 -172 530 -172 q 511 -173 517 -172 q 500 -174 505 -173 q 494 -174 495 -174 q 497 -141 494 -161 q 503 -99 499 -121 q 512 -55 507 -77 q 523 -17 517 -33 q 315 33 405 -9 q 165 143 225 75 q 74 301 104 212 q 43 491 43 390 z "},"":{"ha":967,"x_min":68,"x_max":934,"o":"m 347 1302 l 600 1153 l 532 1080 q 503 1082 524 1080 q 453 1090 482 1085 q 391 1104 425 1096 q 326 1122 358 1112 q 264 1145 293 1133 q 216 1172 235 1158 l 347 1302 m 68 95 l 168 121 l 168 927 l 72 942 l 72 1053 l 842 1053 l 863 821 l 724 821 l 660 930 l 409 944 l 409 592 l 583 599 l 619 700 l 742 700 l 742 369 l 619 369 l 583 477 l 409 481 l 409 109 l 707 127 l 793 262 l 934 237 l 897 0 l 68 0 l 68 95 z "},"":{"ha":967,"x_min":68,"x_max":934,"o":"m 399 1153 l 666 1302 l 797 1172 q 748 1145 778 1158 q 684 1122 718 1133 q 615 1104 650 1112 q 550 1090 580 1096 q 497 1082 519 1085 q 468 1080 475 1080 l 399 1153 m 68 95 l 168 121 l 168 927 l 72 942 l 72 1053 l 842 1053 l 863 821 l 724 821 l 660 930 l 409 944 l 409 592 l 583 599 l 619 700 l 742 700 l 742 369 l 619 369 l 583 477 l 409 481 l 409 109 l 707 127 l 793 262 l 934 237 l 897 0 l 68 0 l 68 95 z "},"":{"ha":967,"x_min":68,"x_max":934,"o":"m 239 1133 l 425 1302 l 583 1302 l 766 1133 l 690 1083 l 505 1171 l 314 1083 l 239 1133 m 68 95 l 168 121 l 168 927 l 72 942 l 72 1053 l 842 1053 l 863 821 l 724 821 l 660 930 l 409 944 l 409 592 l 583 599 l 619 700 l 742 700 l 742 369 l 619 369 l 583 477 l 409 481 l 409 109 l 707 127 l 793 262 l 934 237 l 897 0 l 68 0 l 68 95 z "},"":{"ha":967,"x_min":68,"x_max":934,"o":"m 680 1098 q 634 1104 656 1098 q 594 1122 612 1110 q 567 1152 577 1135 q 557 1193 557 1170 q 569 1237 557 1217 q 601 1271 581 1257 q 646 1294 621 1286 q 697 1302 671 1302 q 753 1295 730 1302 q 791 1275 777 1288 q 811 1245 805 1263 q 818 1208 818 1228 q 806 1162 818 1183 q 776 1128 795 1142 q 732 1106 757 1114 q 680 1098 707 1098 m 308 1097 q 262 1103 283 1097 q 223 1121 240 1109 q 197 1151 207 1133 q 188 1191 188 1168 q 200 1236 188 1215 q 231 1271 212 1256 q 276 1294 251 1286 q 327 1302 300 1302 q 384 1295 360 1302 q 422 1275 407 1287 q 445 1245 437 1262 q 452 1207 452 1227 q 440 1162 452 1182 q 408 1127 428 1141 q 362 1105 388 1113 q 308 1097 336 1097 m 68 95 l 168 121 l 168 927 l 72 942 l 72 1053 l 842 1053 l 863 821 l 724 821 l 660 930 l 409 944 l 409 592 l 583 599 l 619 700 l 742 700 l 742 369 l 619 369 l 583 477 l 409 481 l 409 109 l 707 127 l 793 262 l 934 237 l 897 0 l 68 0 l 68 95 z "},"":{"ha":575,"x_min":-3,"x_max":538,"o":"m 312 1080 q 283 1082 304 1080 q 234 1090 262 1085 q 172 1104 205 1096 q 106 1122 138 1112 q 44 1145 73 1133 q -3 1172 16 1158 l 127 1302 l 380 1153 l 312 1080 m 37 95 l 165 123 l 165 926 l 37 942 l 37 1053 l 530 1053 l 530 942 l 410 925 l 410 124 l 538 95 l 538 0 l 37 0 l 37 95 z "},"":{"ha":575,"x_min":37,"x_max":577,"o":"m 180 1153 l 446 1302 l 577 1172 q 528 1145 558 1158 q 465 1122 498 1133 q 395 1104 431 1112 q 330 1090 360 1096 q 278 1082 300 1085 q 248 1080 256 1080 l 180 1153 m 37 95 l 165 123 l 165 926 l 37 942 l 37 1053 l 530 1053 l 530 942 l 410 925 l 410 124 l 538 95 l 538 0 l 37 0 l 37 95 z "},"":{"ha":575,"x_min":19,"x_max":546,"o":"m 19 1133 l 205 1302 l 363 1302 l 546 1133 l 470 1083 l 286 1171 l 94 1083 l 19 1133 m 37 95 l 165 123 l 165 926 l 37 942 l 37 1053 l 530 1053 l 530 942 l 410 925 l 410 124 l 538 95 l 538 0 l 37 0 l 37 95 z "},"":{"ha":575,"x_min":-32,"x_max":598,"o":"m 460 1098 q 414 1104 436 1098 q 375 1122 392 1110 q 347 1152 357 1135 q 337 1193 337 1170 q 349 1237 337 1217 q 381 1271 361 1257 q 427 1294 401 1286 q 477 1302 452 1302 q 534 1295 511 1302 q 571 1275 557 1288 q 592 1245 585 1263 q 598 1208 598 1228 q 587 1162 598 1183 q 556 1128 575 1142 q 512 1106 537 1114 q 460 1098 487 1098 m 88 1097 q 42 1103 64 1097 q 4 1121 20 1109 q -22 1151 -13 1133 q -32 1191 -32 1168 q -20 1236 -32 1215 q 12 1271 -8 1256 q 56 1294 31 1286 q 107 1302 81 1302 q 164 1295 140 1302 q 202 1275 187 1287 q 225 1245 218 1262 q 232 1207 232 1227 q 220 1162 232 1182 q 188 1127 208 1141 q 142 1105 168 1113 q 88 1097 116 1097 m 37 95 l 165 123 l 165 926 l 37 942 l 37 1053 l 530 1053 l 530 942 l 410 925 l 410 124 l 538 95 l 538 0 l 37 0 l 37 95 z "},"":{"ha":1093,"x_min":33,"x_max":1052,"o":"m 61 95 l 159 122 l 159 477 l 33 477 l 33 618 l 159 618 l 159 928 l 64 942 l 64 1053 l 286 1053 q 336 1055 309 1053 q 394 1058 363 1056 q 458 1061 425 1060 q 524 1063 492 1063 q 763 1025 663 1063 q 927 921 863 988 q 1022 762 991 854 q 1052 557 1052 669 q 1012 319 1052 424 q 900 142 972 214 q 727 32 827 70 q 506 -7 627 -7 q 451 -6 480 -7 q 392 -3 421 -5 q 336 0 363 -1 q 290 1 310 1 q 176 0 233 1 q 61 0 119 0 l 61 95 m 402 121 q 468 101 427 106 q 563 101 509 96 q 656 137 614 106 q 731 222 699 168 q 780 348 762 275 q 798 507 798 420 q 725 841 798 730 q 508 954 653 951 q 477 953 493 954 q 448 949 462 951 q 421 943 433 947 q 402 935 410 939 l 402 618 l 588 618 l 588 477 l 402 477 l 402 121 z "},"":{"ha":1143,"x_min":43,"x_max":1107,"o":"m 297 1161 q 333 1217 308 1191 q 389 1261 359 1242 q 451 1291 420 1280 q 506 1302 482 1302 q 571 1292 543 1302 q 621 1268 598 1281 q 663 1245 644 1255 q 705 1234 683 1234 q 768 1249 741 1234 q 817 1282 795 1263 l 878 1217 q 842 1163 866 1187 q 788 1122 817 1139 q 728 1096 758 1105 q 673 1087 697 1087 q 608 1098 637 1087 q 556 1122 580 1109 q 512 1146 533 1135 q 470 1157 492 1157 q 410 1142 439 1157 q 356 1108 380 1128 l 297 1161 m 43 95 l 149 125 l 149 913 l 47 928 l 47 1053 l 393 1053 l 801 342 l 861 182 l 861 910 l 739 929 l 739 1053 l 1107 1053 l 1107 929 l 1015 914 l 1015 0 l 749 0 l 379 622 l 305 805 q 306 466 305 635 q 306 128 306 296 l 444 95 l 444 0 l 43 0 l 43 95 z "},"":{"ha":1085,"x_min":43,"x_max":1042,"o":"m 397 1302 l 650 1153 l 581 1080 q 553 1082 574 1080 q 503 1090 532 1085 q 441 1104 474 1096 q 375 1122 408 1112 q 314 1145 342 1133 q 266 1172 285 1158 l 397 1302 m 45 511 q 67 671 47 597 q 123 806 88 745 q 206 915 158 867 q 310 996 254 963 q 428 1046 366 1029 q 555 1063 490 1063 q 756 1023 665 1063 q 911 913 847 983 q 1008 746 975 842 q 1040 536 1042 650 q 999 305 1038 408 q 893 130 960 202 q 736 20 826 58 q 541 -19 646 -19 q 332 22 425 -19 q 175 134 239 62 q 77 302 111 205 q 45 511 43 399 m 549 90 q 659 117 615 90 q 728 201 703 145 q 764 340 753 256 q 774 535 774 423 q 769 627 774 579 q 752 722 764 675 q 723 809 741 768 q 680 882 705 851 q 623 932 655 913 q 549 951 590 951 q 436 922 481 951 q 362 838 390 893 q 323 700 335 782 q 311 512 311 618 q 317 425 311 472 q 334 332 322 378 q 365 241 346 285 q 410 164 384 197 q 471 110 437 130 q 549 90 506 90 z "},"":{"ha":1085,"x_min":43,"x_max":1042,"o":"m 449 1153 l 715 1302 l 846 1172 q 798 1145 827 1158 q 734 1122 768 1133 q 665 1104 700 1112 q 599 1090 629 1096 q 547 1082 569 1085 q 517 1080 525 1080 l 449 1153 m 45 511 q 67 671 47 597 q 123 806 88 745 q 206 915 158 867 q 310 996 254 963 q 428 1046 366 1029 q 555 1063 490 1063 q 756 1023 665 1063 q 911 913 847 983 q 1008 746 975 842 q 1040 536 1042 650 q 999 305 1038 408 q 893 130 960 202 q 736 20 826 58 q 541 -19 646 -19 q 332 22 425 -19 q 175 134 239 62 q 77 302 111 205 q 45 511 43 399 m 549 90 q 659 117 615 90 q 728 201 703 145 q 764 340 753 256 q 774 535 774 423 q 769 627 774 579 q 752 722 764 675 q 723 809 741 768 q 680 882 705 851 q 623 932 655 913 q 549 951 590 951 q 436 922 481 951 q 362 838 390 893 q 323 700 335 782 q 311 512 311 618 q 317 425 311 472 q 334 332 322 378 q 365 241 346 285 q 410 164 384 197 q 471 110 437 130 q 549 90 506 90 z "},"":{"ha":1085,"x_min":43,"x_max":1042,"o":"m 288 1133 l 475 1302 l 632 1302 l 815 1133 l 739 1083 l 555 1171 l 363 1083 l 288 1133 m 45 511 q 67 671 47 597 q 123 806 88 745 q 206 915 158 867 q 310 996 254 963 q 428 1046 366 1029 q 555 1063 490 1063 q 756 1023 665 1063 q 911 913 847 983 q 1008 746 975 842 q 1040 536 1042 650 q 999 305 1038 408 q 893 130 960 202 q 736 20 826 58 q 541 -19 646 -19 q 332 22 425 -19 q 175 134 239 62 q 77 302 111 205 q 45 511 43 399 m 549 90 q 659 117 615 90 q 728 201 703 145 q 764 340 753 256 q 774 535 774 423 q 769 627 774 579 q 752 722 764 675 q 723 809 741 768 q 680 882 705 851 q 623 932 655 913 q 549 951 590 951 q 436 922 481 951 q 362 838 390 893 q 323 700 335 782 q 311 512 311 618 q 317 425 311 472 q 334 332 322 378 q 365 241 346 285 q 410 164 384 197 q 471 110 437 130 q 549 90 506 90 z "},"":{"ha":1085,"x_min":43,"x_max":1042,"o":"m 262 1161 q 299 1217 273 1191 q 355 1261 324 1242 q 416 1291 385 1280 q 471 1302 448 1302 q 536 1292 509 1302 q 586 1268 564 1281 q 629 1245 609 1255 q 670 1234 648 1234 q 733 1249 707 1234 q 783 1282 760 1263 l 843 1217 q 807 1163 831 1187 q 753 1122 783 1139 q 693 1096 724 1105 q 639 1087 663 1087 q 574 1098 602 1087 q 522 1122 545 1109 q 478 1146 498 1135 q 435 1157 457 1157 q 375 1142 405 1157 q 321 1108 345 1128 l 262 1161 m 45 511 q 67 671 47 597 q 123 806 88 745 q 206 915 158 867 q 310 996 254 963 q 428 1046 366 1029 q 555 1063 490 1063 q 756 1023 665 1063 q 911 913 847 983 q 1008 746 975 842 q 1040 536 1042 650 q 999 305 1038 408 q 893 130 960 202 q 736 20 826 58 q 541 -19 646 -19 q 332 22 425 -19 q 175 134 239 62 q 77 302 111 205 q 45 511 43 399 m 549 90 q 659 117 615 90 q 728 201 703 145 q 764 340 753 256 q 774 535 774 423 q 769 627 774 579 q 752 722 764 675 q 723 809 741 768 q 680 882 705 851 q 623 932 655 913 q 549 951 590 951 q 436 922 481 951 q 362 838 390 893 q 323 700 335 782 q 311 512 311 618 q 317 425 311 472 q 334 332 322 378 q 365 241 346 285 q 410 164 384 197 q 471 110 437 130 q 549 90 506 90 z "},"":{"ha":1085,"x_min":43,"x_max":1042,"o":"m 729 1098 q 683 1104 705 1098 q 644 1122 661 1110 q 616 1152 627 1135 q 606 1193 606 1170 q 618 1237 606 1217 q 651 1271 631 1257 q 696 1294 671 1286 q 747 1302 721 1302 q 803 1295 780 1302 q 840 1275 826 1288 q 861 1245 854 1263 q 867 1208 867 1228 q 856 1162 867 1183 q 825 1128 844 1142 q 781 1106 806 1114 q 729 1098 756 1098 m 357 1097 q 311 1103 333 1097 q 273 1121 290 1109 q 247 1151 256 1133 q 237 1191 237 1168 q 249 1236 237 1215 q 281 1271 261 1256 q 325 1294 300 1286 q 376 1302 350 1302 q 433 1295 410 1302 q 472 1275 456 1287 q 494 1245 487 1262 q 501 1207 501 1227 q 489 1162 501 1182 q 457 1127 477 1141 q 411 1105 437 1113 q 357 1097 385 1097 m 45 511 q 67 671 47 597 q 123 806 88 745 q 206 915 158 867 q 310 996 254 963 q 428 1046 366 1029 q 555 1063 490 1063 q 756 1023 665 1063 q 911 913 847 983 q 1008 746 975 842 q 1040 536 1042 650 q 999 305 1038 408 q 893 130 960 202 q 736 20 826 58 q 541 -19 646 -19 q 332 22 425 -19 q 175 134 239 62 q 77 302 111 205 q 45 511 43 399 m 549 90 q 659 117 615 90 q 728 201 703 145 q 764 340 753 256 q 774 535 774 423 q 769 627 774 579 q 752 722 764 675 q 723 809 741 768 q 680 882 705 851 q 623 932 655 913 q 549 951 590 951 q 436 922 481 951 q 362 838 390 893 q 323 700 335 782 q 311 512 311 618 q 317 425 311 472 q 334 332 322 378 q 365 241 346 285 q 410 164 384 197 q 471 110 437 130 q 549 90 506 90 z "},"":{"ha":964,"x_min":127,"x_max":837,"o":"m 127 328 l 372 563 l 127 798 l 245 921 l 481 673 l 718 921 l 837 798 l 591 563 l 837 328 l 718 205 l 482 452 l 246 205 l 127 328 z "},"":{"ha":1085,"x_min":43,"x_max":1042,"o":"m 316 29 q 200 109 251 60 q 113 220 149 157 q 60 356 78 282 q 45 511 43 430 q 67 671 47 597 q 123 806 88 745 q 206 915 158 867 q 310 996 254 963 q 428 1046 366 1029 q 555 1063 490 1063 q 628 1058 593 1063 q 697 1044 664 1053 l 733 1147 l 820 1118 l 782 1010 q 892 931 844 979 q 974 823 941 884 q 1025 689 1008 762 q 1040 536 1042 616 q 999 305 1038 408 q 893 130 960 202 q 736 20 826 58 q 541 -19 646 -19 q 400 -1 467 -19 l 340 -145 l 256 -115 l 316 29 m 640 921 q 598 943 621 935 q 549 951 575 951 q 436 922 481 951 q 362 838 390 893 q 323 700 335 782 q 311 512 311 618 q 316 435 311 476 q 329 352 320 394 q 353 270 338 310 q 389 195 368 229 l 640 921 m 457 119 q 500 97 477 105 q 549 90 523 90 q 659 117 615 90 q 728 201 703 145 q 764 340 753 256 q 774 535 774 423 q 771 612 774 572 q 759 692 767 652 q 738 769 751 732 q 709 839 726 807 l 457 119 z "},"":{"ha":1086,"x_min":24,"x_max":1071,"o":"m 431 1302 l 684 1153 l 616 1080 q 587 1082 608 1080 q 537 1090 566 1085 q 475 1104 509 1096 q 410 1122 442 1112 q 348 1145 377 1133 q 300 1172 319 1158 l 431 1302 m 131 926 l 24 942 l 24 1053 l 486 1053 l 486 942 l 372 926 l 372 414 q 381 295 372 345 q 408 211 391 245 q 447 155 425 176 q 496 122 470 134 q 549 106 522 110 q 605 102 577 102 q 691 118 652 102 q 760 174 731 134 q 806 282 789 214 q 821 452 822 349 l 819 924 l 705 942 l 705 1053 l 1071 1053 l 1071 942 l 973 924 l 973 452 q 958 289 973 359 q 916 165 943 218 q 852 77 889 113 q 770 21 814 42 q 676 -10 726 -1 q 575 -19 627 -19 q 237 90 347 -19 q 128 424 127 199 l 131 926 z "},"":{"ha":1086,"x_min":24,"x_max":1071,"o":"m 484 1153 l 750 1302 l 881 1172 q 832 1145 862 1158 q 768 1122 802 1133 q 699 1104 734 1112 q 634 1090 664 1096 q 582 1082 604 1085 q 552 1080 559 1080 l 484 1153 m 131 926 l 24 942 l 24 1053 l 486 1053 l 486 942 l 372 926 l 372 414 q 381 295 372 345 q 408 211 391 245 q 447 155 425 176 q 496 122 470 134 q 549 106 522 110 q 605 102 577 102 q 691 118 652 102 q 760 174 731 134 q 806 282 789 214 q 821 452 822 349 l 819 924 l 705 942 l 705 1053 l 1071 1053 l 1071 942 l 973 924 l 973 452 q 958 289 973 359 q 916 165 943 218 q 852 77 889 113 q 770 21 814 42 q 676 -10 726 -1 q 575 -19 627 -19 q 237 90 347 -19 q 128 424 127 199 l 131 926 z "},"":{"ha":1086,"x_min":24,"x_max":1071,"o":"m 323 1133 l 509 1302 l 667 1302 l 850 1133 l 774 1083 l 589 1171 l 398 1083 l 323 1133 m 131 926 l 24 942 l 24 1053 l 486 1053 l 486 942 l 372 926 l 372 414 q 381 295 372 345 q 408 211 391 245 q 447 155 425 176 q 496 122 470 134 q 549 106 522 110 q 605 102 577 102 q 691 118 652 102 q 760 174 731 134 q 806 282 789 214 q 821 452 822 349 l 819 924 l 705 942 l 705 1053 l 1071 1053 l 1071 942 l 973 924 l 973 452 q 958 289 973 359 q 916 165 943 218 q 852 77 889 113 q 770 21 814 42 q 676 -10 726 -1 q 575 -19 627 -19 q 237 90 347 -19 q 128 424 127 199 l 131 926 z "},"":{"ha":1086,"x_min":24,"x_max":1071,"o":"m 764 1098 q 718 1104 740 1098 q 679 1122 696 1110 q 651 1152 661 1135 q 641 1193 641 1170 q 653 1237 641 1217 q 685 1271 665 1257 q 730 1294 705 1286 q 781 1302 755 1302 q 838 1295 814 1302 q 875 1275 861 1288 q 896 1245 889 1263 q 902 1208 902 1228 q 890 1162 902 1183 q 860 1128 879 1142 q 816 1106 841 1114 q 764 1098 791 1098 m 392 1097 q 346 1103 368 1097 q 308 1121 324 1109 q 281 1151 291 1133 q 272 1191 272 1168 q 284 1236 272 1215 q 315 1271 296 1256 q 360 1294 335 1286 q 411 1302 385 1302 q 468 1295 444 1302 q 506 1275 491 1287 q 529 1245 522 1262 q 536 1207 536 1227 q 524 1162 536 1182 q 492 1127 512 1141 q 446 1105 472 1113 q 392 1097 420 1097 m 131 926 l 24 942 l 24 1053 l 486 1053 l 486 942 l 372 926 l 372 414 q 381 295 372 345 q 408 211 391 245 q 447 155 425 176 q 496 122 470 134 q 549 106 522 110 q 605 102 577 102 q 691 118 652 102 q 760 174 731 134 q 806 282 789 214 q 821 452 822 349 l 819 924 l 705 942 l 705 1053 l 1071 1053 l 1071 942 l 973 924 l 973 452 q 958 289 973 359 q 916 165 943 218 q 852 77 889 113 q 770 21 814 42 q 676 -10 726 -1 q 575 -19 627 -19 q 237 90 347 -19 q 128 424 127 199 l 131 926 z "},"":{"ha":997,"x_min":5,"x_max":991,"o":"m 414 1153 l 681 1302 l 812 1172 q 763 1145 793 1158 q 699 1122 733 1133 q 630 1104 665 1112 q 565 1090 595 1096 q 512 1082 534 1085 q 483 1080 490 1080 l 414 1153 m 233 95 l 396 125 l 396 347 l 80 929 l 5 942 l 5 1053 l 433 1053 l 433 944 l 361 930 l 532 570 l 551 507 l 574 576 l 718 925 l 610 942 q 610 998 610 970 q 610 1053 610 1025 l 991 1053 l 991 942 l 902 917 l 637 368 l 637 127 l 820 95 l 820 0 l 233 0 l 233 95 z "},"":{"ha":935,"x_min":16,"x_max":932,"o":"m 48 95 l 159 124 l 159 925 l 16 942 l 16 1053 l 534 1053 l 534 942 l 399 925 l 399 821 q 475 829 436 825 q 550 833 513 833 q 708 818 637 833 q 828 771 779 804 q 905 685 878 738 q 932 556 932 632 q 905 407 932 471 q 825 299 878 343 q 698 234 773 256 q 529 212 623 212 q 455 213 490 212 q 399 216 420 215 l 399 123 l 572 95 l 572 0 l 48 0 l 48 95 m 399 328 q 417 325 406 326 q 442 324 429 324 q 471 323 456 323 q 499 323 486 323 q 575 339 542 323 q 633 384 609 355 q 669 452 656 412 q 682 541 682 492 q 665 623 682 589 q 621 678 649 657 q 555 708 593 699 q 475 716 518 717 q 425 715 441 715 q 399 713 408 714 l 399 328 z "},"":{"ha":1002,"x_min":31,"x_max":982,"o":"m 31 98 l 134 132 l 134 587 q 152 746 134 676 q 201 867 170 815 q 274 954 232 918 q 366 1012 316 990 q 469 1043 415 1034 q 577 1053 523 1053 q 631 1049 602 1053 q 690 1037 661 1046 q 746 1013 719 1027 q 795 978 774 999 q 828 929 816 958 q 841 865 841 901 q 827 798 841 826 q 792 747 813 769 q 747 708 771 726 q 702 673 723 690 q 667 635 681 655 q 653 587 653 614 q 667 538 653 558 q 705 503 682 518 q 757 477 728 488 q 818 452 787 465 q 878 424 848 439 q 930 387 907 409 q 968 334 954 365 q 982 260 982 304 q 965 153 982 203 q 910 65 947 102 q 812 6 872 28 q 667 -16 752 -16 q 612 -14 644 -16 q 548 -9 579 -12 q 492 0 517 -5 q 458 12 467 5 l 458 146 q 487 127 469 137 q 527 109 505 117 q 577 95 550 100 q 633 90 604 90 q 678 96 656 90 q 716 117 700 103 q 743 152 733 131 q 753 201 753 173 q 740 250 753 231 q 706 280 727 268 q 659 301 686 292 q 604 318 632 309 q 549 340 576 328 q 502 375 522 353 q 468 428 481 396 q 455 507 455 460 q 468 571 455 544 q 498 620 480 597 q 539 662 517 642 q 579 705 561 682 q 610 758 597 728 q 623 829 623 787 q 617 875 623 854 q 599 911 611 896 q 569 936 587 927 q 525 945 550 945 q 461 930 489 945 q 413 883 433 916 q 384 796 394 850 q 374 663 374 742 l 374 0 l 31 0 l 31 98 z "},"":{"ha":831,"x_min":35,"x_max":820,"o":"m 477 907 q 390 925 437 905 q 299 977 343 945 q 215 1047 254 1008 q 151 1124 176 1086 l 323 1256 l 537 967 l 477 907 m 48 267 q 85 338 58 307 q 150 392 112 369 q 233 431 188 415 q 325 457 279 447 q 414 472 371 467 q 491 476 457 476 q 481 564 491 530 q 453 617 472 598 q 408 644 435 637 q 347 651 381 651 q 265 644 302 651 q 198 627 227 637 q 149 608 168 618 q 122 593 130 598 l 76 697 q 115 720 87 706 q 186 748 142 734 q 289 771 230 762 q 419 781 347 781 q 545 768 488 781 q 644 724 602 755 q 708 638 685 692 q 731 502 731 585 l 731 92 l 820 92 l 820 20 q 780 0 802 7 q 734 -12 758 -7 q 687 -17 711 -16 q 644 -19 664 -19 q 611 -16 631 -19 q 571 -5 591 -14 q 538 19 552 3 q 522 58 524 34 q 439 3 487 25 q 326 -19 391 -19 q 177 5 237 -19 q 85 69 118 29 q 43 160 52 109 q 48 267 35 212 m 283 227 q 320 132 283 161 q 429 113 357 103 q 463 123 448 116 q 490 140 477 130 q 491 256 490 198 q 491 372 491 314 q 446 370 470 372 q 399 361 422 368 q 355 345 376 355 q 318 318 334 334 q 292 279 302 302 q 283 227 283 257 z "},"":{"ha":831,"x_min":35,"x_max":820,"o":"m 303 966 l 517 1255 l 690 1123 q 627 1051 665 1084 q 545 990 589 1017 q 453 941 500 962 q 363 906 406 920 l 303 966 m 48 267 q 85 338 58 307 q 150 392 112 369 q 233 431 188 415 q 325 457 279 447 q 414 472 371 467 q 491 476 457 476 q 481 564 491 530 q 453 617 472 598 q 408 644 435 637 q 347 651 381 651 q 265 644 302 651 q 198 627 227 637 q 149 608 168 618 q 122 593 130 598 l 76 697 q 115 720 87 706 q 186 748 142 734 q 289 771 230 762 q 419 781 347 781 q 545 768 488 781 q 644 724 602 755 q 708 638 685 692 q 731 502 731 585 l 731 92 l 820 92 l 820 20 q 780 0 802 7 q 734 -12 758 -7 q 687 -17 711 -16 q 644 -19 664 -19 q 611 -16 631 -19 q 571 -5 591 -14 q 538 19 552 3 q 522 58 524 34 q 439 3 487 25 q 326 -19 391 -19 q 177 5 237 -19 q 85 69 118 29 q 43 160 52 109 q 48 267 35 212 m 283 227 q 320 132 283 161 q 429 113 357 103 q 463 123 448 116 q 490 140 477 130 q 491 256 490 198 q 491 372 491 314 q 446 370 470 372 q 399 361 422 368 q 355 345 376 355 q 318 318 334 334 q 292 279 302 302 q 283 227 283 257 z "},"":{"ha":831,"x_min":35,"x_max":820,"o":"m 127 956 l 311 1204 l 482 1204 l 670 956 l 572 906 l 396 1046 l 216 905 l 127 956 m 48 267 q 85 338 58 307 q 150 392 112 369 q 233 431 188 415 q 325 457 279 447 q 414 472 371 467 q 491 476 457 476 q 481 564 491 530 q 453 617 472 598 q 408 644 435 637 q 347 651 381 651 q 265 644 302 651 q 198 627 227 637 q 149 608 168 618 q 122 593 130 598 l 76 697 q 115 720 87 706 q 186 748 142 734 q 289 771 230 762 q 419 781 347 781 q 545 768 488 781 q 644 724 602 755 q 708 638 685 692 q 731 502 731 585 l 731 92 l 820 92 l 820 20 q 780 0 802 7 q 734 -12 758 -7 q 687 -17 711 -16 q 644 -19 664 -19 q 611 -16 631 -19 q 571 -5 591 -14 q 538 19 552 3 q 522 58 524 34 q 439 3 487 25 q 326 -19 391 -19 q 177 5 237 -19 q 85 69 118 29 q 43 160 52 109 q 48 267 35 212 m 283 227 q 320 132 283 161 q 429 113 357 103 q 463 123 448 116 q 490 140 477 130 q 491 256 490 198 q 491 372 491 314 q 446 370 470 372 q 399 361 422 368 q 355 345 376 355 q 318 318 334 334 q 292 279 302 302 q 283 227 283 257 z "},"":{"ha":831,"x_min":35,"x_max":820,"o":"m 105 995 q 141 1050 116 1025 q 197 1095 167 1076 q 259 1125 228 1114 q 314 1136 290 1136 q 379 1125 351 1136 q 429 1102 406 1115 q 471 1079 452 1089 q 513 1068 491 1068 q 576 1083 549 1068 q 625 1116 603 1099 l 686 1050 q 650 995 674 1021 q 596 949 625 968 q 536 919 566 930 q 481 907 505 907 q 416 918 445 907 q 365 942 388 929 q 320 966 341 956 q 278 977 300 977 q 248 973 263 977 q 218 961 233 968 q 190 946 203 954 q 164 928 176 937 l 105 995 m 48 267 q 85 338 58 307 q 150 392 112 369 q 233 431 188 415 q 325 457 279 447 q 414 472 371 467 q 491 476 457 476 q 481 564 491 530 q 453 617 472 598 q 408 644 435 637 q 347 651 381 651 q 265 644 302 651 q 198 627 227 637 q 149 608 168 618 q 122 593 130 598 l 76 697 q 115 720 87 706 q 186 748 142 734 q 289 771 230 762 q 419 781 347 781 q 545 768 488 781 q 644 724 602 755 q 708 638 685 692 q 731 502 731 585 l 731 92 l 820 92 l 820 20 q 780 0 802 7 q 734 -12 758 -7 q 687 -17 711 -16 q 644 -19 664 -19 q 611 -16 631 -19 q 571 -5 591 -14 q 538 19 552 3 q 522 58 524 34 q 439 3 487 25 q 326 -19 391 -19 q 177 5 237 -19 q 85 69 118 29 q 43 160 52 109 q 48 267 35 212 m 283 227 q 320 132 283 161 q 429 113 357 103 q 463 123 448 116 q 490 140 477 130 q 491 256 490 198 q 491 372 491 314 q 446 370 470 372 q 399 361 422 368 q 355 345 376 355 q 318 318 334 334 q 292 279 302 302 q 283 227 283 257 z "},"":{"ha":831,"x_min":35,"x_max":820,"o":"m 566 915 q 520 921 542 915 q 480 939 498 927 q 453 969 463 951 q 443 1010 443 987 q 455 1054 443 1034 q 487 1088 467 1074 q 532 1111 507 1103 q 583 1119 557 1119 q 640 1112 616 1119 q 677 1092 663 1105 q 697 1062 691 1080 q 704 1025 704 1045 q 692 979 704 1000 q 662 945 681 959 q 618 923 643 930 q 566 915 593 915 m 208 914 q 161 920 183 914 q 123 938 140 926 q 97 968 106 950 q 87 1008 87 985 q 99 1053 87 1032 q 131 1088 111 1073 q 175 1111 151 1103 q 227 1119 200 1119 q 283 1112 260 1119 q 322 1092 307 1104 q 344 1062 337 1079 q 351 1024 351 1044 q 339 979 351 999 q 308 944 328 958 q 261 922 288 930 q 208 914 235 914 m 48 267 q 85 338 58 307 q 150 392 112 369 q 233 431 188 415 q 325 457 279 447 q 414 472 371 467 q 491 476 457 476 q 481 564 491 530 q 453 617 472 598 q 408 644 435 637 q 347 651 381 651 q 265 644 302 651 q 198 627 227 637 q 149 608 168 618 q 122 593 130 598 l 76 697 q 115 720 87 706 q 186 748 142 734 q 289 771 230 762 q 419 781 347 781 q 545 768 488 781 q 644 724 602 755 q 708 638 685 692 q 731 502 731 585 l 731 92 l 820 92 l 820 20 q 780 0 802 7 q 734 -12 758 -7 q 687 -17 711 -16 q 644 -19 664 -19 q 611 -16 631 -19 q 571 -5 591 -14 q 538 19 552 3 q 522 58 524 34 q 439 3 487 25 q 326 -19 391 -19 q 177 5 237 -19 q 85 69 118 29 q 43 160 52 109 q 48 267 35 212 m 283 227 q 320 132 283 161 q 429 113 357 103 q 463 123 448 116 q 490 140 477 130 q 491 256 490 198 q 491 372 491 314 q 446 370 470 372 q 399 361 422 368 q 355 345 376 355 q 318 318 334 334 q 292 279 302 302 q 283 227 283 257 z "},"":{"ha":831,"x_min":35,"x_max":820,"o":"m 396 871 q 319 886 355 871 q 256 926 283 901 q 213 985 229 951 q 197 1058 197 1019 q 213 1131 197 1097 q 256 1190 229 1164 q 319 1230 283 1215 q 396 1244 355 1244 q 474 1229 437 1244 q 538 1188 511 1214 q 581 1129 565 1162 q 596 1058 596 1095 q 581 985 596 1019 q 538 926 565 951 q 474 886 511 901 q 396 871 437 871 m 396 968 q 431 975 415 968 q 460 993 448 981 q 479 1022 472 1005 q 486 1058 486 1038 q 479 1093 486 1076 q 460 1122 472 1109 q 431 1142 448 1135 q 396 1149 415 1149 q 359 1142 376 1149 q 331 1123 342 1135 q 312 1094 319 1111 q 306 1058 306 1078 q 312 1022 306 1038 q 331 993 319 1005 q 359 975 342 981 q 396 968 376 968 m 48 267 q 85 338 58 307 q 150 392 112 369 q 233 431 188 415 q 325 457 279 447 q 414 472 371 467 q 491 476 457 476 q 481 564 491 530 q 453 617 472 598 q 408 644 435 637 q 347 651 381 651 q 265 644 302 651 q 198 627 227 637 q 149 608 168 618 q 122 593 130 598 l 76 697 q 115 720 87 706 q 186 748 142 734 q 289 771 230 762 q 419 781 347 781 q 545 768 488 781 q 644 724 602 755 q 708 638 685 692 q 731 502 731 585 l 731 92 l 820 92 l 820 20 q 780 0 802 7 q 734 -12 758 -7 q 687 -17 711 -16 q 644 -19 664 -19 q 611 -16 631 -19 q 571 -5 591 -14 q 538 19 552 3 q 522 58 524 34 q 439 3 487 25 q 326 -19 391 -19 q 177 5 237 -19 q 85 69 118 29 q 43 160 52 109 q 48 267 35 212 m 283 227 q 320 132 283 161 q 429 113 357 103 q 463 123 448 116 q 490 140 477 130 q 491 256 490 198 q 491 372 491 314 q 446 370 470 372 q 399 361 422 368 q 355 345 376 355 q 318 318 334 334 q 292 279 302 302 q 283 227 283 257 z "},"":{"ha":1284,"x_min":35,"x_max":1227,"o":"m 48 267 q 85 338 58 307 q 150 392 112 369 q 233 431 188 415 q 325 457 279 447 q 414 472 371 467 q 491 476 457 476 q 489 519 491 500 q 474 585 485 559 q 445 624 463 610 q 402 643 427 637 q 347 648 377 648 q 265 641 302 648 q 198 624 227 633 q 149 605 168 614 q 122 589 130 595 l 76 697 q 115 720 87 706 q 186 748 142 734 q 289 771 230 762 q 419 781 347 781 q 557 765 495 781 q 661 709 619 749 q 773 762 711 743 q 909 781 835 781 q 1050 760 991 781 q 1147 701 1109 739 q 1204 611 1185 663 q 1225 497 1223 559 q 1223 421 1227 454 q 1216 359 1220 388 l 736 359 q 801 178 746 239 q 958 117 855 117 q 1067 129 1008 117 q 1181 165 1126 141 l 1217 78 q 1154 38 1192 56 q 1071 7 1116 20 q 977 -13 1026 -6 q 878 -19 927 -20 q 598 75 696 -15 q 551 38 578 55 q 491 8 525 21 q 416 -12 458 -5 q 326 -19 375 -19 q 177 5 237 -19 q 85 69 118 29 q 43 160 52 109 q 48 267 35 212 m 992 469 q 996 515 994 490 q 997 563 998 539 q 991 609 996 587 q 974 648 986 631 q 941 675 962 665 q 888 686 920 686 q 817 662 848 686 q 762 587 783 636 q 736 469 741 538 l 992 469 m 283 227 q 320 132 283 161 q 429 113 357 103 q 465 122 450 117 q 490 133 479 127 q 491 253 490 193 q 491 372 491 312 q 446 370 470 372 q 399 361 422 368 q 355 345 376 355 q 318 318 334 334 q 292 279 302 302 q 283 227 283 257 z "},"":{"ha":769,"x_min":50,"x_max":747,"o":"m 50 356 q 82 532 50 454 q 172 664 115 610 q 306 748 229 718 q 471 781 383 777 q 544 779 506 781 q 616 772 582 777 q 678 761 650 768 q 722 745 706 754 l 722 530 l 597 530 l 544 658 q 500 672 525 669 q 454 675 476 675 q 392 658 420 675 q 344 609 364 641 q 313 530 324 576 q 299 423 301 483 q 314 282 296 341 q 362 186 331 224 q 434 132 393 149 q 520 115 475 115 q 580 119 551 115 q 634 129 609 123 q 679 144 659 136 q 711 163 699 153 l 747 78 q 634 14 701 38 q 486 -16 568 -9 q 487 -54 486 -34 q 490 -90 488 -75 q 561 -110 532 -94 q 605 -144 589 -125 q 628 -184 621 -163 q 635 -221 635 -205 q 622 -280 635 -255 q 586 -323 609 -306 q 530 -350 562 -340 q 458 -361 497 -359 q 398 -361 426 -363 q 348 -356 370 -359 q 307 -348 325 -352 q 279 -341 290 -344 l 279 -240 q 300 -244 287 -242 q 326 -247 313 -245 q 349 -249 338 -248 q 364 -250 360 -250 q 398 -239 386 -250 q 411 -212 411 -229 q 398 -182 411 -192 q 369 -173 386 -173 q 358 -173 365 -173 q 346 -174 352 -174 q 335 -175 340 -174 q 330 -176 330 -176 q 332 -141 330 -162 q 339 -97 335 -120 q 349 -52 343 -74 q 359 -14 354 -30 q 227 27 284 -4 q 130 107 169 59 q 71 219 91 156 q 50 356 51 283 z "},"":{"ha":840,"x_min":50,"x_max":783,"o":"m 533 907 q 446 925 492 905 q 354 977 399 945 q 271 1047 310 1008 q 206 1124 232 1086 l 379 1256 l 593 967 l 533 907 m 50 360 q 78 524 50 447 q 160 657 106 600 q 291 747 214 714 q 466 781 368 781 q 607 760 548 781 q 704 701 666 739 q 761 611 742 663 q 782 497 780 559 q 780 421 783 454 q 772 359 777 388 l 300 359 q 362 178 309 239 q 515 117 414 117 q 620 128 564 117 q 731 163 676 138 l 767 78 q 704 38 741 56 q 624 7 667 20 q 532 -13 581 -6 q 434 -19 484 -20 q 270 9 342 -17 q 150 83 199 35 q 75 201 100 132 q 50 360 50 271 m 549 469 q 553 523 551 494 q 552 579 555 551 q 541 630 550 606 q 511 668 531 654 q 482 681 498 677 q 444 686 466 686 q 378 666 405 686 q 335 616 352 647 q 311 547 319 585 q 300 469 303 508 l 549 469 z "},"":{"ha":840,"x_min":50,"x_max":783,"o":"m 359 966 l 572 1255 l 745 1123 q 683 1051 721 1084 q 601 990 645 1017 q 509 941 556 962 q 418 906 462 920 l 359 966 m 50 360 q 78 524 50 447 q 160 657 106 600 q 291 747 214 714 q 466 781 368 781 q 607 760 548 781 q 704 701 666 739 q 761 611 742 663 q 782 497 780 559 q 780 421 783 454 q 772 359 777 388 l 300 359 q 362 178 309 239 q 515 117 414 117 q 620 128 564 117 q 731 163 676 138 l 767 78 q 704 38 741 56 q 624 7 667 20 q 532 -13 581 -6 q 434 -19 484 -20 q 270 9 342 -17 q 150 83 199 35 q 75 201 100 132 q 50 360 50 271 m 549 469 q 553 523 551 494 q 552 579 555 551 q 541 630 550 606 q 511 668 531 654 q 482 681 498 677 q 444 686 466 686 q 378 666 405 686 q 335 616 352 647 q 311 547 319 585 q 300 469 303 508 l 549 469 z "},"":{"ha":840,"x_min":50,"x_max":783,"o":"m 182 956 l 366 1204 l 538 1204 l 726 956 l 627 906 l 452 1046 l 271 905 l 182 956 m 50 360 q 78 524 50 447 q 160 657 106 600 q 291 747 214 714 q 466 781 368 781 q 607 760 548 781 q 704 701 666 739 q 761 611 742 663 q 782 497 780 559 q 780 421 783 454 q 772 359 777 388 l 300 359 q 362 178 309 239 q 515 117 414 117 q 620 128 564 117 q 731 163 676 138 l 767 78 q 704 38 741 56 q 624 7 667 20 q 532 -13 581 -6 q 434 -19 484 -20 q 270 9 342 -17 q 150 83 199 35 q 75 201 100 132 q 50 360 50 271 m 549 469 q 553 523 551 494 q 552 579 555 551 q 541 630 550 606 q 511 668 531 654 q 482 681 498 677 q 444 686 466 686 q 378 666 405 686 q 335 616 352 647 q 311 547 319 585 q 300 469 303 508 l 549 469 z "},"":{"ha":840,"x_min":50,"x_max":783,"o":"m 621 915 q 575 921 597 915 q 536 939 553 927 q 509 969 519 951 q 498 1010 498 987 q 511 1054 498 1034 q 543 1088 523 1074 q 588 1111 563 1103 q 639 1119 613 1119 q 695 1112 672 1119 q 732 1092 718 1105 q 753 1062 747 1080 q 760 1025 760 1045 q 748 979 760 1000 q 718 945 736 959 q 673 923 699 930 q 621 915 648 915 m 263 914 q 217 920 239 914 q 179 938 195 926 q 153 968 162 950 q 143 1008 143 985 q 155 1053 143 1032 q 186 1088 167 1073 q 231 1111 206 1103 q 282 1119 256 1119 q 339 1112 315 1119 q 377 1092 362 1104 q 400 1062 393 1079 q 407 1024 407 1044 q 395 979 407 999 q 363 944 383 958 q 317 922 343 930 q 263 914 291 914 m 50 360 q 78 524 50 447 q 160 657 106 600 q 291 747 214 714 q 466 781 368 781 q 607 760 548 781 q 704 701 666 739 q 761 611 742 663 q 782 497 780 559 q 780 421 783 454 q 772 359 777 388 l 300 359 q 362 178 309 239 q 515 117 414 117 q 620 128 564 117 q 731 163 676 138 l 767 78 q 704 38 741 56 q 624 7 667 20 q 532 -13 581 -6 q 434 -19 484 -20 q 270 9 342 -17 q 150 83 199 35 q 75 201 100 132 q 50 360 50 271 m 549 469 q 553 523 551 494 q 552 579 555 551 q 541 630 550 606 q 511 668 531 654 q 482 681 498 677 q 444 686 466 686 q 378 666 405 686 q 335 616 352 647 q 311 547 319 585 q 300 469 303 508 l 549 469 z "},"":{"ha":507,"x_min":19,"x_max":480,"o":"m 346 907 q 258 925 305 905 q 167 977 212 945 q 84 1047 123 1008 q 19 1124 45 1086 l 192 1256 l 406 967 l 346 907 m 54 92 l 145 111 l 145 533 l 58 631 l 58 694 l 327 785 l 385 768 l 385 110 l 480 92 l 480 0 l 54 0 l 54 92 z "},"":{"ha":507,"x_min":54,"x_max":558,"o":"m 172 966 l 385 1255 l 558 1123 q 496 1051 534 1084 q 413 990 458 1017 q 322 941 369 962 q 231 906 275 920 l 172 966 m 54 92 l 145 111 l 145 533 l 58 631 l 58 694 l 327 785 l 385 768 l 385 110 l 480 92 l 480 0 l 54 0 l 54 92 z "},"":{"ha":507,"x_min":-5,"x_max":538,"o":"m -5 956 l 179 1204 l 351 1204 l 538 956 l 440 906 l 264 1046 l 84 905 l -5 956 m 54 92 l 145 111 l 145 533 l 58 631 l 58 694 l 327 785 l 385 768 l 385 110 l 480 92 l 480 0 l 54 0 l 54 92 z "},"":{"ha":507,"x_min":-44,"x_max":572,"o":"m 434 915 q 388 921 410 915 q 349 939 366 927 q 321 969 332 951 q 311 1010 311 987 q 323 1054 311 1034 q 356 1088 336 1074 q 401 1111 376 1103 q 452 1119 426 1119 q 508 1112 485 1119 q 545 1092 531 1105 q 566 1062 559 1080 q 572 1025 572 1045 q 561 979 572 1000 q 530 945 549 959 q 486 923 511 930 q 434 915 461 915 m 76 914 q 30 920 52 914 q -8 938 8 926 q -35 968 -25 950 q -44 1008 -44 985 q -32 1053 -44 1032 q -1 1088 -20 1073 q 44 1111 19 1103 q 95 1119 68 1119 q 152 1112 128 1119 q 190 1092 175 1104 q 213 1062 205 1079 q 220 1024 220 1044 q 208 979 220 999 q 176 944 196 958 q 130 922 156 930 q 76 914 104 914 m 54 92 l 145 111 l 145 533 l 58 631 l 58 694 l 327 785 l 385 768 l 385 110 l 480 92 l 480 0 l 54 0 l 54 92 z "},"":{"ha":897,"x_min":43,"x_max":840,"o":"m 43 340 q 59 461 43 407 q 102 559 75 516 q 166 633 129 602 q 246 685 203 664 q 336 715 289 705 q 431 725 383 725 q 550 704 498 725 q 632 652 601 683 q 576 799 618 731 q 471 920 534 867 l 359 820 l 290 878 l 395 975 q 305 1018 352 1000 q 207 1046 258 1036 l 224 1147 q 354 1120 287 1141 q 486 1063 420 1100 q 524 1099 504 1080 q 561 1133 544 1117 q 599 1168 581 1150 l 673 1103 q 639 1073 656 1088 q 605 1043 623 1059 q 568 1010 587 1026 q 675 911 625 968 q 761 785 724 855 q 819 628 798 714 q 840 442 840 543 q 821 260 840 345 q 753 114 801 176 q 625 17 705 52 q 425 -18 545 -18 q 271 8 341 -18 q 151 81 201 34 q 72 195 100 129 q 43 340 43 261 m 288 352 q 302 247 288 295 q 339 162 316 198 q 391 107 362 127 q 448 87 419 87 q 509 101 479 87 q 562 150 538 115 q 598 242 585 184 q 612 387 612 300 q 611 421 612 404 q 606 460 610 437 q 587 511 601 484 q 552 562 573 538 q 503 602 530 586 q 442 617 475 617 q 369 600 398 617 q 321 550 339 583 q 295 467 303 517 q 288 352 288 417 z "},"":{"ha":994,"x_min":58,"x_max":963,"o":"m 228 995 q 264 1050 239 1025 q 320 1095 290 1076 q 382 1125 351 1114 q 437 1136 413 1136 q 502 1125 474 1136 q 552 1102 529 1115 q 594 1079 574 1089 q 635 1068 614 1068 q 699 1083 671 1068 q 748 1116 726 1099 l 808 1050 q 772 995 797 1021 q 719 949 748 968 q 659 919 689 930 q 604 907 628 907 q 539 918 568 907 q 487 942 511 929 q 443 966 464 956 q 401 977 422 977 q 371 973 386 977 q 341 961 355 968 q 313 946 326 954 q 287 928 299 937 l 228 995 m 66 92 l 151 109 l 151 555 l 58 621 l 58 706 l 310 781 l 361 768 l 361 667 q 420 714 387 693 q 491 750 454 735 q 567 772 528 764 q 645 781 606 781 q 753 760 710 781 q 821 700 795 739 q 857 604 846 661 q 867 475 867 547 l 867 110 l 963 92 l 963 0 l 530 0 l 530 92 l 627 111 l 627 444 q 622 533 627 498 q 603 588 617 568 q 563 616 589 608 q 494 624 536 624 q 474 622 488 624 q 444 615 460 619 q 414 605 429 611 q 391 593 399 600 l 391 111 l 474 92 l 474 0 l 66 0 l 66 92 z "},"":{"ha":905,"x_min":49,"x_max":856,"o":"m 536 907 q 449 925 496 905 q 358 977 402 945 q 274 1047 313 1008 q 210 1124 235 1086 l 382 1256 l 596 967 l 536 907 m 50 380 q 86 560 52 485 q 179 684 121 635 q 311 756 236 733 q 465 781 385 780 q 628 758 556 782 q 751 687 701 734 q 829 567 802 639 q 856 401 856 495 q 822 215 856 294 q 731 85 788 137 q 601 9 675 34 q 446 -16 527 -16 q 262 15 338 -16 q 139 100 186 46 q 70 227 92 154 q 50 380 49 299 m 454 83 q 530 111 501 83 q 574 182 559 138 q 595 281 590 227 q 601 389 601 336 q 599 455 601 421 q 591 522 597 490 q 575 584 585 555 q 550 635 566 613 q 512 669 534 656 q 459 682 490 682 q 404 670 428 682 q 363 638 380 659 q 335 591 346 618 q 317 532 323 564 q 308 467 311 500 q 305 399 305 433 q 308 336 305 370 q 317 266 311 301 q 334 198 323 231 q 361 139 345 165 q 400 98 378 113 q 454 83 423 83 z "},"":{"ha":905,"x_min":49,"x_max":856,"o":"m 362 966 l 576 1255 l 749 1123 q 686 1051 724 1084 q 604 990 648 1017 q 512 941 559 962 q 422 906 465 920 l 362 966 m 50 380 q 86 560 52 485 q 179 684 121 635 q 311 756 236 733 q 465 781 385 780 q 628 758 556 782 q 751 687 701 734 q 829 567 802 639 q 856 401 856 495 q 822 215 856 294 q 731 85 788 137 q 601 9 675 34 q 446 -16 527 -16 q 262 15 338 -16 q 139 100 186 46 q 70 227 92 154 q 50 380 49 299 m 454 83 q 530 111 501 83 q 574 182 559 138 q 595 281 590 227 q 601 389 601 336 q 599 455 601 421 q 591 522 597 490 q 575 584 585 555 q 550 635 566 613 q 512 669 534 656 q 459 682 490 682 q 404 670 428 682 q 363 638 380 659 q 335 591 346 618 q 317 532 323 564 q 308 467 311 500 q 305 399 305 433 q 308 336 305 370 q 317 266 311 301 q 334 198 323 231 q 361 139 345 165 q 400 98 378 113 q 454 83 423 83 z "},"":{"ha":905,"x_min":49,"x_max":856,"o":"m 186 956 l 370 1204 l 541 1204 l 729 956 l 631 906 l 455 1046 l 275 905 l 186 956 m 50 380 q 86 560 52 485 q 179 684 121 635 q 311 756 236 733 q 465 781 385 780 q 628 758 556 782 q 751 687 701 734 q 829 567 802 639 q 856 401 856 495 q 822 215 856 294 q 731 85 788 137 q 601 9 675 34 q 446 -16 527 -16 q 262 15 338 -16 q 139 100 186 46 q 70 227 92 154 q 50 380 49 299 m 454 83 q 530 111 501 83 q 574 182 559 138 q 595 281 590 227 q 601 389 601 336 q 599 455 601 421 q 591 522 597 490 q 575 584 585 555 q 550 635 566 613 q 512 669 534 656 q 459 682 490 682 q 404 670 428 682 q 363 638 380 659 q 335 591 346 618 q 317 532 323 564 q 308 467 311 500 q 305 399 305 433 q 308 336 305 370 q 317 266 311 301 q 334 198 323 231 q 361 139 345 165 q 400 98 378 113 q 454 83 423 83 z "},"":{"ha":905,"x_min":49,"x_max":856,"o":"m 164 995 q 200 1050 175 1025 q 256 1095 226 1076 q 318 1125 287 1114 q 373 1136 349 1136 q 438 1125 410 1136 q 488 1102 465 1115 q 530 1079 511 1089 q 572 1068 550 1068 q 635 1083 608 1068 q 684 1116 662 1099 l 745 1050 q 709 995 733 1021 q 655 949 684 968 q 595 919 625 930 q 541 907 564 907 q 475 918 504 907 q 424 942 447 929 q 379 966 400 956 q 337 977 359 977 q 307 973 322 977 q 277 961 292 968 q 249 946 262 954 q 223 928 235 937 l 164 995 m 50 380 q 86 560 52 485 q 179 684 121 635 q 311 756 236 733 q 465 781 385 780 q 628 758 556 782 q 751 687 701 734 q 829 567 802 639 q 856 401 856 495 q 822 215 856 294 q 731 85 788 137 q 601 9 675 34 q 446 -16 527 -16 q 262 15 338 -16 q 139 100 186 46 q 70 227 92 154 q 50 380 49 299 m 454 83 q 530 111 501 83 q 574 182 559 138 q 595 281 590 227 q 601 389 601 336 q 599 455 601 421 q 591 522 597 490 q 575 584 585 555 q 550 635 566 613 q 512 669 534 656 q 459 682 490 682 q 404 670 428 682 q 363 638 380 659 q 335 591 346 618 q 317 532 323 564 q 308 467 311 500 q 305 399 305 433 q 308 336 305 370 q 317 266 311 301 q 334 198 323 231 q 361 139 345 165 q 400 98 378 113 q 454 83 423 83 z "},"":{"ha":905,"x_min":49,"x_max":856,"o":"m 625 915 q 579 921 601 915 q 539 939 557 927 q 512 969 522 951 q 502 1010 502 987 q 514 1054 502 1034 q 546 1088 526 1074 q 591 1111 566 1103 q 642 1119 616 1119 q 699 1112 675 1119 q 736 1092 722 1105 q 756 1062 750 1080 q 763 1025 763 1045 q 751 979 763 1000 q 721 945 740 959 q 677 923 702 930 q 625 915 652 915 m 267 914 q 220 920 242 914 q 182 938 199 926 q 156 968 165 950 q 146 1008 146 985 q 158 1053 146 1032 q 190 1088 170 1073 q 234 1111 210 1103 q 286 1119 259 1119 q 342 1112 319 1119 q 381 1092 366 1104 q 403 1062 396 1079 q 410 1024 410 1044 q 398 979 410 999 q 367 944 387 958 q 320 922 347 930 q 267 914 294 914 m 50 380 q 86 560 52 485 q 179 684 121 635 q 311 756 236 733 q 465 781 385 780 q 628 758 556 782 q 751 687 701 734 q 829 567 802 639 q 856 401 856 495 q 822 215 856 294 q 731 85 788 137 q 601 9 675 34 q 446 -16 527 -16 q 262 15 338 -16 q 139 100 186 46 q 70 227 92 154 q 50 380 49 299 m 454 83 q 530 111 501 83 q 574 182 559 138 q 595 281 590 227 q 601 389 601 336 q 599 455 601 421 q 591 522 597 490 q 575 584 585 555 q 550 635 566 613 q 512 669 534 656 q 459 682 490 682 q 404 670 428 682 q 363 638 380 659 q 335 591 346 618 q 317 532 323 564 q 308 467 311 500 q 305 399 305 433 q 308 336 305 370 q 317 266 311 301 q 334 198 323 231 q 361 139 345 165 q 400 98 378 113 q 454 83 423 83 z "},"":{"ha":949,"x_min":124,"x_max":825,"o":"m 484 777 q 434 785 458 777 q 391 809 410 793 q 360 849 372 825 q 349 903 349 872 q 363 963 349 935 q 400 1011 378 991 q 451 1042 423 1031 q 507 1053 479 1053 q 569 1043 543 1053 q 611 1016 595 1034 q 636 976 628 999 q 644 925 644 952 q 630 863 644 890 q 593 816 616 836 q 542 787 571 797 q 484 777 513 777 m 124 650 l 825 650 l 825 490 l 124 490 l 124 650 m 349 212 q 363 273 349 245 q 400 320 377 300 q 451 352 422 340 q 507 363 479 363 q 568 353 543 363 q 611 326 594 343 q 635 285 627 309 q 643 235 643 262 q 629 173 643 200 q 593 126 615 145 q 542 96 570 106 q 483 86 513 86 q 433 95 457 86 q 390 119 409 103 q 360 158 371 135 q 349 212 349 182 z "},"":{"ha":905,"x_min":50,"x_max":856,"o":"m 291 5 q 180 62 226 25 q 105 148 134 98 q 63 256 76 197 q 50 380 50 315 q 86 560 52 485 q 179 684 121 635 q 311 756 236 733 q 465 781 385 780 q 502 781 484 781 q 538 778 520 780 l 572 889 l 646 871 l 613 763 q 716 715 671 747 q 792 639 761 684 q 840 534 823 593 q 856 401 856 474 q 822 215 856 294 q 731 85 788 137 q 601 9 675 34 q 446 -16 527 -16 q 406 -15 425 -16 q 368 -12 386 -14 l 329 -139 l 252 -121 l 291 5 m 503 673 q 482 680 493 677 q 459 682 471 682 q 404 670 428 682 q 363 638 380 659 q 335 591 346 618 q 317 532 323 564 q 308 467 311 500 q 305 399 305 433 q 307 344 305 374 q 314 283 309 314 q 327 222 319 252 q 347 166 334 192 l 503 673 m 406 94 q 454 83 428 83 q 530 111 501 83 q 574 182 559 138 q 595 281 590 227 q 601 389 601 336 q 599 448 601 418 q 593 506 597 477 q 582 562 589 535 q 564 612 575 589 l 406 94 z "},"":{"ha":903,"x_min":36,"x_max":868,"o":"m 517 907 q 430 925 477 905 q 339 977 383 945 q 255 1047 294 1008 q 191 1124 216 1086 l 363 1256 l 577 967 l 517 907 m 100 589 l 36 636 l 36 719 l 295 781 l 331 769 l 331 297 q 335 217 331 251 q 351 159 340 182 q 383 125 363 136 q 435 113 403 113 q 470 116 452 113 q 504 123 488 119 q 534 134 520 127 q 555 149 547 141 l 555 577 l 469 625 l 469 719 l 753 781 l 791 769 l 791 92 l 868 92 l 868 20 q 836 4 857 12 q 789 -8 815 -3 q 733 -16 762 -13 q 676 -19 704 -19 q 638 -15 656 -19 q 607 -2 621 -11 q 587 21 594 7 q 579 56 579 35 l 579 81 q 531 39 559 58 q 472 8 503 21 q 410 -12 441 -5 q 355 -19 380 -19 q 235 -2 284 -19 q 156 49 186 14 q 113 137 126 83 q 100 265 100 191 l 100 589 z "},"":{"ha":903,"x_min":36,"x_max":868,"o":"m 343 966 l 557 1255 l 730 1123 q 667 1051 705 1084 q 585 990 629 1017 q 493 941 541 962 q 403 906 446 920 l 343 966 m 100 589 l 36 636 l 36 719 l 295 781 l 331 769 l 331 297 q 335 217 331 251 q 351 159 340 182 q 383 125 363 136 q 435 113 403 113 q 470 116 452 113 q 504 123 488 119 q 534 134 520 127 q 555 149 547 141 l 555 577 l 469 625 l 469 719 l 753 781 l 791 769 l 791 92 l 868 92 l 868 20 q 836 4 857 12 q 789 -8 815 -3 q 733 -16 762 -13 q 676 -19 704 -19 q 638 -15 656 -19 q 607 -2 621 -11 q 587 21 594 7 q 579 56 579 35 l 579 81 q 531 39 559 58 q 472 8 503 21 q 410 -12 441 -5 q 355 -19 380 -19 q 235 -2 284 -19 q 156 49 186 14 q 113 137 126 83 q 100 265 100 191 l 100 589 z "},"":{"ha":903,"x_min":36,"x_max":868,"o":"m 167 956 l 351 1204 l 522 1204 l 710 956 l 612 906 l 436 1046 l 256 905 l 167 956 m 100 589 l 36 636 l 36 719 l 295 781 l 331 769 l 331 297 q 335 217 331 251 q 351 159 340 182 q 383 125 363 136 q 435 113 403 113 q 470 116 452 113 q 504 123 488 119 q 534 134 520 127 q 555 149 547 141 l 555 577 l 469 625 l 469 719 l 753 781 l 791 769 l 791 92 l 868 92 l 868 20 q 836 4 857 12 q 789 -8 815 -3 q 733 -16 762 -13 q 676 -19 704 -19 q 638 -15 656 -19 q 607 -2 621 -11 q 587 21 594 7 q 579 56 579 35 l 579 81 q 531 39 559 58 q 472 8 503 21 q 410 -12 441 -5 q 355 -19 380 -19 q 235 -2 284 -19 q 156 49 186 14 q 113 137 126 83 q 100 265 100 191 l 100 589 z "},"":{"ha":903,"x_min":36,"x_max":868,"o":"m 606 915 q 560 921 582 915 q 520 939 538 927 q 493 969 503 951 q 483 1010 483 987 q 495 1054 483 1034 q 527 1088 507 1074 q 572 1111 547 1103 q 623 1119 597 1119 q 680 1112 656 1119 q 717 1092 703 1105 q 738 1062 731 1080 q 744 1025 744 1045 q 732 979 744 1000 q 702 945 721 959 q 658 923 683 930 q 606 915 633 915 m 248 914 q 201 920 223 914 q 163 938 180 926 q 137 968 146 950 q 127 1008 127 985 q 139 1053 127 1032 q 171 1088 151 1073 q 215 1111 191 1103 q 267 1119 240 1119 q 323 1112 300 1119 q 362 1092 347 1104 q 384 1062 377 1079 q 391 1024 391 1044 q 379 979 391 999 q 348 944 368 958 q 301 922 328 930 q 248 914 275 914 m 100 589 l 36 636 l 36 719 l 295 781 l 331 769 l 331 297 q 335 217 331 251 q 351 159 340 182 q 383 125 363 136 q 435 113 403 113 q 470 116 452 113 q 504 123 488 119 q 534 134 520 127 q 555 149 547 141 l 555 577 l 469 625 l 469 719 l 753 781 l 791 769 l 791 92 l 868 92 l 868 20 q 836 4 857 12 q 789 -8 815 -3 q 733 -16 762 -13 q 676 -19 704 -19 q 638 -15 656 -19 q 607 -2 621 -11 q 587 21 594 7 q 579 56 579 35 l 579 81 q 531 39 559 58 q 472 8 503 21 q 410 -12 441 -5 q 355 -19 380 -19 q 235 -2 284 -19 q 156 49 186 14 q 113 137 126 83 q 100 265 100 191 l 100 589 z "},"":{"ha":836,"x_min":3,"x_max":849,"o":"m 360 966 l 574 1255 l 747 1123 q 684 1051 722 1084 q 602 990 646 1017 q 510 941 557 962 q 420 906 463 920 l 360 966 m 100 -177 q 142 -185 117 -180 q 200 -188 166 -189 q 239 -181 216 -187 q 285 -156 261 -176 q 331 -100 309 -137 q 368 0 353 -63 l 330 0 l 62 620 l 3 637 l 3 759 l 400 759 l 400 637 l 323 621 l 456 258 l 467 189 l 487 258 l 597 622 l 505 637 l 505 759 l 849 759 l 849 637 l 781 623 q 693 401 731 496 q 627 237 655 306 q 581 121 600 168 q 549 44 562 75 q 529 -6 536 13 q 516 -38 521 -25 q 456 -179 486 -117 q 389 -282 425 -240 q 309 -346 353 -324 q 208 -368 264 -368 q 177 -367 193 -368 q 146 -366 161 -367 q 118 -362 130 -364 q 98 -357 105 -361 l 100 -177 z "},"":{"ha":914,"x_min":10,"x_max":865,"o":"m 115 939 l 31 977 l 31 1072 l 317 1105 l 355 1093 l 355 738 q 433 768 389 756 q 534 781 478 781 q 656 761 597 781 q 762 697 715 741 q 837 583 808 653 q 865 410 865 512 q 834 250 865 328 q 748 113 804 172 q 613 17 692 53 q 437 -19 534 -19 q 391 -18 414 -19 q 345 -14 368 -16 l 355 -70 l 355 -233 l 500 -252 l 500 -347 l 10 -347 l 10 -252 l 116 -231 q 116 -95 116 -163 q 115 41 115 -27 l 115 939 m 355 136 q 368 118 360 127 q 389 99 376 108 q 419 85 401 91 q 461 79 437 79 q 517 93 490 79 q 568 140 545 106 q 605 234 590 174 q 623 385 620 293 q 609 509 625 457 q 566 595 593 562 q 506 646 539 629 q 441 662 473 662 q 392 658 413 662 q 355 649 371 654 l 355 136 z "},"":{"ha":836,"x_min":3,"x_max":849,"o":"m 623 915 q 577 921 599 915 q 537 939 555 927 q 510 969 520 951 q 500 1010 500 987 q 512 1054 500 1034 q 544 1088 524 1074 q 589 1111 564 1103 q 640 1119 614 1119 q 696 1112 673 1119 q 734 1092 720 1105 q 754 1062 748 1080 q 761 1025 761 1045 q 749 979 761 1000 q 719 945 738 959 q 675 923 700 930 q 623 915 650 915 m 264 914 q 218 920 240 914 q 180 938 197 926 q 154 968 163 950 q 144 1008 144 985 q 156 1053 144 1032 q 188 1088 168 1073 q 232 1111 208 1103 q 283 1119 257 1119 q 340 1112 317 1119 q 379 1092 363 1104 q 401 1062 394 1079 q 408 1024 408 1044 q 396 979 408 999 q 365 944 385 958 q 318 922 345 930 q 264 914 292 914 m 100 -177 q 142 -185 117 -180 q 200 -188 166 -189 q 239 -181 216 -187 q 285 -156 261 -176 q 331 -100 309 -137 q 368 0 353 -63 l 330 0 l 62 620 l 3 637 l 3 759 l 400 759 l 400 637 l 323 621 l 456 258 l 467 189 l 487 258 l 597 622 l 505 637 l 505 759 l 849 759 l 849 637 l 781 623 q 693 401 731 496 q 627 237 655 306 q 581 121 600 168 q 549 44 562 75 q 529 -6 536 13 q 516 -38 521 -25 q 456 -179 486 -117 q 389 -282 425 -240 q 309 -346 353 -324 q 208 -368 264 -368 q 177 -367 193 -368 q 146 -366 161 -367 q 118 -362 130 -364 q 98 -357 105 -361 l 100 -177 z "},"":{"ha":1085,"x_min":3,"x_max":1082,"o":"m 3 95 l 94 122 l 428 1053 l 654 1053 l 979 121 l 1082 94 l 1082 0 l 920 0 q 849 -30 882 -13 q 790 -66 815 -47 q 748 -102 764 -84 q 726 -132 731 -119 q 720 -169 718 -155 q 729 -190 722 -183 q 747 -200 736 -197 q 770 -202 758 -202 q 810 -200 789 -203 q 852 -191 831 -197 q 893 -179 873 -186 q 931 -165 913 -172 l 955 -256 q 812 -327 888 -304 q 647 -349 736 -349 q 581 -338 608 -349 q 537 -313 554 -328 q 512 -277 520 -297 q 503 -238 504 -258 q 517 -182 501 -214 q 566 -117 534 -150 q 646 -53 598 -83 q 755 0 693 -22 l 618 0 l 618 94 l 709 124 l 680 227 l 313 227 l 282 127 l 383 95 l 383 0 l 3 0 l 3 95 m 643 353 l 553 664 l 503 850 l 351 353 l 643 353 z "},"":{"ha":831,"x_min":35,"x_max":820,"o":"m 48 267 q 85 338 58 307 q 150 392 112 369 q 233 431 188 415 q 325 457 279 447 q 414 472 371 467 q 491 476 457 476 q 481 564 491 530 q 453 617 472 598 q 408 644 435 637 q 347 651 381 651 q 265 644 302 651 q 198 627 227 637 q 149 608 168 618 q 122 593 130 598 l 76 697 q 115 720 87 706 q 186 748 142 734 q 289 771 230 762 q 419 781 347 781 q 545 768 488 781 q 644 724 602 755 q 708 638 685 692 q 731 502 731 585 l 731 92 l 820 92 l 820 20 q 794 5 808 12 q 742 -32 768 -12 q 696 -72 716 -51 q 666 -117 677 -94 q 658 -168 654 -141 q 673 -198 660 -188 q 708 -213 687 -209 q 758 -214 730 -216 q 816 -206 785 -212 l 816 -306 q 755 -336 790 -325 q 683 -350 720 -347 q 608 -348 645 -353 q 541 -329 571 -343 q 491 -291 511 -315 q 469 -234 471 -268 q 478 -160 465 -193 q 512 -100 490 -127 q 559 -52 533 -73 q 610 -16 586 -31 q 581 -8 595 -14 q 553 5 566 -3 q 531 27 540 14 q 522 58 523 40 q 439 3 487 25 q 326 -19 391 -19 q 177 5 237 -19 q 85 69 118 29 q 43 160 52 109 q 48 267 35 212 m 283 227 q 320 132 283 161 q 429 113 357 103 q 463 123 448 116 q 490 140 477 130 q 491 256 490 198 q 491 372 491 314 q 446 370 470 372 q 399 361 422 368 q 355 345 376 355 q 318 318 334 334 q 292 279 302 302 q 283 227 283 257 z "},"":{"ha":967,"x_min":68,"x_max":934,"o":"m 68 95 l 168 121 l 168 927 l 72 942 l 72 1053 l 842 1053 l 863 821 l 724 821 l 660 930 l 409 944 l 409 592 l 583 599 l 619 700 l 742 700 l 742 369 l 619 369 l 583 477 l 409 481 l 409 109 l 707 127 l 793 262 l 934 237 l 897 0 l 870 0 q 799 -30 832 -13 q 740 -66 765 -47 q 697 -102 714 -84 q 676 -132 681 -119 q 670 -169 668 -155 q 679 -190 671 -183 q 697 -200 686 -197 q 720 -202 708 -202 q 760 -200 739 -203 q 802 -191 781 -197 q 843 -179 823 -186 q 881 -165 863 -172 l 905 -256 q 762 -327 838 -304 q 597 -349 686 -349 q 531 -338 557 -349 q 487 -313 504 -328 q 462 -277 470 -297 q 452 -238 454 -258 q 467 -182 451 -214 q 516 -117 484 -150 q 595 -53 548 -83 q 705 0 643 -22 l 68 0 l 68 95 z "},"":{"ha":840,"x_min":50,"x_max":795,"o":"m 50 360 q 78 524 50 447 q 160 657 106 600 q 291 747 214 714 q 466 781 368 781 q 607 760 548 781 q 704 701 666 739 q 761 611 742 663 q 782 497 780 559 q 780 421 783 454 q 772 359 777 388 l 300 359 q 362 178 309 239 q 515 117 414 117 q 620 128 564 117 q 731 163 676 138 l 767 78 q 766 77 766 77 l 767 77 q 693 18 725 48 q 641 -42 662 -13 q 608 -98 619 -71 q 597 -147 597 -125 q 617 -186 597 -172 q 666 -208 636 -201 q 730 -214 695 -215 q 795 -206 765 -214 l 795 -299 q 754 -320 779 -311 q 700 -336 729 -330 q 639 -346 671 -343 q 576 -347 607 -349 q 517 -338 545 -345 q 469 -317 490 -331 q 435 -282 448 -303 q 423 -231 423 -260 q 435 -160 423 -192 q 467 -100 447 -127 q 515 -50 488 -73 q 572 -6 542 -26 q 504 -16 539 -13 q 434 -19 469 -20 q 270 9 342 -17 q 150 83 199 35 q 75 201 100 132 q 50 360 50 271 m 549 469 q 553 523 551 494 q 552 579 555 551 q 541 630 550 606 q 511 668 531 654 q 482 681 498 677 q 444 686 466 686 q 378 666 405 686 q 335 616 352 647 q 311 547 319 585 q 300 469 303 508 l 549 469 z "},"":{"ha":966,"x_min":30,"x_max":933,"o":"m 41 92 l 138 111 l 138 791 l 30 791 l 30 878 l 138 878 l 138 939 l 46 977 l 46 1072 l 338 1105 l 378 1093 l 378 878 l 502 878 l 502 791 l 378 791 l 378 760 l 363 690 q 428 736 395 718 q 494 763 461 753 q 558 777 527 773 q 615 781 589 781 q 733 756 688 781 q 802 685 778 731 q 834 573 827 639 q 841 425 842 507 l 841 111 l 933 92 l 933 0 l 503 1 l 503 92 l 601 111 l 601 392 q 598 488 601 444 q 583 564 595 532 q 545 614 570 596 q 475 632 520 632 q 422 625 447 632 q 378 601 398 618 l 378 110 l 444 92 l 444 0 l 41 0 l 41 92 z "},"":{"ha":575,"x_min":-7,"x_max":574,"o":"m -7 1161 q 30 1217 4 1191 q 85 1261 55 1242 q 147 1291 116 1280 q 202 1302 178 1302 q 267 1292 239 1302 q 317 1268 294 1281 q 359 1245 340 1255 q 401 1234 379 1234 q 464 1249 437 1234 q 513 1282 491 1263 l 574 1217 q 538 1163 562 1187 q 484 1122 513 1139 q 424 1096 454 1105 q 370 1087 393 1087 q 304 1098 333 1087 q 253 1122 276 1109 q 209 1146 229 1135 q 166 1157 188 1157 q 106 1142 136 1157 q 52 1108 76 1128 l -7 1161 m 37 95 l 165 123 l 165 926 l 37 942 l 37 1053 l 530 1053 l 530 942 l 410 925 l 410 124 l 538 95 l 538 0 l 37 0 l 37 95 z "},"":{"ha":507,"x_min":-26,"x_max":554,"o":"m -26 995 q 10 1050 -16 1025 q 66 1095 35 1076 q 127 1125 96 1114 q 182 1136 159 1136 q 247 1125 220 1136 q 297 1102 275 1115 q 340 1079 320 1089 q 381 1068 359 1068 q 444 1083 417 1068 q 494 1116 471 1099 l 554 1050 q 518 995 543 1021 q 464 949 494 968 q 404 919 435 930 q 350 907 374 907 q 285 918 313 907 q 233 942 256 929 q 189 966 210 956 q 146 977 168 977 q 116 973 132 977 q 86 961 101 968 q 58 946 72 954 q 33 928 45 937 l -26 995 m 54 92 l 145 111 l 145 533 l 58 631 l 58 694 l 327 785 l 385 768 l 385 110 l 480 92 l 480 0 l 54 0 l 54 92 z "},"":{"ha":507,"x_min":54,"x_max":480,"o":"m 54 92 l 145 111 l 145 533 l 58 631 l 58 694 l 327 785 l 385 768 l 385 110 l 480 92 l 480 0 l 54 0 l 54 92 z "},"":{"ha":1109,"x_min":37,"x_max":1074,"o":"m 499 -200 q 563 -172 532 -187 q 618 -136 593 -156 q 664 -90 644 -115 q 699 -32 684 -64 q 716 30 709 -2 q 726 100 722 62 q 731 180 730 137 q 732 275 732 223 l 732 927 l 632 942 l 632 1053 l 1074 1053 l 1074 942 l 977 926 l 977 362 q 975 242 977 302 q 967 131 972 183 q 955 38 962 79 q 937 -28 947 -3 q 892 -102 919 -68 q 831 -161 865 -135 q 761 -208 798 -188 q 686 -240 724 -227 q 613 -261 649 -254 q 547 -269 577 -268 l 499 -200 m 37 95 l 165 123 l 165 926 l 37 942 l 37 1053 l 530 1053 l 530 942 l 410 925 l 410 124 l 538 95 l 538 0 l 37 0 l 37 95 z "},"":{"ha":971,"x_min":54,"x_max":890,"o":"m 724 899 q 672 907 697 899 q 628 932 647 916 q 596 972 608 949 q 585 1026 585 996 q 599 1086 585 1059 q 637 1135 614 1114 q 691 1166 661 1155 q 750 1178 720 1178 q 813 1168 787 1178 q 856 1140 839 1158 q 882 1099 873 1122 q 890 1050 890 1076 q 876 987 890 1015 q 838 940 861 960 q 785 909 815 920 q 724 899 755 899 m 243 899 q 192 907 217 899 q 147 932 166 916 q 116 972 127 949 q 104 1026 104 996 q 119 1086 104 1059 q 157 1135 134 1114 q 211 1166 181 1155 q 270 1178 240 1178 q 333 1168 307 1178 q 376 1140 359 1158 q 401 1099 393 1122 q 409 1050 409 1076 q 395 987 409 1015 q 358 940 381 960 q 304 909 334 920 q 243 899 275 899 m 480 -216 q 497 -219 486 -218 q 521 -221 509 -220 q 545 -223 533 -222 q 562 -223 556 -223 q 603 -210 588 -223 q 626 -169 618 -196 q 635 -100 633 -142 q 637 -4 637 -59 l 637 533 l 563 633 l 563 692 l 823 781 l 878 762 l 878 -33 q 860 -174 878 -112 q 809 -279 842 -237 q 728 -345 776 -322 q 621 -368 680 -368 q 573 -365 597 -368 q 530 -357 549 -361 q 496 -349 510 -353 q 480 -343 483 -345 l 480 -216 m 54 92 l 145 111 l 145 533 l 58 631 l 58 694 l 327 781 l 385 764 l 385 110 l 482 92 l 482 0 l 54 0 l 54 92 z "},"":{"ha":532,"x_min":-79,"x_max":538,"o":"m 12 1133 l 198 1302 l 355 1302 l 538 1133 l 463 1083 l 278 1171 l 87 1083 l 12 1133 m 120 -32 q 137 30 131 -2 q 148 100 144 62 q 153 180 151 137 q 154 275 154 223 l 154 927 l 54 942 l 54 1053 l 496 1053 l 496 942 l 399 926 l 399 362 q 396 242 399 302 q 389 131 394 183 q 376 38 384 79 q 358 -28 368 -3 q 313 -102 340 -68 q 253 -161 286 -135 q 182 -208 220 -188 q 108 -240 145 -227 q 35 -261 71 -254 q -32 -269 -1 -268 l -79 -200 q -16 -172 -46 -187 q 40 -136 14 -156 q 85 -90 65 -115 q 120 -32 106 -64 z "},"":{"ha":464,"x_min":-27,"x_max":519,"o":"m -24 996 l 160 1244 l 332 1244 l 519 996 l 421 946 l 245 1086 l 65 945 l -24 996 m 130 533 l 56 633 l 56 692 l 315 781 l 370 762 l 370 -11 q 351 -153 370 -90 q 296 -259 332 -216 q 212 -326 261 -303 q 102 -349 162 -349 q 75 -349 95 -349 q 33 -347 55 -348 q -6 -343 12 -345 q -27 -339 -24 -341 l -27 -186 q -8 -189 -21 -188 q 18 -192 4 -191 q 46 -193 33 -193 q 65 -193 59 -193 q 100 -182 87 -193 q 120 -149 113 -172 q 129 -89 127 -125 q 130 -1 130 -53 l 130 533 z "},"":{"ha":1038,"x_min":29,"x_max":1048,"o":"m 31 95 l 159 124 l 159 925 l 29 942 l 29 1053 l 520 1053 l 520 942 l 399 925 l 399 541 l 711 926 l 604 942 l 602 1053 l 1021 1053 l 1021 942 l 895 924 l 602 603 q 649 554 625 583 q 697 489 673 524 q 747 415 722 454 q 797 338 772 376 q 844 263 821 299 q 888 198 867 228 q 927 148 909 169 q 960 120 945 127 l 1048 95 l 1048 0 l 761 0 q 730 17 746 0 q 697 61 714 33 q 663 125 680 89 q 628 201 646 161 q 591 281 610 241 q 553 356 572 321 q 515 420 534 392 q 477 464 496 448 l 399 378 l 399 123 l 536 95 l 536 0 l 31 0 l 31 95 m 500 -27 q 568 -40 535 -27 q 625 -78 600 -53 q 664 -138 649 -102 q 678 -218 678 -173 q 669 -273 678 -247 q 646 -322 661 -299 q 613 -363 631 -345 q 575 -397 594 -382 q 538 -420 556 -411 q 506 -434 519 -430 l 419 -399 l 419 -385 q 438 -367 427 -376 q 460 -345 450 -357 q 477 -317 470 -333 q 484 -281 484 -302 q 477 -246 484 -262 q 459 -217 471 -230 q 432 -197 448 -205 q 399 -190 416 -190 l 399 -138 l 500 -27 z "},"":{"ha":921,"x_min":28,"x_max":899,"o":"m 47 92 l 138 113 l 138 917 l 28 965 l 28 1061 l 336 1106 l 378 1087 l 378 482 l 369 387 l 590 623 l 466 637 l 466 759 l 899 759 l 899 637 l 762 625 l 597 469 l 829 107 l 899 94 l 899 0 l 498 0 l 498 94 l 554 112 l 440 326 l 371 246 l 377 190 l 377 110 l 456 92 l 456 0 l 47 0 l 47 92 m 421 -27 q 489 -40 456 -27 q 546 -78 522 -53 q 585 -138 570 -102 q 600 -218 600 -173 q 591 -273 600 -247 q 567 -322 582 -299 q 534 -363 553 -345 q 496 -397 515 -382 q 459 -420 477 -411 q 427 -434 441 -430 l 340 -399 l 340 -385 q 360 -367 349 -376 q 381 -345 371 -357 q 398 -317 391 -333 q 406 -281 406 -302 q 399 -246 406 -262 q 380 -217 392 -230 q 353 -197 369 -205 q 321 -190 338 -190 l 321 -138 l 421 -27 z "},"":{"ha":921,"x_min":45,"x_max":899,"o":"m 47 92 l 138 113 l 138 555 l 45 620 l 45 706 l 297 781 l 378 759 l 378 480 l 369 387 l 590 623 l 466 637 l 466 759 l 899 759 l 899 637 l 762 625 l 597 469 l 829 107 l 899 94 l 899 0 l 498 0 l 498 94 l 554 112 l 440 326 l 371 246 l 377 190 l 377 110 l 456 92 l 456 0 l 47 0 l 47 92 z "},"":{"ha":968,"x_min":63,"x_max":977,"o":"m 63 95 l 159 121 l 159 913 l 66 928 l 66 1053 l 526 1053 l 526 928 l 403 913 l 403 111 l 647 137 l 760 298 l 863 260 l 817 0 l 63 0 l 63 95 m 675 561 q 690 622 675 593 q 729 670 705 650 q 781 703 752 691 q 837 715 809 715 q 899 704 873 715 q 943 676 926 694 q 969 634 960 659 q 977 583 977 610 q 963 521 977 549 q 925 474 949 494 q 872 445 902 455 q 813 435 843 435 q 763 443 787 435 q 719 468 738 452 q 687 507 699 484 q 675 561 675 530 z "},"":{"ha":777,"x_min":34,"x_max":778,"o":"m 45 92 l 125 109 l 125 939 l 34 977 l 34 1072 l 326 1105 l 366 1093 l 366 113 l 484 92 l 484 0 l 45 0 l 45 92 m 476 535 q 491 596 476 568 q 529 645 506 624 q 581 677 553 665 q 637 689 610 689 q 700 679 673 689 q 744 650 726 668 q 769 609 761 633 q 778 557 778 585 q 764 495 778 523 q 726 449 749 468 q 673 419 703 429 q 614 409 644 409 q 563 417 588 409 q 519 442 538 426 q 488 481 500 458 q 476 535 476 505 z "},"":{"ha":873,"x_min":45,"x_max":863,"o":"m 63 95 l 159 121 l 159 367 l 45 321 q 46 403 46 367 l 46 486 q 54 489 46 486 q 77 499 62 493 q 113 515 92 506 q 159 535 134 524 l 159 913 l 66 928 l 66 1053 l 526 1053 l 526 928 l 403 913 l 403 640 q 508 686 458 664 q 597 724 558 707 q 683 761 643 744 l 683 576 l 403 464 l 403 111 l 647 137 l 760 298 l 863 260 l 817 0 l 63 0 l 63 95 z "},"":{"ha":498,"x_min":36,"x_max":500,"o":"m 47 92 l 127 109 l 127 438 l 49 411 l 49 579 l 127 608 l 127 939 l 36 977 l 36 1072 l 328 1105 l 368 1093 l 368 696 l 500 745 l 500 566 l 368 521 l 368 113 l 486 92 l 486 0 l 47 0 l 47 92 z "},"":{"ha":1143,"x_min":43,"x_max":1107,"o":"m 484 1153 l 750 1302 l 881 1172 q 832 1145 862 1158 q 768 1122 802 1133 q 699 1104 734 1112 q 634 1090 664 1096 q 582 1082 604 1085 q 552 1080 559 1080 l 484 1153 m 43 95 l 149 125 l 149 913 l 47 928 l 47 1053 l 393 1053 l 801 342 l 861 182 l 861 910 l 739 929 l 739 1053 l 1107 1053 l 1107 929 l 1015 914 l 1015 0 l 749 0 l 379 622 l 305 805 q 306 466 305 635 q 306 128 306 296 l 444 95 l 444 0 l 43 0 l 43 95 z "},"":{"ha":994,"x_min":58,"x_max":963,"o":"m 426 966 l 640 1255 l 812 1123 q 750 1051 788 1084 q 668 990 712 1017 q 576 941 623 962 q 486 906 529 920 l 426 966 m 66 92 l 151 109 l 151 555 l 58 621 l 58 706 l 310 781 l 361 768 l 361 667 q 420 714 387 693 q 491 750 454 735 q 567 772 528 764 q 645 781 606 781 q 753 760 710 781 q 821 700 795 739 q 857 604 846 661 q 867 475 867 547 l 867 110 l 963 92 l 963 0 l 530 0 l 530 92 l 627 111 l 627 444 q 622 533 627 498 q 603 588 617 568 q 563 616 589 608 q 494 624 536 624 q 474 622 488 624 q 444 615 460 619 q 414 605 429 611 q 391 593 399 600 l 391 111 l 474 92 l 474 0 l 66 0 l 66 92 z "},"":{"ha":1507,"x_min":43,"x_max":1477,"o":"m 45 511 q 67 671 47 597 q 123 806 88 745 q 206 915 158 867 q 310 996 254 963 q 428 1046 366 1029 q 555 1063 490 1063 q 607 1060 581 1063 q 657 1053 633 1058 l 1373 1053 l 1394 821 l 1275 821 l 1211 930 l 960 944 l 960 587 l 1137 593 l 1167 692 l 1276 692 l 1276 361 l 1167 361 l 1137 469 l 960 473 l 960 109 l 1270 127 l 1356 262 l 1477 237 l 1440 0 l 680 0 q 612 -14 646 -9 q 541 -19 577 -19 q 332 22 425 -19 q 175 134 239 62 q 77 302 111 205 q 45 511 43 399 m 549 90 q 652 113 611 90 q 720 184 693 136 l 720 818 q 689 871 706 847 q 650 913 671 896 q 604 941 629 931 q 549 951 578 951 q 436 922 481 951 q 362 838 390 893 q 323 700 335 782 q 311 512 311 618 q 317 425 311 472 q 334 332 322 378 q 365 241 346 285 q 410 164 384 197 q 471 110 437 130 q 549 90 506 90 z "},"":{"ha":1470,"x_min":49,"x_max":1421,"o":"m 50 380 q 86 560 52 485 q 179 684 121 635 q 311 756 236 733 q 465 781 385 780 q 656 748 574 783 q 787 645 737 714 q 921 744 841 708 q 1104 781 1001 781 q 1245 760 1186 781 q 1342 701 1304 739 q 1399 611 1380 663 q 1420 497 1418 559 q 1418 421 1421 454 q 1411 359 1415 388 l 938 359 q 1000 178 947 239 q 1153 117 1053 117 q 1258 128 1202 117 q 1369 163 1314 138 l 1405 78 q 1342 38 1379 56 q 1262 7 1305 20 q 1170 -13 1219 -6 q 1072 -19 1122 -20 q 887 17 965 -17 q 760 114 808 50 q 695 56 731 81 q 620 16 660 32 q 535 -8 579 0 q 446 -16 492 -16 q 262 15 338 -16 q 139 100 186 46 q 70 227 92 154 q 50 380 49 299 m 1187 469 q 1191 523 1189 494 q 1191 579 1193 551 q 1179 630 1188 606 q 1149 668 1169 654 q 1120 681 1137 677 q 1082 686 1104 686 q 1017 666 1043 686 q 974 616 990 647 q 949 547 957 585 q 939 469 941 508 l 1187 469 m 454 83 q 530 111 501 83 q 574 182 559 138 q 595 281 590 227 q 601 389 601 336 q 599 455 601 421 q 591 522 597 490 q 575 584 585 555 q 550 635 566 613 q 512 669 534 656 q 459 682 490 682 q 404 670 428 682 q 363 638 380 659 q 335 591 346 618 q 317 532 323 564 q 308 467 311 500 q 305 399 305 433 q 308 336 305 370 q 317 266 311 301 q 334 198 323 231 q 361 139 345 165 q 400 98 378 113 q 454 83 423 83 z "},"":{"ha":1034,"x_min":41,"x_max":1048,"o":"m 394 1153 l 661 1302 l 791 1172 q 743 1145 772 1158 q 679 1122 713 1133 q 610 1104 645 1112 q 544 1090 574 1096 q 492 1082 514 1085 q 463 1080 470 1080 l 394 1153 m 41 95 l 159 124 l 159 920 l 54 936 l 54 1053 l 207 1053 q 384 1058 304 1053 q 515 1063 463 1063 q 677 1048 602 1063 q 807 1000 752 1033 q 893 914 862 966 q 925 787 925 862 q 869 588 925 667 q 696 469 814 509 q 748 425 724 454 q 795 361 773 396 q 839 288 818 326 q 879 217 859 250 q 919 157 899 183 q 960 120 939 131 l 1048 95 l 1048 0 l 761 0 q 728 19 744 0 q 696 68 712 37 q 664 138 680 99 q 631 219 648 178 q 598 299 615 260 q 562 369 581 338 q 523 418 543 399 q 481 437 503 437 q 439 437 460 437 q 399 437 418 437 l 399 121 l 529 95 l 529 0 l 41 0 l 41 95 m 399 549 q 433 545 415 546 q 470 543 451 543 q 507 544 488 543 q 541 547 525 545 q 591 560 564 550 q 640 594 618 570 q 677 659 663 618 q 692 762 692 699 q 682 829 692 795 q 647 890 671 863 q 582 935 622 918 q 481 951 541 951 q 460 951 472 951 q 437 950 448 951 q 415 948 425 949 q 399 943 406 946 l 399 549 z "},"":{"ha":1034,"x_min":41,"x_max":1048,"o":"m 41 95 l 159 124 l 159 920 l 54 936 l 54 1053 l 207 1053 q 384 1058 304 1053 q 515 1063 463 1063 q 677 1048 602 1063 q 807 1000 752 1033 q 893 914 862 966 q 925 787 925 862 q 869 588 925 667 q 696 469 814 509 q 748 425 724 454 q 795 361 773 396 q 839 288 818 326 q 879 217 859 250 q 919 157 899 183 q 960 120 939 131 l 1048 95 l 1048 0 l 761 0 q 728 19 744 0 q 696 68 712 37 q 664 138 680 99 q 631 219 648 178 q 598 299 615 260 q 562 369 581 338 q 523 418 543 399 q 481 437 503 437 q 439 437 460 437 q 399 437 418 437 l 399 121 l 529 95 l 529 0 l 41 0 l 41 95 m 399 549 q 433 545 415 546 q 470 543 451 543 q 507 544 488 543 q 541 547 525 545 q 591 560 564 550 q 640 594 618 570 q 677 659 663 618 q 692 762 692 699 q 682 829 692 795 q 647 890 671 863 q 582 935 622 918 q 481 951 541 951 q 460 951 472 951 q 437 950 448 951 q 415 948 425 949 q 399 943 406 946 l 399 549 m 566 -27 q 633 -40 601 -27 q 690 -78 666 -53 q 729 -138 715 -102 q 744 -218 744 -173 q 735 -273 744 -247 q 712 -322 726 -299 q 679 -363 697 -345 q 641 -397 660 -382 q 604 -420 622 -411 q 572 -434 585 -430 l 485 -399 l 485 -385 q 504 -367 493 -376 q 526 -345 515 -357 q 543 -317 536 -333 q 550 -281 550 -302 q 543 -246 550 -262 q 525 -217 536 -230 q 498 -197 513 -205 q 465 -190 482 -190 l 465 -138 l 566 -27 z "},"":{"ha":655,"x_min":58,"x_max":627,"o":"m 66 92 l 150 109 l 150 555 l 58 621 l 58 706 l 309 781 l 358 768 l 358 635 q 391 696 367 669 q 444 742 414 724 q 503 771 473 761 q 553 781 532 781 q 597 779 577 781 q 627 772 618 777 l 627 558 q 604 572 618 566 q 572 583 589 578 q 539 589 555 587 q 511 591 522 591 q 460 587 482 591 q 424 579 439 584 q 401 571 410 575 q 390 565 393 567 l 390 115 l 548 92 l 548 0 l 66 0 l 66 92 m 257 -27 q 325 -40 292 -27 q 382 -78 357 -53 q 421 -138 406 -102 q 435 -218 435 -173 q 427 -273 435 -247 q 403 -322 418 -299 q 370 -363 389 -345 q 332 -397 351 -382 q 295 -420 313 -411 q 263 -434 277 -430 l 176 -399 l 176 -385 q 196 -367 184 -376 q 217 -345 207 -357 q 234 -317 227 -333 q 241 -281 241 -302 q 235 -246 241 -262 q 216 -217 228 -230 q 189 -197 205 -205 q 157 -190 174 -190 l 157 -138 l 257 -27 z "},"":{"ha":1034,"x_min":41,"x_max":1048,"o":"m 227 1253 l 302 1302 l 494 1215 l 692 1302 l 767 1253 l 574 1083 l 416 1083 l 227 1253 m 41 95 l 159 124 l 159 920 l 54 936 l 54 1053 l 207 1053 q 384 1058 304 1053 q 515 1063 463 1063 q 677 1048 602 1063 q 807 1000 752 1033 q 893 914 862 966 q 925 787 925 862 q 869 588 925 667 q 696 469 814 509 q 748 425 724 454 q 795 361 773 396 q 839 288 818 326 q 879 217 859 250 q 919 157 899 183 q 960 120 939 131 l 1048 95 l 1048 0 l 761 0 q 728 19 744 0 q 696 68 712 37 q 664 138 680 99 q 631 219 648 178 q 598 299 615 260 q 562 369 581 338 q 523 418 543 399 q 481 437 503 437 q 439 437 460 437 q 399 437 418 437 l 399 121 l 529 95 l 529 0 l 41 0 l 41 95 m 399 549 q 433 545 415 546 q 470 543 451 543 q 507 544 488 543 q 541 547 525 545 q 591 560 564 550 q 640 594 618 570 q 677 659 663 618 q 692 762 692 699 q 682 829 692 795 q 647 890 671 863 q 582 935 622 918 q 481 951 541 951 q 460 951 472 951 q 437 950 448 951 q 415 948 425 949 q 399 943 406 946 l 399 549 z "},"":{"ha":655,"x_min":-1,"x_max":627,"o":"m -1 1154 l 87 1204 l 268 1063 l 444 1203 l 542 1153 l 354 905 l 182 905 l -1 1154 m 66 92 l 150 109 l 150 555 l 58 621 l 58 706 l 309 781 l 358 768 l 358 635 q 391 696 367 669 q 444 742 414 724 q 503 771 473 761 q 553 781 532 781 q 597 779 577 781 q 627 772 618 777 l 627 558 q 604 572 618 566 q 572 583 589 578 q 539 589 555 587 q 511 591 522 591 q 460 587 482 591 q 424 579 439 584 q 401 571 410 575 q 390 565 393 567 l 390 115 l 548 92 l 548 0 l 66 0 l 66 92 z "},"":{"ha":886,"x_min":85,"x_max":848,"o":"m 170 1253 l 245 1302 l 437 1215 l 635 1302 l 710 1253 l 517 1083 l 359 1083 l 170 1253 m 90 318 l 191 318 l 254 155 q 295 117 273 131 q 341 96 317 103 q 393 87 366 89 q 446 85 419 85 q 500 93 472 85 q 552 117 529 100 q 591 163 576 134 q 606 236 606 192 q 585 299 606 271 q 530 353 564 328 q 451 403 495 379 q 359 452 406 427 q 259 511 309 479 q 172 580 210 542 q 109 666 133 618 q 85 774 85 713 q 117 898 85 844 q 199 988 148 951 q 315 1044 250 1025 q 450 1063 380 1063 q 559 1058 505 1063 q 659 1045 614 1053 q 735 1029 704 1038 q 778 1014 767 1021 l 778 789 l 667 789 l 603 932 q 587 941 600 936 q 556 952 574 947 q 516 960 538 957 q 473 964 494 964 q 418 958 446 964 q 367 940 390 953 q 330 906 345 928 q 315 852 315 885 q 331 783 315 814 q 374 726 347 752 q 437 676 401 699 q 513 631 473 653 q 590 589 551 610 q 667 544 630 568 q 738 495 705 521 q 795 437 770 469 q 833 368 819 406 q 848 286 848 331 q 820 165 848 220 q 740 68 792 109 q 613 4 688 28 q 444 -19 538 -19 q 345 -14 397 -19 q 245 -1 294 -9 q 156 18 197 7 q 90 43 115 30 l 90 318 z "},"":{"ha":743,"x_min":54,"x_max":702,"o":"m 114 1154 l 203 1204 l 383 1063 l 559 1203 l 657 1153 l 469 905 l 298 905 l 114 1154 m 67 223 l 179 223 l 222 149 q 241 128 230 140 q 269 105 253 116 q 304 85 284 94 q 349 75 324 77 q 442 96 410 72 q 473 160 473 119 q 457 195 472 178 q 418 228 443 212 q 362 259 394 243 q 296 290 331 274 q 204 337 248 312 q 127 395 160 363 q 74 469 94 428 q 55 563 54 510 q 71 635 56 604 q 112 690 86 667 q 170 731 137 714 q 239 759 203 748 q 311 774 275 769 q 380 781 347 780 q 458 778 418 781 q 533 769 497 775 q 598 756 568 764 q 650 741 629 749 l 650 556 l 530 556 l 492 640 q 449 677 475 661 q 392 694 422 694 q 355 690 373 694 q 323 679 337 687 q 301 660 309 671 q 292 631 292 648 q 301 590 292 609 q 327 554 311 571 q 366 524 343 538 q 416 497 389 509 q 482 467 448 482 q 547 435 515 452 q 607 399 579 418 q 656 354 635 379 q 690 298 677 329 q 702 228 702 267 q 673 114 702 161 q 594 39 644 68 q 479 -3 545 9 q 340 -16 413 -16 q 271 -13 307 -16 q 198 -2 235 -9 q 128 17 162 5 q 67 45 94 28 l 67 223 z "},"":{"ha":997,"x_min":5,"x_max":991,"o":"m 694 1098 q 649 1104 671 1098 q 609 1122 627 1110 q 582 1152 592 1135 q 572 1193 572 1170 q 584 1237 572 1217 q 616 1271 596 1257 q 661 1294 636 1286 q 712 1302 686 1302 q 768 1295 745 1302 q 806 1275 791 1288 q 826 1245 820 1263 q 833 1208 833 1228 q 821 1162 833 1183 q 791 1128 810 1142 q 747 1106 772 1114 q 694 1098 722 1098 m 323 1097 q 277 1103 298 1097 q 238 1121 255 1109 q 212 1151 222 1133 q 203 1191 203 1168 q 215 1236 203 1215 q 246 1271 227 1256 q 291 1294 266 1286 q 342 1302 315 1302 q 398 1295 375 1302 q 437 1275 422 1287 q 459 1245 452 1262 q 467 1207 467 1227 q 455 1162 467 1182 q 423 1127 443 1141 q 377 1105 403 1113 q 323 1097 351 1097 m 233 95 l 396 125 l 396 347 l 80 929 l 5 942 l 5 1053 l 433 1053 l 433 944 l 361 930 l 532 570 l 551 507 l 574 576 l 718 925 l 610 942 q 610 998 610 970 q 610 1053 610 1025 l 991 1053 l 991 942 l 902 917 l 637 368 l 637 127 l 820 95 l 820 0 l 233 0 l 233 95 z "},"":{"ha":935,"x_min":32,"x_max":928,"o":"m 373 1153 l 640 1302 l 770 1172 q 722 1145 751 1158 q 658 1122 692 1133 q 589 1104 624 1112 q 523 1090 553 1096 q 471 1082 493 1085 q 441 1080 449 1080 l 373 1153 m 32 94 l 533 821 l 646 945 l 256 913 l 170 747 l 66 767 l 95 1053 l 875 1053 l 906 949 l 413 224 l 315 111 l 692 142 l 827 323 l 928 296 l 854 0 l 60 0 l 32 94 z "},"":{"ha":935,"x_min":32,"x_max":928,"o":"m 463 1098 q 417 1104 439 1098 q 377 1122 395 1110 q 350 1152 360 1135 q 340 1193 340 1170 q 352 1237 340 1217 q 384 1271 364 1257 q 429 1294 404 1286 q 480 1302 454 1302 q 536 1295 513 1302 q 574 1275 559 1288 q 594 1245 588 1263 q 601 1208 601 1228 q 589 1162 601 1183 q 559 1128 578 1142 q 515 1106 540 1114 q 463 1098 490 1098 m 32 94 l 533 821 l 646 945 l 256 913 l 170 747 l 66 767 l 95 1053 l 875 1053 l 906 949 l 413 224 l 315 111 l 692 142 l 827 323 l 928 296 l 854 0 l 60 0 l 32 94 z "},"":{"ha":781,"x_min":35,"x_max":755,"o":"m 388 901 q 342 907 363 901 q 303 925 320 913 q 277 954 287 937 q 268 994 268 972 q 280 1039 268 1019 q 311 1074 292 1059 q 356 1097 331 1089 q 407 1105 380 1105 q 464 1098 440 1105 q 502 1078 487 1090 q 525 1048 517 1065 q 532 1010 532 1031 q 520 965 532 985 q 488 930 508 945 q 442 908 468 916 q 388 901 416 901 m 35 68 l 113 193 l 410 595 l 467 656 l 233 643 l 189 506 l 65 506 l 65 759 l 714 759 l 749 675 l 426 205 l 342 102 l 589 126 l 629 243 l 755 243 l 744 0 l 66 0 l 35 68 z "},"":{"ha":935,"x_min":32,"x_max":928,"o":"m 205 1253 l 281 1302 l 473 1215 l 671 1302 l 746 1253 l 553 1083 l 395 1083 l 205 1253 m 32 94 l 533 821 l 646 945 l 256 913 l 170 747 l 66 767 l 95 1053 l 875 1053 l 906 949 l 413 224 l 315 111 l 692 142 l 827 323 l 928 296 l 854 0 l 60 0 l 32 94 z "},"":{"ha":781,"x_min":35,"x_max":755,"o":"m 131 1154 l 220 1204 l 400 1063 l 576 1203 l 674 1153 l 486 905 l 315 905 l 131 1154 m 35 68 l 113 193 l 410 595 l 467 656 l 233 643 l 189 506 l 65 506 l 65 759 l 714 759 l 749 675 l 426 205 l 342 102 l 589 126 l 629 243 l 755 243 l 744 0 l 66 0 l 35 68 z "},"":{"ha":669,"x_min":70,"x_max":692,"o":"m 194 619 l 70 619 l 75 690 l 203 744 l 210 815 q 226 897 213 854 q 261 979 239 939 q 314 1055 283 1019 q 383 1118 345 1090 q 466 1160 421 1145 q 561 1176 511 1176 q 595 1175 577 1176 q 631 1171 613 1173 q 665 1164 649 1168 q 692 1154 680 1160 l 677 978 q 659 986 673 980 q 626 999 645 992 q 586 1010 608 1005 q 543 1015 564 1015 q 503 1012 520 1015 q 472 996 485 1008 q 451 958 459 983 q 439 887 443 932 l 429 759 l 608 759 l 608 619 l 418 619 l 352 -240 l 127 -240 l 194 619 z "},"":{"ha":464,"x_min":-27,"x_max":370,"o":"m 130 533 l 56 633 l 56 692 l 315 781 l 370 762 l 370 -11 q 351 -153 370 -90 q 296 -259 332 -216 q 212 -326 261 -303 q 102 -349 162 -349 q 75 -349 95 -349 q 33 -347 55 -348 q -6 -343 12 -345 q -27 -339 -24 -341 l -27 -186 q -8 -189 -21 -188 q 18 -192 4 -191 q 46 -193 33 -193 q 65 -193 59 -193 q 100 -182 87 -193 q 120 -149 113 -172 q 129 -89 127 -125 q 130 -1 130 -53 l 130 533 z "},"":{"ha":721,"x_min":89,"x_max":632,"o":"m 89 956 l 273 1204 l 444 1204 l 632 956 l 534 906 l 358 1046 l 178 905 l 89 956 z "},"":{"ha":720,"x_min":92,"x_max":635,"o":"m 92 1154 l 180 1204 l 361 1063 l 536 1203 l 635 1153 l 447 905 l 275 905 l 92 1154 z "},"":{"ha":974,"x_min":233,"x_max":741,"o":"m 487 911 q 376 933 423 911 q 297 988 328 954 q 249 1065 265 1023 q 233 1148 233 1107 l 376 1148 q 384 1123 378 1140 q 401 1090 389 1107 q 434 1060 413 1073 q 488 1048 455 1048 q 539 1060 519 1048 q 573 1090 560 1073 q 592 1124 586 1107 q 600 1149 598 1141 l 741 1149 q 724 1065 741 1107 q 674 989 707 1023 q 595 933 642 955 q 487 911 548 911 z "},"":{"ha":481,"x_min":109,"x_max":372,"o":"m 229 901 q 182 907 204 901 q 144 925 161 913 q 118 954 127 937 q 109 994 109 972 q 120 1039 109 1019 q 152 1074 132 1059 q 196 1097 172 1089 q 248 1105 221 1105 q 304 1098 281 1105 q 343 1078 328 1090 q 365 1048 358 1065 q 372 1010 372 1031 q 360 965 372 985 q 329 930 349 945 q 282 908 309 916 q 229 901 256 901 z "},"":{"ha":431,"x_min":17,"x_max":416,"o":"m 216 871 q 139 886 175 871 q 75 926 102 901 q 33 985 48 951 q 17 1058 17 1019 q 33 1131 17 1097 q 75 1190 48 1164 q 139 1230 102 1215 q 216 1244 175 1244 q 294 1229 257 1244 q 357 1188 330 1214 q 400 1129 385 1162 q 416 1058 416 1095 q 400 985 416 1019 q 357 926 385 951 q 294 886 330 901 q 216 871 257 871 m 216 968 q 251 975 235 968 q 279 993 267 981 q 298 1022 292 1005 q 305 1058 305 1038 q 298 1093 305 1076 q 279 1122 292 1109 q 251 1142 267 1135 q 216 1149 235 1149 q 179 1142 195 1149 q 150 1123 162 1135 q 132 1094 138 1111 q 125 1058 125 1078 q 132 1022 125 1038 q 150 993 138 1005 q 179 975 162 981 q 216 968 195 968 z "},"":{"ha":522,"x_min":-149,"x_max":304,"o":"m 184 7 l 270 0 q 198 -30 232 -13 q 139 -66 165 -47 q 97 -102 114 -84 q 76 -132 81 -119 q 70 -169 68 -155 q 78 -190 71 -183 q 97 -200 85 -197 q 119 -202 108 -202 q 160 -200 139 -203 q 202 -191 181 -197 q 242 -179 222 -186 q 281 -165 262 -172 l 304 -256 q 161 -327 237 -304 q -3 -349 85 -349 q -70 -338 -43 -349 q -113 -313 -96 -328 q -138 -277 -130 -297 q -148 -238 -146 -258 q -133 -182 -149 -214 q -84 -117 -117 -150 q -5 -53 -52 -83 q 104 0 43 -22 l 184 7 z "},"":{"ha":733,"x_min":76,"x_max":656,"o":"m 76 995 q 112 1050 87 1025 q 168 1095 138 1076 q 230 1125 199 1114 q 285 1136 261 1136 q 350 1125 322 1136 q 400 1102 377 1115 q 442 1079 422 1089 q 484 1068 462 1068 q 547 1083 519 1068 q 596 1116 574 1099 l 656 1050 q 621 995 645 1021 q 567 949 596 968 q 507 919 537 930 q 452 907 476 907 q 387 918 416 907 q 335 942 359 929 q 291 966 312 956 q 249 977 271 977 q 219 973 234 977 q 189 961 203 968 q 161 946 174 954 q 135 928 147 937 l 76 995 z "},"":{"ha":661,"x_min":-12,"x_max":727,"o":"m 377 964 l 570 1246 l 727 1134 q 676 1072 707 1108 q 610 1001 646 1036 q 537 936 574 965 q 469 897 500 907 l 377 964 m -12 964 l 184 1246 l 335 1134 q 288 1073 317 1108 q 223 1004 258 1038 q 152 940 189 969 q 85 897 116 911 l -12 964 z "},"":{"ha":1324,"x_min":142,"x_max":1181,"o":"m 649 1053 l 671 1053 l 1181 18 l 1171 1 l 151 1 l 142 15 l 649 1053 m 930 118 l 635 705 l 350 118 l 930 118 z "},"":{"ha":1446,"x_min":106,"x_max":1331,"o":"m 106 362 l 219 367 l 249 197 l 487 197 q 381 274 433 225 q 289 381 330 323 q 224 504 248 440 q 201 627 199 568 q 224 766 203 703 q 283 877 246 828 q 369 960 319 925 q 475 1018 418 996 q 596 1052 533 1041 q 724 1063 660 1063 q 928 1034 835 1063 q 1087 951 1021 1006 q 1190 818 1154 897 q 1223 637 1226 739 q 1210 563 1222 602 q 1178 483 1198 524 q 1132 403 1158 443 q 1075 327 1105 363 q 1012 256 1044 290 q 949 197 980 223 l 1166 197 l 1234 372 l 1331 367 l 1289 0 l 823 0 l 824 163 q 860 208 842 178 q 895 277 878 237 q 925 363 911 316 q 949 461 939 410 q 965 566 960 513 q 971 671 971 619 q 955 790 971 737 q 906 881 939 844 q 827 939 874 919 q 718 960 780 960 q 613 945 661 960 q 529 895 564 930 q 474 799 494 859 q 454 648 454 739 q 461 555 454 603 q 481 461 469 508 q 511 371 494 415 q 547 288 528 326 q 586 217 566 249 q 625 163 606 184 l 626 0 l 607 52 l 625 0 l 106 0 l 106 362 z "},"":{"ha":1110,"x_min":39,"x_max":1058,"o":"m 87 77 q 103 82 92 78 q 128 92 114 85 q 159 105 142 98 q 189 123 175 113 q 237 165 219 144 q 267 212 256 187 q 282 266 277 237 q 288 330 286 295 l 307 562 l 241 562 q 176 544 202 562 q 138 493 150 525 l 41 513 q 42 542 39 524 q 50 579 45 560 q 83 653 61 620 q 134 710 105 686 q 197 746 163 733 q 265 758 231 758 l 796 758 q 876 774 842 758 q 931 831 910 789 l 1029 831 q 1013 738 1025 785 q 975 653 1000 692 q 912 590 950 615 q 819 562 873 565 l 805 248 q 806 194 803 216 q 813 158 808 172 q 826 138 819 144 q 842 132 834 132 q 899 150 873 132 q 937 203 925 169 l 1058 203 q 1027 130 1048 168 q 975 61 1006 92 q 904 10 944 30 q 819 -9 864 -9 q 661 37 707 -9 q 622 170 615 83 l 668 561 l 459 561 l 457 292 q 448 194 454 233 q 430 126 441 155 q 401 77 418 98 q 361 35 385 56 q 338 18 351 26 q 311 4 326 11 q 281 -7 296 -2 q 253 -16 267 -12 l 87 77 z "},"":{"ha":2083,"x_min":0,"x_max":0,"o":""},"":{"ha":1389,"x_min":0,"x_max":0,"o":""},"":{"ha":694,"x_min":0,"x_max":0,"o":""},"":{"ha":1389,"x_min":0,"x_max":0,"o":""},"":{"ha":463,"x_min":0,"x_max":0,"o":""},"":{"ha":347,"x_min":0,"x_max":0,"o":""},"":{"ha":232,"x_min":0,"x_max":0,"o":""},"":{"ha":873,"x_min":0,"x_max":0,"o":""},"":{"ha":490,"x_min":0,"x_max":0,"o":""},"":{"ha":278,"x_min":0,"x_max":0,"o":""},"":{"ha":139,"x_min":0,"x_max":0,"o":""},"":{"ha":1024,"x_min":124,"x_max":900,"o":"m 124 650 l 900 650 l 900 490 l 124 490 l 124 650 z "},"":{"ha":1638,"x_min":124,"x_max":1514,"o":"m 124 650 l 1514 650 l 1514 491 l 124 491 l 124 650 z "},"":{"ha":625,"x_min":131,"x_max":494,"o":"m 312 515 q 225 569 260 534 q 169 646 190 604 q 139 731 148 688 q 132 808 131 774 q 146 907 133 861 q 182 994 160 954 q 233 1066 204 1034 q 294 1126 262 1099 q 360 1171 326 1152 q 425 1201 393 1190 l 494 1138 l 494 1109 q 451 1079 474 1101 q 408 1028 427 1057 q 375 964 388 998 q 362 898 362 930 q 371 852 362 875 q 395 810 380 829 q 429 778 410 791 q 469 764 448 766 l 469 711 l 312 515 z "},"":{"ha":625,"x_min":131,"x_max":494,"o":"m 131 580 l 131 609 q 175 639 152 617 q 218 690 199 661 q 251 753 238 720 q 264 820 264 787 q 255 866 264 843 q 230 908 245 889 q 196 940 215 927 q 155 954 176 952 l 155 1006 l 313 1202 q 400 1149 365 1184 q 456 1072 435 1114 q 486 987 477 1030 q 494 910 494 944 q 463 766 492 831 q 392 652 435 701 q 298 568 349 602 q 201 517 248 534 l 131 580 z "},"":{"ha":625,"x_min":131,"x_max":494,"o":"m 155 103 l 313 298 q 400 245 365 280 q 456 169 435 210 q 486 83 477 127 q 494 6 494 40 q 479 -91 492 -46 q 443 -173 465 -136 q 392 -241 421 -211 q 331 -296 363 -272 q 266 -337 299 -320 q 201 -366 232 -355 l 131 -303 l 131 -274 q 175 -248 152 -266 q 218 -203 198 -229 q 250 -147 237 -178 q 263 -83 263 -116 q 254 -37 263 -60 q 230 5 245 -14 q 196 36 215 24 q 155 51 176 49 l 155 103 z "},"":{"ha":1042,"x_min":130,"x_max":911,"o":"m 728 515 q 641 568 676 533 q 585 646 606 604 q 555 730 564 688 q 548 807 547 773 q 563 906 549 859 q 598 992 576 952 q 650 1065 621 1032 q 711 1125 679 1099 q 776 1170 743 1151 q 840 1200 809 1189 l 911 1137 l 911 1108 q 867 1078 890 1100 q 824 1027 844 1057 q 791 964 804 998 q 778 897 778 930 q 787 850 778 873 q 811 809 796 827 q 846 778 827 790 q 886 763 865 765 l 886 711 l 728 515 m 312 515 q 224 568 260 533 q 168 646 189 604 q 139 730 147 688 q 132 807 130 773 q 146 906 132 859 q 182 992 159 952 q 233 1065 204 1032 q 295 1125 262 1099 q 360 1170 327 1151 q 424 1200 393 1189 l 495 1137 l 495 1108 q 450 1078 473 1100 q 407 1027 427 1057 q 375 964 388 998 q 362 897 362 930 q 371 850 362 873 q 395 809 380 827 q 429 778 410 790 q 469 763 448 765 l 469 711 l 312 515 z "},"":{"ha":1043,"x_min":131,"x_max":912,"o":"m 547 606 q 592 636 568 614 q 635 687 615 658 q 667 751 654 717 q 680 817 680 785 q 671 863 680 840 q 648 905 663 886 q 613 937 633 924 q 573 951 594 949 l 573 1004 l 730 1200 q 818 1146 783 1181 q 874 1069 853 1111 q 904 984 895 1027 q 911 907 912 941 q 897 809 910 855 q 861 722 883 762 q 810 649 839 682 q 748 590 781 616 q 683 545 716 564 q 619 515 650 526 l 547 577 l 547 606 m 131 577 l 131 606 q 175 636 152 614 q 219 687 199 658 q 252 751 239 717 q 264 817 264 785 q 255 863 264 840 q 231 905 246 886 q 196 937 216 924 q 156 951 177 949 l 156 1004 l 313 1200 q 401 1146 366 1181 q 457 1069 436 1111 q 487 984 479 1027 q 494 907 496 941 q 479 809 493 855 q 444 722 466 762 q 393 649 422 682 q 332 590 363 616 q 267 545 300 564 q 203 515 233 526 l 131 577 z "},"":{"ha":1009,"x_min":131,"x_max":879,"o":"m 540 105 l 697 301 q 785 248 749 283 q 841 170 820 212 q 870 85 862 128 q 878 8 879 42 q 863 -91 877 -44 q 827 -177 850 -137 q 776 -250 805 -216 q 714 -309 747 -283 q 649 -354 682 -335 q 585 -385 616 -373 l 513 -321 l 513 -292 q 558 -263 535 -284 q 602 -212 582 -241 q 634 -149 621 -182 q 647 -82 647 -115 q 638 -36 647 -59 q 614 7 629 -12 q 579 38 599 26 q 540 53 560 51 l 540 105 m 157 105 l 315 301 q 401 248 366 283 q 458 170 437 212 q 488 85 479 128 q 495 8 496 42 q 480 -91 494 -44 q 445 -177 467 -137 q 393 -250 422 -216 q 332 -309 364 -283 q 267 -354 300 -335 q 203 -385 234 -373 l 131 -321 l 131 -292 q 176 -263 152 -284 q 219 -212 199 -241 q 252 -149 239 -182 q 264 -82 264 -115 q 255 -36 264 -59 q 231 7 246 -12 q 197 38 216 26 q 157 53 178 51 l 157 105 z "},"":{"ha":760,"x_min":87,"x_max":673,"o":"m 273 580 l 296 743 l 87 716 l 87 899 l 297 866 l 270 1056 l 270 1118 l 490 1118 l 490 1056 l 463 866 l 673 899 l 673 716 l 465 743 l 487 580 l 433 178 l 313 178 l 273 580 z "},"":{"ha":760,"x_min":87,"x_max":673,"o":"m 87 471 l 297 438 l 273 580 l 296 743 l 87 716 l 87 899 l 297 866 l 270 1056 l 270 1118 l 490 1118 l 490 1056 l 463 866 l 673 899 l 673 716 l 465 743 l 487 580 l 463 438 l 673 471 l 673 288 l 465 315 l 487 152 l 434 -250 l 314 -250 l 273 152 l 296 315 l 87 288 l 87 471 z "},"":{"ha":623,"x_min":77,"x_max":547,"o":"m 300 300 q 212 318 254 300 q 140 368 170 336 q 93 440 109 399 q 81 527 77 481 q 105 615 84 574 q 159 686 126 656 q 235 733 192 716 q 324 751 277 751 q 412 733 371 751 q 484 686 454 716 q 530 615 514 656 q 543 527 547 574 q 519 438 540 479 q 466 366 498 397 q 390 317 433 335 q 300 300 348 300 z "},"":{"ha":1626,"x_min":121,"x_max":1504,"o":"m 1202 106 q 1217 167 1202 139 q 1256 216 1232 195 q 1308 249 1279 237 q 1364 260 1336 260 q 1426 250 1400 260 q 1470 222 1453 239 q 1496 180 1487 204 q 1504 129 1504 156 q 1490 67 1504 94 q 1452 20 1476 39 q 1399 -9 1429 1 q 1340 -20 1370 -20 q 1290 -11 1314 -20 q 1245 13 1265 -3 q 1214 53 1226 29 q 1202 106 1202 76 m 662 106 q 677 167 662 139 q 715 216 692 195 q 767 249 739 237 q 823 260 795 260 q 886 250 859 260 q 929 222 912 239 q 955 180 947 204 q 964 129 964 156 q 949 67 964 94 q 912 20 935 39 q 859 -9 888 1 q 800 -20 829 -20 q 749 -11 774 -20 q 705 13 724 -3 q 674 53 686 29 q 662 106 662 76 m 121 106 q 136 167 121 139 q 175 216 151 195 q 227 249 198 237 q 283 260 255 260 q 345 250 319 260 q 389 222 372 239 q 415 180 406 204 q 423 129 423 156 q 409 67 423 94 q 371 20 395 39 q 318 -9 348 1 q 259 -20 289 -20 q 209 -11 233 -20 q 164 13 184 -3 q 133 53 145 29 q 121 106 121 76 z "},"":{"ha":2045,"x_min":74,"x_max":1953,"o":"m 871 1200 l 1034 1200 l 543 -120 l 381 -120 l 871 1200 m 328 469 q 222 489 269 469 q 142 542 175 508 q 92 620 109 575 q 74 714 74 665 q 97 822 74 775 q 158 902 119 869 q 246 951 196 934 q 351 968 296 968 q 465 948 417 968 q 544 896 513 929 q 590 817 575 862 q 604 720 604 772 q 582 613 604 660 q 520 534 559 566 q 432 486 482 503 q 328 469 382 469 m 347 566 q 410 607 387 566 q 433 715 433 647 q 425 779 433 750 q 403 828 416 808 q 373 860 390 848 q 340 871 357 871 q 302 860 319 871 q 272 830 285 850 q 252 782 259 810 q 245 720 245 754 q 254 661 245 688 q 278 612 264 633 q 311 578 293 591 q 347 566 329 566 m 1423 356 q 1446 464 1423 417 q 1507 544 1468 511 q 1595 593 1545 576 q 1699 610 1645 610 q 1814 590 1766 610 q 1893 537 1862 571 q 1939 459 1924 504 q 1953 362 1953 414 q 1930 255 1953 302 q 1869 176 1908 208 q 1781 128 1831 144 q 1676 111 1731 111 q 1571 131 1617 111 q 1491 184 1524 151 q 1440 262 1458 218 q 1423 356 1423 307 m 829 356 q 852 464 829 417 q 913 544 875 511 q 1002 593 951 576 q 1106 610 1052 610 q 1221 590 1173 610 q 1300 537 1269 571 q 1345 459 1331 504 q 1360 362 1360 414 q 1337 255 1360 302 q 1276 176 1314 208 q 1187 128 1238 144 q 1083 111 1137 111 q 977 131 1024 111 q 898 184 930 151 q 847 262 865 218 q 829 356 829 307 m 1598 361 q 1607 302 1598 330 q 1631 254 1617 275 q 1664 220 1646 233 q 1699 208 1682 208 q 1763 249 1740 208 q 1786 357 1786 289 q 1777 421 1786 392 q 1756 470 1769 450 q 1726 502 1743 490 q 1693 513 1710 513 q 1655 502 1672 513 q 1625 472 1638 492 q 1605 424 1612 452 q 1598 361 1598 396 m 1004 361 q 1014 302 1004 330 q 1038 254 1023 275 q 1070 220 1053 233 q 1106 208 1088 208 q 1169 249 1146 208 q 1192 357 1192 289 q 1184 421 1192 392 q 1163 470 1176 450 q 1133 502 1149 490 q 1099 513 1116 513 q 1062 502 1079 513 q 1031 472 1044 492 q 1011 424 1019 452 q 1004 361 1004 396 z "},"":{"ha":870,"x_min":155,"x_max":715,"o":"m 155 513 l 656 776 l 715 684 l 406 416 l 715 161 l 656 61 l 155 307 l 155 513 z "},"":{"ha":870,"x_min":151,"x_max":711,"o":"m 460 420 l 151 675 l 210 776 l 711 530 l 711 323 l 210 61 l 151 153 l 460 420 z "},"":{"ha":725,"x_min":20,"x_max":705,"o":"m 559 1276 l 705 1233 l 162 -233 l 20 -182 l 559 1276 z "},"":{"ha":1151,"x_min":59,"x_max":1023,"o":"m 59 469 l 180 469 l 180 484 q 182 542 180 513 q 189 600 184 570 l 79 600 l 79 716 l 216 716 q 280 849 239 786 q 381 960 320 912 q 523 1035 441 1007 q 712 1063 605 1063 q 812 1053 768 1063 q 894 1031 857 1042 q 962 1014 931 1021 q 1023 1015 994 1007 l 1010 758 l 903 758 l 854 887 q 777 926 822 913 q 675 939 731 939 q 584 924 622 939 q 521 880 547 909 q 481 809 496 850 q 460 716 467 768 l 761 716 l 761 600 l 452 600 q 451 561 451 581 q 451 519 451 541 q 451 493 451 506 q 452 469 451 481 l 749 469 l 749 355 l 460 355 q 486 250 469 297 q 531 169 503 203 q 603 117 560 136 q 705 98 646 99 q 766 104 741 98 q 809 121 791 111 q 844 153 831 134 q 867 195 858 172 q 882 242 876 218 q 896 288 888 267 l 1022 288 l 1022 43 q 977 44 998 47 q 936 35 957 41 q 891 19 915 28 q 837 1 868 9 q 766 -13 806 -7 q 671 -19 726 -19 q 497 7 577 -19 q 356 83 418 34 q 253 201 295 132 q 193 355 212 270 l 59 355 l 59 469 z "},"":{"ha":1585,"x_min":124,"x_max":1461,"o":"m 686 588 l 764 604 l 782 968 l 720 977 l 720 1053 l 982 1053 l 1067 813 l 1082 750 l 1180 1053 l 1430 1053 l 1430 977 l 1369 969 l 1393 603 l 1461 587 l 1461 527 l 1185 527 l 1185 587 l 1235 600 l 1238 835 q 1238 846 1238 840 q 1238 867 1238 852 q 1239 907 1238 882 q 1240 975 1239 932 l 1230 926 l 1092 522 l 1037 522 l 882 899 l 859 972 l 864 869 l 860 603 l 923 588 l 923 527 l 686 527 l 686 588 m 239 588 l 317 601 l 317 967 l 214 949 l 189 873 l 124 871 l 132 1053 l 648 1053 l 654 875 l 595 869 l 563 954 l 477 967 l 477 602 l 559 588 l 559 527 l 239 527 l 239 588 z "},"":{"ha":1004,"x_min":73,"x_max":910,"o":"m 73 264 q 94 391 73 331 q 152 502 115 450 q 239 595 189 553 q 348 665 289 636 q 470 710 406 694 q 600 726 534 726 q 700 718 651 726 q 674 844 692 784 q 620 950 655 904 q 531 1022 585 996 q 397 1049 477 1049 q 303 1037 348 1049 q 215 1000 258 1025 l 149 1089 q 309 1164 223 1138 q 483 1190 394 1190 q 683 1151 602 1190 q 815 1042 765 1111 q 888 883 866 974 q 910 688 910 791 q 899 522 910 608 q 863 355 888 437 q 797 201 838 274 q 699 74 757 128 q 562 -13 640 19 q 384 -45 484 -45 q 249 -19 307 -45 q 152 50 191 7 q 93 149 113 93 q 73 264 73 205 m 277 338 q 293 248 277 292 q 338 170 309 204 q 408 116 368 136 q 498 95 449 95 q 560 109 532 95 q 609 148 587 123 q 645 205 630 172 q 671 275 661 237 q 689 352 682 312 q 699 429 695 391 q 703 476 701 453 q 705 520 704 499 q 612 569 661 551 q 507 587 562 587 q 418 572 460 587 q 345 527 376 557 q 295 449 313 496 q 277 338 277 402 z "},"":{"ha":1332,"x_min":109,"x_max":1230,"o":"m 242 3 l 241 926 l 109 941 l 109 1053 l 1230 1053 l 1230 941 l 1090 926 l 1090 3 l 1223 -26 l 1223 -120 l 717 -120 l 717 -26 l 848 2 l 848 941 l 485 941 l 485 3 l 610 -25 l 610 -120 l 116 -120 l 116 -25 l 242 3 z "},"":{"ha":1028,"x_min":139,"x_max":921,"o":"m 474 433 l 139 920 l 144 1053 l 857 1053 l 878 821 l 759 821 l 702 943 l 387 954 l 715 477 l 335 -11 l 721 3 l 800 142 l 921 117 l 884 -122 l 144 -121 l 139 -10 l 474 433 z "},"":{"ha":895,"x_min":124,"x_max":771,"o":"m 124 650 l 771 650 l 771 490 l 124 490 l 124 650 z "},"":{"ha":1204,"x_min":66,"x_max":1137,"o":"m 66 393 l 189 480 l 406 480 l 587 -38 l 592 -38 l 986 1302 l 1137 1302 l 663 -240 l 462 -240 l 219 345 l 134 282 l 66 393 z "},"":{"ha":1581,"x_min":103,"x_max":1478,"o":"m 104 374 q 118 459 103 415 q 159 547 133 504 q 220 628 185 589 q 296 696 256 667 q 379 742 336 725 q 464 759 422 759 q 580 741 528 759 q 674 695 632 724 q 752 631 717 667 q 817 559 787 595 q 887 632 849 596 q 966 696 924 668 q 1051 742 1007 724 q 1141 759 1095 759 q 1266 739 1206 759 q 1373 681 1326 718 q 1447 590 1419 643 q 1477 471 1476 537 q 1463 386 1478 430 q 1422 298 1449 341 q 1361 217 1396 256 q 1285 149 1326 178 q 1202 103 1245 120 q 1118 86 1159 86 q 1001 104 1053 86 q 907 150 949 121 q 829 213 864 178 q 764 286 794 249 q 694 213 732 249 q 615 149 656 177 q 530 103 574 121 q 441 86 486 86 q 315 106 376 86 q 209 164 255 127 q 134 255 163 202 q 104 374 106 308 m 897 473 q 957 406 924 442 q 1026 338 989 370 q 1102 286 1063 307 q 1179 265 1141 265 q 1215 277 1197 265 q 1247 309 1233 289 q 1271 358 1262 330 q 1277 418 1279 386 q 1254 488 1275 455 q 1204 544 1234 520 q 1139 583 1174 568 q 1074 597 1104 597 q 988 564 1034 597 q 897 473 942 532 m 304 427 q 327 357 307 390 q 378 301 348 325 q 443 262 408 277 q 508 248 477 248 q 594 281 548 248 q 684 372 640 313 q 625 439 658 402 q 555 507 591 475 q 479 559 518 538 q 402 580 440 580 q 367 568 385 580 q 334 536 349 556 q 311 487 319 515 q 304 427 302 459 z "},"":{"ha":846,"x_min":29,"x_max":816,"o":"m 140 -119 q 154 -149 144 -134 q 178 -177 164 -164 q 208 -198 191 -189 q 242 -206 224 -206 q 287 -199 265 -206 q 327 -169 309 -191 q 354 -106 344 -147 q 365 1 365 -66 q 357 134 365 68 q 338 262 349 199 q 312 389 326 326 q 287 516 298 452 q 268 645 275 580 q 260 777 260 710 q 286 931 260 861 q 358 1053 312 1002 q 468 1133 405 1104 q 605 1162 531 1162 q 656 1158 627 1162 q 715 1144 686 1155 q 771 1114 745 1134 q 816 1062 798 1095 l 705 968 q 691 997 701 982 q 667 1025 681 1013 q 637 1046 654 1038 q 603 1055 621 1055 q 558 1047 580 1055 q 518 1018 536 1040 q 491 955 501 996 q 480 848 480 914 q 495 649 480 746 q 529 456 511 552 q 563 263 548 360 q 578 64 578 166 q 553 -90 578 -19 q 483 -211 528 -160 q 376 -291 438 -262 q 240 -320 314 -320 q 189 -317 218 -320 q 130 -303 159 -313 q 74 -273 100 -292 q 29 -220 47 -253 l 140 -119 z "},"":{"ha":943,"x_min":124,"x_max":819,"o":"m 124 713 q 137 743 126 726 q 164 779 147 760 q 202 815 180 798 q 250 847 224 833 q 302 870 275 861 q 358 879 330 879 q 410 872 387 879 q 453 854 433 865 q 489 831 472 844 q 524 809 506 819 q 561 791 541 798 q 604 784 580 784 q 650 791 628 784 q 692 809 673 798 q 727 831 711 819 q 752 852 742 843 l 819 766 q 796 716 816 745 q 744 661 776 687 q 672 617 713 635 q 587 599 631 599 q 536 606 558 599 q 494 624 513 613 q 458 647 475 635 q 424 670 441 659 q 385 688 406 681 q 337 695 364 695 q 291 688 313 695 q 250 670 269 681 q 216 648 231 660 q 191 627 201 636 l 124 713 m 124 315 q 137 345 126 328 q 164 381 147 362 q 202 417 180 399 q 250 449 224 435 q 302 472 275 463 q 358 481 330 481 q 410 474 387 481 q 453 456 433 467 q 489 433 472 446 q 524 411 506 421 q 561 393 541 400 q 604 386 580 386 q 650 393 628 386 q 692 411 673 400 q 727 433 711 421 q 752 454 742 445 l 819 368 q 796 318 816 347 q 744 263 776 289 q 672 219 713 237 q 587 201 631 201 q 536 208 558 201 q 494 226 513 215 q 458 249 475 237 q 424 272 441 261 q 385 290 406 283 q 337 297 364 297 q 291 290 313 297 q 250 272 269 283 q 216 250 231 262 q 191 229 201 238 l 124 315 z "},"":{"ha":895,"x_min":124,"x_max":771,"o":"m 291 292 l 124 292 l 124 449 l 345 449 l 409 664 l 124 664 l 124 821 l 464 821 l 509 960 l 659 960 l 614 821 l 771 821 l 771 664 l 559 664 l 495 449 l 771 449 l 771 292 l 441 292 l 386 120 l 236 120 l 291 292 z "},"":{"ha":909,"x_min":124,"x_max":785,"o":"m 128 706 l 785 979 l 785 786 l 416 660 l 785 538 l 785 345 l 128 614 l 128 706 m 124 240 l 771 240 l 771 80 l 124 80 l 124 240 z "},"":{"ha":909,"x_min":124,"x_max":785,"o":"m 128 538 l 496 660 l 128 786 l 128 979 l 785 706 l 785 614 l 128 345 l 128 538 m 124 240 l 771 240 l 771 80 l 124 80 l 124 240 z "},"":{"ha":905,"x_min":93,"x_max":811,"o":"m 93 432 l 93 514 l 372 960 l 552 960 l 811 528 l 811 446 l 532 0 l 352 0 l 93 432 m 644 444 l 433 802 l 259 517 l 468 157 l 644 444 z "},"":{"ha":1283,"x_min":35,"x_max":1282,"o":"m 690 92 l 800 113 l 800 619 l 676 619 l 676 690 l 800 744 l 800 815 q 811 897 800 854 q 843 979 822 939 q 893 1055 863 1019 q 960 1118 922 1090 q 1042 1160 998 1145 q 1137 1176 1086 1176 q 1175 1175 1154 1176 q 1215 1171 1195 1173 q 1252 1164 1234 1168 q 1282 1154 1270 1160 l 1282 978 q 1261 986 1277 980 q 1224 999 1245 992 q 1178 1010 1202 1005 q 1131 1015 1154 1015 q 1091 1012 1108 1015 q 1063 996 1074 1008 q 1046 958 1052 983 q 1040 887 1040 932 l 1040 759 l 1244 759 l 1244 619 l 1040 619 l 1040 112 l 1203 92 l 1203 0 l 690 0 l 690 92 m 49 92 l 159 113 l 159 619 l 35 619 l 35 690 l 159 744 l 159 815 q 170 897 159 854 q 201 979 180 939 q 251 1055 222 1019 q 318 1118 281 1090 q 400 1160 356 1145 q 495 1176 445 1176 q 533 1175 513 1176 q 573 1171 553 1173 q 611 1164 593 1168 q 641 1154 629 1160 l 641 978 q 620 986 635 980 q 582 999 604 992 q 536 1010 561 1005 q 489 1015 512 1015 q 450 1012 467 1015 q 421 996 433 1008 q 405 958 410 983 q 399 887 399 932 l 399 759 l 602 759 l 602 619 l 399 619 l 399 112 l 562 92 l 562 0 l 49 0 l 49 92 z "},"":{"ha":1149,"x_min":35,"x_max":1124,"o":"m 885 899 q 833 907 859 899 q 788 932 808 916 q 757 972 769 949 q 745 1026 745 996 q 760 1086 745 1059 q 799 1135 775 1114 q 852 1166 823 1155 q 911 1178 882 1178 q 974 1168 948 1178 q 1017 1140 1000 1158 q 1042 1099 1034 1122 q 1050 1050 1050 1076 q 1037 987 1050 1015 q 999 940 1023 960 q 946 909 976 920 q 885 899 916 899 m 49 92 l 159 113 l 159 619 l 35 619 l 35 690 l 159 744 l 159 815 q 170 897 159 854 q 201 979 180 939 q 251 1055 222 1019 q 318 1118 281 1090 q 400 1160 356 1145 q 495 1176 445 1176 q 533 1175 513 1176 q 573 1171 553 1173 q 611 1164 593 1168 q 641 1154 629 1160 l 641 978 q 620 986 635 980 q 582 999 604 992 q 536 1010 561 1005 q 489 1015 512 1015 q 450 1012 467 1015 q 421 996 433 1008 q 405 958 410 983 q 399 887 399 932 l 399 759 l 602 759 l 602 619 l 399 619 l 399 112 l 562 92 l 562 0 l 49 0 l 49 92 m 695 92 l 787 111 l 787 533 l 700 631 l 700 694 l 968 781 l 1026 764 l 1026 110 l 1124 92 l 1124 0 l 695 0 l 695 92 z "},"":{"ha":1140,"x_min":35,"x_max":1128,"o":"m 49 92 l 159 113 l 159 619 l 35 619 l 35 690 l 159 744 l 159 815 q 170 897 159 854 q 201 979 180 939 q 251 1055 222 1019 q 318 1118 281 1090 q 400 1160 356 1145 q 495 1176 445 1176 q 533 1175 513 1176 q 573 1171 553 1173 q 611 1164 593 1168 q 641 1154 629 1160 l 641 978 q 620 986 635 980 q 582 999 604 992 q 536 1010 561 1005 q 489 1015 512 1015 q 450 1012 467 1015 q 421 996 433 1008 q 405 958 410 983 q 399 887 399 932 l 399 759 l 602 759 l 602 619 l 399 619 l 399 112 l 562 92 l 562 0 l 49 0 l 49 92 m 689 92 l 769 109 l 769 939 l 677 977 l 677 1072 l 970 1105 l 1009 1093 l 1009 113 l 1128 92 l 1128 0 l 689 0 l 689 92 z "},"":{"ha":1790,"x_min":35,"x_max":1765,"o":"m 1387 1026 q 1402 1086 1387 1059 q 1440 1135 1417 1114 q 1494 1166 1464 1155 q 1553 1178 1523 1178 q 1616 1168 1590 1178 q 1659 1140 1642 1158 q 1684 1099 1676 1122 q 1692 1050 1692 1076 q 1678 987 1692 1015 q 1641 940 1664 960 q 1588 909 1617 920 q 1527 899 1558 899 q 1475 907 1500 899 q 1430 932 1449 916 q 1399 972 1411 949 q 1387 1026 1387 996 m 690 92 l 800 113 l 800 619 l 676 619 l 676 690 l 800 744 l 800 815 q 811 897 800 854 q 843 979 822 939 q 893 1055 863 1019 q 960 1118 922 1090 q 1042 1160 998 1145 q 1137 1176 1086 1176 q 1175 1175 1154 1176 q 1215 1171 1195 1173 q 1252 1164 1234 1168 q 1282 1154 1270 1160 l 1282 978 q 1261 986 1277 980 q 1224 999 1245 992 q 1178 1010 1202 1005 q 1131 1015 1154 1015 q 1091 1012 1108 1015 q 1063 996 1074 1008 q 1046 958 1052 983 q 1040 887 1040 932 l 1040 759 l 1244 759 l 1244 619 l 1040 619 l 1040 112 l 1203 92 l 1203 0 l 690 0 l 690 92 m 49 92 l 159 113 l 159 619 l 35 619 l 35 690 l 159 744 l 159 815 q 170 897 159 854 q 201 979 180 939 q 251 1055 222 1019 q 318 1118 281 1090 q 400 1160 356 1145 q 495 1176 445 1176 q 533 1175 513 1176 q 573 1171 553 1173 q 611 1164 593 1168 q 641 1154 629 1160 l 641 978 q 620 986 635 980 q 582 999 604 992 q 536 1010 561 1005 q 489 1015 512 1015 q 450 1012 467 1015 q 421 996 433 1008 q 405 958 410 983 q 399 887 399 932 l 399 759 l 602 759 l 602 619 l 399 619 l 399 112 l 562 92 l 562 0 l 49 0 l 49 92 m 1337 92 l 1428 111 l 1428 533 l 1341 631 l 1341 694 l 1610 781 l 1668 764 l 1668 110 l 1765 92 l 1765 0 l 1337 0 l 1337 92 z "},"":{"ha":1782,"x_min":35,"x_max":1769,"o":"m 690 92 l 800 113 l 800 619 l 676 619 l 676 690 l 800 744 l 800 815 q 811 897 800 854 q 843 979 822 939 q 893 1055 863 1019 q 960 1118 922 1090 q 1042 1160 998 1145 q 1137 1176 1086 1176 q 1175 1175 1154 1176 q 1215 1171 1195 1173 q 1252 1164 1234 1168 q 1282 1154 1270 1160 l 1282 978 q 1261 986 1277 980 q 1224 999 1245 992 q 1178 1010 1202 1005 q 1131 1015 1154 1015 q 1091 1012 1108 1015 q 1063 996 1074 1008 q 1046 958 1052 983 q 1040 887 1040 932 l 1040 759 l 1244 759 l 1244 619 l 1040 619 l 1040 112 l 1203 92 l 1203 0 l 690 0 l 690 92 m 49 92 l 159 113 l 159 619 l 35 619 l 35 690 l 159 744 l 159 815 q 170 897 159 854 q 201 979 180 939 q 251 1055 222 1019 q 318 1118 281 1090 q 400 1160 356 1145 q 495 1176 445 1176 q 533 1175 513 1176 q 573 1171 553 1173 q 611 1164 593 1168 q 641 1154 629 1160 l 641 978 q 620 986 635 980 q 582 999 604 992 q 536 1010 561 1005 q 489 1015 512 1015 q 450 1012 467 1015 q 421 996 433 1008 q 405 958 410 983 q 399 887 399 932 l 399 759 l 602 759 l 602 619 l 399 619 l 399 112 l 562 92 l 562 0 l 49 0 l 49 92 m 1331 92 l 1411 109 l 1411 939 l 1319 977 l 1319 1072 l 1611 1105 l 1651 1093 l 1651 113 l 1769 92 l 1769 0 l 1331 0 l 1331 92 z "}}}
